<svg width="22" height="22" viewBox="0 0 22 22" fill="none" xmlns="http://www.w3.org/2000/svg">
<path fill-rule="evenodd" clip-rule="evenodd" d="M14.9 1.5H18.101C19.426 1.5 20.5 2.57399 20.5 3.89999V7.09998C20.5 8.42498 19.426 9.5 18.101 9.5H14.9C13.574 9.5 12.5 8.42498 12.5 7.09998V3.89999C12.5 2.57399 13.574 1.5 14.9 1.5Z" stroke="#D9C172" stroke-width="1.5" stroke-linecap="round" stroke-linejoin="round"/>
<path fill-rule="evenodd" clip-rule="evenodd" d="M3.89999 1.5H7.10001C8.42601 1.5 9.5 2.57399 9.5 3.89999V7.09998C9.5 8.42498 8.42601 9.5 7.10001 9.5H3.89999C2.57399 9.5 1.5 8.42498 1.5 7.09998V3.89999C1.5 2.57399 2.57399 1.5 3.89999 1.5Z" stroke="#D9C172" stroke-width="1.5" stroke-linecap="round" stroke-linejoin="round"/>
<path fill-rule="evenodd" clip-rule="evenodd" d="M3.89999 12.5H7.10001C8.42601 12.5 9.5 13.574 9.5 14.901V18.1C9.5 19.426 8.42601 20.5 7.10001 20.5H3.89999C2.57399 20.5 1.5 19.426 1.5 18.1V14.901C1.5 13.574 2.57399 12.5 3.89999 12.5Z" stroke="#D9C172" stroke-width="1.5" stroke-linecap="round" stroke-linejoin="round"/>
<path fill-rule="evenodd" clip-rule="evenodd" d="M14.9 12.5H18.101C19.426 12.5 20.5 13.574 20.5 14.901V18.1C20.5 19.426 19.426 20.5 18.101 20.5H14.9C13.574 20.5 12.5 19.426 12.5 18.1V14.901C12.5 13.574 13.574 12.5 14.9 12.5Z" stroke="#D9C172" stroke-width="1.5" stroke-linecap="round" stroke-linejoin="round"/>
</svg>
