<svg width="38" height="38" viewBox="0 0 38 38" fill="none" xmlns="http://www.w3.org/2000/svg">
<path d="M21.25 35.4772C22.493 35.4772 23.5 34.4542 23.5 33.1932C23.5 31.9312 22.493 30.9082 21.25 30.9082C20.007 30.9082 19 31.9312 19 33.1932C19 34.4542 20.007 35.4772 21.25 35.4772Z" stroke="#D9C172" stroke-width="1.2" stroke-miterlimit="10" stroke-linecap="round" stroke-linejoin="round"/>
<path d="M7 35.4772C8.243 35.4772 9.25 34.4542 9.25 33.1932C9.25 31.9312 8.243 30.9082 7 30.9082C5.757 30.9082 4.75 31.9312 4.75 33.1932C4.75 34.4542 5.757 35.4772 7 35.4772Z" stroke="#D9C172" stroke-width="1.2" stroke-miterlimit="10" stroke-linecap="round" stroke-linejoin="round"/>
<path d="M23.5 33.1929H26.5V31.2589C26.5 30.1699 25.743 29.2329 24.693 29.0199L19 27.8619L15.482 25.8219C14.342 25.1589 13.06 24.8169 11.755 24.8169H4.78C3.107 24.8169 1.75 26.1949 1.75 27.8929V33.1929H4.75" stroke="#D9C172" stroke-width="1.2" stroke-miterlimit="10" stroke-linecap="round" stroke-linejoin="round"/>
<path d="M11.5 33.1929H19" stroke="#D9C172" stroke-width="1.2" stroke-miterlimit="10" stroke-linecap="round" stroke-linejoin="round"/>
<path d="M4.75 27.8628H19" stroke="#D9C172" stroke-width="1.2" stroke-miterlimit="10" stroke-linecap="round" stroke-linejoin="round"/>
<path d="M1 36.9999H29.5V33.1929H37" stroke="#D9C172" stroke-width="1.2" stroke-miterlimit="10" stroke-linecap="round" stroke-linejoin="round"/>
<path d="M29.5 15.6792V30.9082" stroke="#D9C172" stroke-width="1.2" stroke-miterlimit="10" stroke-linecap="round" stroke-linejoin="round"/>
<path d="M22.75 13.183C22.75 14.021 23.425 14.706 24.25 14.706H34.75C35.575 14.706 36.25 14.021 36.25 13.183V2.5229C36.25 1.6853 35.575 1 34.75 1H24.25C23.425 1 22.75 1.6853 22.75 2.5229V13.183Z" stroke="#D9C172" stroke-width="1.2" stroke-miterlimit="10"/>
<path d="M27.25 12.4222V4.0459H29.875C31.322 4.0459 32.5 5.2413 32.5 6.711C32.5 8.1802 31.322 9.3762 29.875 9.3762H27.25" stroke="#D9C172" stroke-width="1.2" stroke-miterlimit="10" stroke-linecap="round" stroke-linejoin="round"/>
</svg>
