<svg width="16" height="22" viewBox="0 0 16 22" fill="none" xmlns="http://www.w3.org/2000/svg">
<path fill-rule="evenodd" clip-rule="evenodd" d="M7.81998 20.6618C4.12798 20.6618 0.974976 20.0868 0.974976 17.7868C0.974976 15.4858 4.10798 13.3618 7.81998 13.3618C11.511 13.3618 14.664 15.4648 14.664 17.7658C14.664 20.0658 11.531 20.6618 7.81998 20.6618Z" stroke="#D7BF71" stroke-width="1.5" stroke-linecap="round" stroke-linejoin="round"/>
<path fill-rule="evenodd" clip-rule="evenodd" d="M7.81202 10.1739C10.235 10.1739 12.199 8.20987 12.199 5.78687C12.199 3.36387 10.235 1.3999 7.81202 1.3999C5.39002 1.3999 3.42501 3.36387 3.42501 5.78687C3.41701 8.20187 5.36701 10.1649 7.78101 10.1739C7.79201 10.1739 7.80202 10.1739 7.81202 10.1739Z" stroke="#D7BF71" stroke-width="1.5" stroke-linecap="round" stroke-linejoin="round"/>
</svg>
