<svg width="19" height="19" viewBox="0 0 19 19" fill="none" xmlns="http://www.w3.org/2000/svg">
<path d="M8.14404 14.8828H1.67102" stroke="#D9C172" stroke-width="1.5" stroke-linecap="round" stroke-linejoin="round"/>
<path fill-rule="evenodd" clip-rule="evenodd" d="M12.205 14.8841C12.205 16.9261 12.886 17.6061 14.927 17.6061C16.968 17.6061 17.649 16.9261 17.649 14.8841C17.649 12.8421 16.968 12.1621 14.927 12.1621C12.886 12.1621 12.205 12.8421 12.205 14.8841Z" stroke="#D9C172" stroke-width="1.5" stroke-linecap="round" stroke-linejoin="round"/>
<path d="M11.177 4.39355H17.648" stroke="#D9C172" stroke-width="1.5" stroke-linecap="round" stroke-linejoin="round"/>
<path fill-rule="evenodd" clip-rule="evenodd" d="M7.11502 4.3927C7.11502 2.3518 6.43404 1.6709 4.39304 1.6709C2.35204 1.6709 1.67102 2.3518 1.67102 4.3927C1.67102 6.4345 2.35204 7.1145 4.39304 7.1145C6.43404 7.1145 7.11502 6.4345 7.11502 4.3927Z" stroke="#D9C172" stroke-width="1.5" stroke-linecap="round" stroke-linejoin="round"/>
</svg>
