<svg width="40" height="40" viewBox="0 0 40 40" fill="none" xmlns="http://www.w3.org/2000/svg">
<path fill-rule="evenodd" clip-rule="evenodd" d="M0 20C0 5.001 5.0011 0 20 0C34.999 0 40 5.001 40 20C40 34.999 34.999 40 20 40C5.0011 40 0 34.999 0 20Z" fill="#D9C172"/>
<path fill-rule="evenodd" clip-rule="evenodd" d="M19.985 23.3457C16.1171 23.3457 12.8143 23.9307 12.8143 26.2727C12.8143 28.6147 16.0962 29.2197 19.985 29.2197C23.852 29.2197 27.154 28.6347 27.154 26.2937C27.154 23.9527 23.873 23.3457 19.985 23.3457Z" stroke="#503E00" stroke-width="1.5" stroke-linecap="round" stroke-linejoin="round"/>
<path fill-rule="evenodd" clip-rule="evenodd" d="M19.985 20.0064C22.523 20.0064 24.58 17.9485 24.58 15.4105C24.58 12.8725 22.523 10.8145 19.985 10.8145C17.4467 10.8145 15.3886 12.8725 15.3886 15.4105C15.38 17.9395 17.4238 19.9974 19.952 20.0064H19.985Z" stroke="#503E00" stroke-width="1.5" stroke-linecap="round" stroke-linejoin="round"/>
</svg>
