<svg width="36" height="36" viewBox="0 0 36 36" fill="none" xmlns="http://www.w3.org/2000/svg">
<path d="M27.661 36.0002C27.369 36.0002 27.115 35.7972 27.081 35.5202L26.607 31.7482C26.605 31.7292 26.604 31.7102 26.604 31.6912C26.593 30.7702 26.971 29.9012 27.667 29.2442C28.035 28.8952 28.571 28.3512 28.959 27.6472C29.364 26.9132 29.97 25.8532 30.613 24.7292C31.827 22.6062 33.203 20.2012 33.612 19.3092C33.701 19.1132 33.752 18.9052 33.761 18.6922L33.509 10.4912C33.508 10.4742 33.509 10.4582 33.509 10.4422C33.538 10.0122 33.202 9.63024 32.759 9.59024C32.53 9.56924 32.309 9.63424 32.134 9.77123C31.959 9.90924 31.855 10.1022 31.841 10.3132L31.377 18.0232C31.376 18.0302 31.376 18.0373 31.376 18.0453C31.355 18.2423 31.273 18.4162 31.24 18.4812C31.202 18.5582 31.15 18.6563 31.07 18.7563L26.024 25.0802C25.771 25.3922 25.405 25.5942 24.991 25.6492C24.577 25.7042 24.165 25.6062 23.831 25.3742C23.141 24.8942 23 23.9832 23.517 23.3422L25.271 21.1743L26.851 19.2072C27.034 18.9802 27.107 18.7003 27.058 18.4203C27.008 18.1403 26.842 17.8962 26.59 17.7352C26.101 17.4222 25.404 17.5402 25.034 17.9992L20.774 23.3002C20.699 23.3952 20.64 23.5023 20.602 23.6183C20.594 23.6413 20.585 23.6632 20.575 23.6852C20.215 24.4202 20.486 27.2192 20.666 29.0722C20.779 30.2382 20.877 31.2452 20.859 31.8472C20.859 31.8572 20.858 31.8662 20.857 31.8762L20.55 35.4992C20.524 35.7982 20.242 36.0212 19.919 35.9982C19.597 35.9742 19.357 35.7132 19.382 35.4142L19.688 31.8052C19.702 31.2612 19.603 30.2442 19.499 29.1692C19.223 26.3122 19.06 24.2122 19.492 23.2702C19.57 23.0462 19.685 22.8372 19.835 22.6512L24.095 17.3513C24.836 16.4283 26.254 16.2002 27.255 16.8422C27.772 17.1733 28.112 17.6712 28.214 18.2442C28.316 18.8172 28.166 19.3902 27.791 19.8562L26.21 21.8242L24.456 23.9933C24.325 24.1553 24.361 24.3842 24.535 24.5042C24.619 24.5632 24.723 24.5872 24.827 24.5742C24.93 24.5602 25.023 24.5092 25.086 24.4312L30.131 18.1072C30.143 18.0922 30.157 18.0683 30.174 18.0323C30.178 18.0243 30.182 18.0162 30.186 18.0082C30.194 17.9912 30.206 17.9592 30.21 17.9432L30.673 10.2492C30.707 9.73723 30.956 9.27524 31.376 8.94424C31.794 8.61324 32.327 8.45924 32.874 8.50924C33.945 8.60624 34.734 9.47023 34.681 10.4822L34.933 18.6772C34.933 18.6872 34.933 18.6982 34.933 18.7082C34.922 19.0622 34.84 19.4072 34.691 19.7332C34.262 20.6682 32.874 23.0952 31.649 25.2372C31.009 26.3562 30.404 27.4133 30.003 28.1403C29.542 28.9763 28.927 29.6043 28.505 30.0023C28.035 30.4463 27.777 31.0312 27.776 31.6512L28.245 35.3943C28.283 35.6913 28.053 35.9612 27.732 35.9962C27.707 35.9992 27.684 36.0002 27.661 36.0002Z" fill="#D9C172"/>
<path d="M28.414 16.8481C28.397 16.8481 28.381 16.8481 28.363 16.8461C28.041 16.8201 27.803 16.5571 27.83 16.2581L28.187 12.4081C28.253 11.6981 28.827 11.1091 29.583 10.9771L29.8 12.0441C29.559 12.0861 29.375 12.2741 29.354 12.5021L28.997 16.3521C28.971 16.6351 28.715 16.8481 28.414 16.8481Z" fill="#D9C172"/>
<path d="M25.751 17.5098C25.733 17.5098 25.716 17.5088 25.698 17.5078C25.375 17.4808 25.138 17.2168 25.167 16.9178L25.3859 14.6588C25.4519 13.9498 26.026 13.3608 26.782 13.2298C27.1 13.1738 27.406 13.3678 27.466 13.6628C27.526 13.9568 27.317 14.2408 26.999 14.2968C26.758 14.3388 26.5749 14.5268 26.5539 14.7538L26.334 17.0158C26.306 17.2978 26.051 17.5098 25.751 17.5098Z" fill="#D9C172"/>
<path d="M9.01999 36.0002C8.99699 36.0002 8.97499 35.9992 8.95099 35.9962C8.63099 35.9622 8.39999 35.6922 8.43799 35.3942L8.90701 31.6522C8.90601 31.0322 8.64801 30.4472 8.17801 30.0032C7.75601 29.6042 7.14099 28.9762 6.67999 28.1412C6.27999 27.4142 5.675 26.3572 5.034 25.2372C3.809 23.0962 2.42101 20.6682 1.99301 19.7342C1.84301 19.4082 1.761 19.0632 1.75 18.7082C1.75 18.6982 1.75 18.6882 1.75 18.6772L2.00299 10.4832C1.94999 9.47117 2.73799 8.60718 3.80899 8.51018C4.35699 8.46018 4.88901 8.61518 5.30801 8.94518C5.72601 9.27618 5.97601 9.73717 6.01001 10.2462L6.47198 17.9442C6.47599 17.9592 6.48799 17.9922 6.49799 18.0132C6.50399 18.0232 6.508 18.0322 6.513 18.0422C6.528 18.0722 6.54001 18.0932 6.54901 18.1042L11.599 24.4342C11.66 24.5092 11.752 24.5602 11.856 24.5742C11.96 24.5872 12.064 24.5632 12.148 24.5042C12.322 24.3832 12.357 24.1542 12.227 23.9922L10.474 21.8252L8.89099 19.8562C8.51699 19.3902 8.36699 18.8172 8.46799 18.2442C8.56999 17.6712 8.91 17.1732 9.42599 16.8422C10.427 16.2002 11.845 16.4282 12.587 17.3512L16.846 22.6512C16.996 22.8382 17.112 23.0462 17.189 23.2702C17.621 24.2122 17.459 26.3132 17.182 29.1692C17.078 30.2452 16.979 31.2612 16.993 31.8052L17.3 35.4142C17.326 35.7132 17.085 35.9742 16.762 35.9982C16.44 36.0212 16.158 35.7982 16.132 35.4992L15.824 31.8762C15.824 31.8662 15.823 31.8572 15.823 31.8472C15.806 31.2442 15.903 30.2372 16.016 29.0722C16.195 27.2192 16.466 24.4202 16.107 23.6852C16.097 23.6632 16.088 23.6412 16.08 23.6182C16.041 23.5022 15.984 23.3952 15.907 23.3002L11.647 17.9992C11.278 17.5402 10.581 17.4222 10.092 17.7352C9.84001 17.8972 9.67299 18.1402 9.62399 18.4202C9.57399 18.7002 9.64699 18.9792 9.83099 19.2072L11.412 21.1752L13.164 23.3422C13.681 23.9832 13.54 24.8942 12.85 25.3742C12.516 25.6062 12.103 25.7042 11.69 25.6492C11.276 25.5942 10.91 25.3922 10.659 25.0832L5.60901 18.7532C5.53101 18.6572 5.47901 18.5592 5.44101 18.4822C5.40801 18.4182 5.32599 18.2432 5.30499 18.0452C5.30399 18.0382 5.30399 18.0302 5.30399 18.0232L4.84 10.3102C4.826 10.1012 4.722 9.90916 4.547 9.77116C4.373 9.63416 4.151 9.56916 3.922 9.59016C3.479 9.63016 3.14299 10.0122 3.17099 10.4422C3.17199 10.4582 3.173 10.4742 3.172 10.4912L2.92001 18.6922C2.92901 18.9052 2.979 19.1132 3.069 19.3092C3.478 20.2012 4.85399 22.6062 6.06799 24.7292C6.71099 25.8522 7.31598 26.9132 7.72198 27.6472C8.10998 28.3512 8.64501 28.8952 9.01401 29.2442C9.71001 29.9012 10.087 30.7702 10.077 31.6912C10.077 31.7102 10.076 31.7292 10.073 31.7482L9.60001 35.5202C9.56701 35.7972 9.31399 36.0002 9.01999 36.0002Z" fill="#D9C172"/>
<path d="M8.26701 16.8479C7.96701 16.8479 7.71101 16.6349 7.68501 16.3519L7.32802 12.5009C7.30702 12.2739 7.124 12.0869 6.882 12.0439C6.565 11.9879 6.35502 11.7049 6.41502 11.4099C6.47602 11.1149 6.78201 10.9209 7.09901 10.9769C7.85501 11.1099 8.43001 11.6979 8.49501 12.4079L8.852 16.2579C8.88 16.5569 8.64101 16.8199 8.31901 16.8459C8.30101 16.8469 8.28501 16.8479 8.26701 16.8479Z" fill="#D9C172"/>
<path d="M10.931 17.5099C10.631 17.5099 10.376 17.2979 10.348 17.0149L10.129 14.7559C10.108 14.5259 9.92399 14.3389 9.68199 14.2959C9.36399 14.2399 9.15498 13.9559 9.21498 13.6619C9.27498 13.3669 9.58097 13.1729 9.89897 13.2289C10.655 13.3609 11.23 13.9499 11.295 14.6599L11.515 16.9179C11.544 17.2159 11.306 17.4799 10.984 17.5069C10.967 17.5089 10.949 17.5099 10.931 17.5099Z" fill="#D9C172"/>
<path d="M26.495 7.38776H10.57C10.291 7.38776 10.065 7.14476 10.065 6.84476C10.065 6.54576 10.291 6.30176 10.57 6.30176H26.495C26.774 6.30176 27 6.54576 27 6.84476C26.999 7.14576 26.774 7.38776 26.495 7.38776Z" fill="#D9C172"/>
<path d="M18.532 17.2292C18.386 17.2292 18.248 17.1612 18.151 17.0422L10.189 7.20221C10.024 6.99821 10.0229 6.6952 10.1879 6.4902L13.914 1.8652C14.009 1.7472 14.149 1.67822 14.295 1.67822H22.7699C22.9159 1.67822 23.055 1.7462 23.151 1.8652L26.877 6.4902C27.042 6.6942 27.041 6.99821 26.876 7.20221L18.913 17.0432C18.817 17.1612 18.678 17.2292 18.532 17.2292ZM11.238 6.84521L18.532 15.8592L25.827 6.84521L22.539 2.76422H14.525L11.238 6.84521Z" fill="#D9C172"/>
<path d="M18.532 17.2292C18.316 17.2292 18.1239 17.0811 18.0549 16.8601L14.95 7.02014C14.898 6.85414 14.924 6.67117 15.018 6.52817L18.052 1.99014C18.147 1.84814 18.299 1.76416 18.461 1.76416C18.623 1.76416 18.775 1.84817 18.87 1.98917L21.91 6.52817C22.004 6.66817 22.0299 6.84815 21.9809 7.01315L19.0109 16.8531C18.9439 17.0751 18.752 17.2271 18.535 17.2281C18.534 17.2291 18.534 17.2292 18.532 17.2292ZM15.9899 6.93616L18.521 14.9641L20.9429 6.94016L18.462 3.23615L15.9899 6.93616Z" fill="#D9C172"/>
<path d="M33.497 4.13174C33.174 4.13174 32.911 3.88875 32.911 3.58975V3.13675C32.911 2.83675 33.174 2.59375 33.497 2.59375C33.82 2.59375 34.082 2.83675 34.082 3.13675V3.58975C34.082 3.88875 33.82 4.13174 33.497 4.13174Z" fill="#D9C172"/>
<path d="M33.497 7.2338C33.174 7.2338 32.911 6.9908 32.911 6.6908V6.2388C32.911 5.9388 33.174 5.6958 33.497 5.6958C33.82 5.6958 34.082 5.9388 34.082 6.2388V6.6908C34.082 6.9908 33.82 7.2338 33.497 7.2338Z" fill="#D9C172"/>
<path d="M32.068 5.45709H31.58C31.257 5.45709 30.995 5.21409 30.995 4.91409C30.995 4.61509 31.257 4.37109 31.58 4.37109H32.068C32.391 4.37109 32.654 4.61509 32.654 4.91409C32.654 5.21409 32.391 5.45709 32.068 5.45709Z" fill="#D9C172"/>
<path d="M35.414 5.45709H34.926C34.603 5.45709 34.341 5.21409 34.341 4.91409C34.341 4.61509 34.603 4.37109 34.926 4.37109H35.414C35.738 4.37109 36 4.61509 36 4.91409C36 5.21409 35.738 5.45709 35.414 5.45709Z" fill="#D9C172"/>
<path d="M2.50201 2.54776C2.17901 2.54776 1.91699 2.30476 1.91699 2.00476V1.55276C1.91699 1.25276 2.17901 1.00977 2.50201 1.00977C2.82601 1.00977 3.08801 1.25276 3.08801 1.55276V2.00476C3.08801 2.30576 2.82601 2.54776 2.50201 2.54776Z" fill="#D9C172"/>
<path d="M2.50201 5.64981C2.17901 5.64981 1.91699 5.40682 1.91699 5.10782V4.65482C1.91699 4.35582 2.17901 4.11182 2.50201 4.11182C2.82601 4.11182 3.08801 4.35582 3.08801 4.65482V5.10782C3.08801 5.40682 2.82601 5.64981 2.50201 5.64981Z" fill="#D9C172"/>
<path d="M1.07401 3.87408H0.585999C0.261999 3.87408 0 3.63009 0 3.33109C0 3.03109 0.261999 2.78809 0.585999 2.78809H1.07401C1.39701 2.78809 1.659 3.03109 1.659 3.33109C1.659 3.63009 1.39701 3.87408 1.07401 3.87408Z" fill="#D9C172"/>
<path d="M4.42001 3.87408H3.93201C3.60901 3.87408 3.34601 3.63009 3.34601 3.33109C3.34601 3.03109 3.60901 2.78809 3.93201 2.78809H4.42001C4.74301 2.78809 5.005 3.03109 5.005 3.33109C5.005 3.63009 4.74301 3.87408 4.42001 3.87408Z" fill="#D9C172"/>
<path d="M7.193 6.93291C7.465 6.67991 7.465 6.2699 7.193 6.0169C6.92 5.7639 6.47702 5.7639 6.20402 6.0169C5.93102 6.2699 5.93102 6.67991 6.20402 6.93291C6.47702 7.18591 6.92 7.18591 7.193 6.93291Z" fill="#D9C172"/>
<path d="M29.326 1.37511C29.378 1.02011 29.111 0.694103 28.728 0.645103C28.346 0.597103 27.994 0.845119 27.941 1.19912C27.889 1.55412 28.157 1.8801 28.539 1.9291C28.921 1.9771 29.274 1.72911 29.326 1.37511Z" fill="#D9C172"/>
<path d="M8.45903 1.44512C8.81603 1.30912 8.98601 0.930112 8.83901 0.599112C8.69201 0.268112 8.28402 0.110123 7.92702 0.247123C7.57002 0.383123 7.40001 0.761124 7.54701 1.09212C7.69401 1.42312 8.10203 1.58112 8.45903 1.44512Z" fill="#D9C172"/>
</svg>
