<svg width="40" height="40" viewBox="0 0 40 40" fill="none" xmlns="http://www.w3.org/2000/svg">
<path fill-rule="evenodd" clip-rule="evenodd" d="M0 20C0 5.001 5.001 0 20 0C34.999 0 40 5.001 40 20C40 34.999 34.999 40 20 40C5.001 40 0 34.999 0 20Z" fill="#D9C172"/>
<path d="M28.6117 20.9998L28.829 20.6244L30.0248 18.5577L28.6117 20.9998ZM28.6117 20.9998L28.8288 21.3754M28.6117 20.9998L28.8288 21.3754M28.8288 21.3754L30.0238 23.4424L30.0241 23.4429C30.046 23.4808 30.0603 23.5226 30.066 23.5661C30.0718 23.6095 30.069 23.6536 30.0577 23.6959C30.0464 23.7382 30.0268 23.7779 30.0002 23.8127C29.9735 23.8474 29.9403 23.8766 29.9024 23.8985L29.9023 23.8986L27.8332 25.0946L27.4585 25.3111V25.7439V28.1262C27.4585 28.2146 27.4234 28.2993 27.3608 28.3619C27.2983 28.4244 27.2136 28.4595 27.1251 28.4595H24.7429H24.3099L24.0934 28.8344L22.8992 30.9024C22.8991 30.9026 22.8989 30.9028 22.8988 30.903C22.8544 30.9793 22.7815 31.035 22.6962 31.0578C22.6107 31.0806 22.5196 31.0686 22.4429 31.0244C22.4429 31.0244 22.4429 31.0244 22.4428 31.0244L20.3743 29.8287L19.9988 29.6117L19.6234 29.8289L17.5567 31.0247C17.5043 31.055 17.4471 31.0699 17.3914 31.0703C17.3324 31.0696 17.2745 31.0538 17.2234 31.0242C17.1721 30.9946 17.1293 30.9522 17.0991 30.9011C17.0989 30.9008 17.0987 30.9004 17.0984 30.9L15.9044 28.8342L15.6878 28.4595H15.2551H12.8717C12.7833 28.4595 12.6985 28.4244 12.636 28.3619C12.5735 28.2993 12.5384 28.2146 12.5384 28.1262V25.7439V25.3111L12.1637 25.0946L10.0976 23.9004C10.0973 23.9002 10.0969 23.9 10.0966 23.8997C10.0202 23.8547 9.96452 23.7814 9.9417 23.6957C9.91883 23.6098 9.93074 23.5184 9.97483 23.4413C9.97496 23.4411 9.97508 23.4408 9.97521 23.4406L11.1701 21.3756L11.3874 21L11.1701 20.6244L9.97406 18.5574L9.97315 18.5558C9.95121 18.5181 9.93693 18.4764 9.93115 18.4332C9.92536 18.3899 9.92818 18.346 9.93943 18.3038C9.95069 18.2617 9.97016 18.2222 9.99673 18.1876C10.0233 18.153 10.0564 18.124 10.0943 18.1022L10.0956 18.1014L12.1648 16.9054L12.5395 16.6888V16.2561V13.8738C12.5395 13.7854 12.5746 13.7006 12.6371 13.6381C12.6996 13.5756 12.7844 13.5405 12.8728 13.5405H15.2551H15.6878L15.9044 13.1658L17.1004 11.0966L17.1006 11.0963C17.1448 11.0198 17.2176 10.9639 17.303 10.941C17.3884 10.9182 17.4793 10.9301 17.5559 10.9743L19.6245 12.1711L19.9999 12.3883L20.3754 12.1712L22.4446 10.9752L22.4463 10.9743C22.4835 10.9526 22.5247 10.9385 22.5675 10.9329C22.6102 10.9273 22.6536 10.9302 22.6952 10.9414L22.8915 10.2176L22.6948 10.9413C22.7813 10.9648 22.8551 11.0214 22.9003 11.0987C22.9004 11.099 22.9006 11.0992 22.9007 11.0994L24.0946 13.1657L24.3111 13.5405H24.744H27.1262C27.2146 13.5405 27.2994 13.5756 27.3619 13.6381C27.4244 13.7006 27.4596 13.7854 27.4596 13.8738V16.2572V16.6899M28.8288 21.3754L27.4596 16.6899M27.4596 16.6899L27.8342 16.9065M27.4596 16.6899L27.8342 16.9065M27.8342 16.9065L29.9031 18.1023C29.9796 18.1466 30.0354 18.2194 30.0583 18.3048C30.081 18.3901 30.0691 18.4809 30.025 18.5574L27.8342 16.9065Z" fill="#D9C172" stroke="#503E00" stroke-width="1.5"/>
<path d="M18.831 17.0482C18.6025 16.8042 18.2925 16.6671 17.9693 16.667C17.646 16.6669 17.3359 16.8038 17.1073 17.0476C16.8786 17.2914 16.7501 17.6221 16.75 17.967C16.7499 18.3119 16.8782 18.6427 17.1067 18.8867C17.3352 19.1306 17.6452 19.2677 17.9684 19.2679C18.2917 19.268 18.6018 19.1311 18.8304 18.8873C19.0591 18.6435 19.1876 18.3128 19.1877 17.9679C19.1878 17.623 19.0595 17.2921 18.831 17.0482Z" fill="#503E00"/>
<path d="M16.9133 23.9479L18.2129 24.987L23.0867 18.0537L21.7871 17.0145L16.9133 23.9479Z" fill="#503E00"/>
<path d="M21.5643 25.2345C21.7122 25.2999 21.8707 25.3336 22.0307 25.3337C22.354 25.3338 22.6641 25.1969 22.8927 24.9531C23.1214 24.7093 23.2499 24.3786 23.25 24.0337C23.2501 23.6888 23.1218 23.3579 22.8933 23.114C22.6648 22.87 22.3548 22.7329 22.0316 22.7328C21.8715 22.7327 21.713 22.7663 21.5651 22.8316C21.4172 22.8969 21.2828 22.9927 21.1696 23.1134C21.0564 23.2341 20.9665 23.3774 20.9052 23.5352C20.8439 23.6929 20.8123 23.862 20.8123 24.0328C20.8122 24.2036 20.8437 24.3727 20.9049 24.5305C20.9661 24.6883 21.0559 24.8317 21.169 24.9525C21.2821 25.0733 21.4165 25.1691 21.5643 25.2345Z" fill="#503E00"/>
</svg>
