<svg width="40" height="40" viewBox="0 0 40 40" fill="none" xmlns="http://www.w3.org/2000/svg">
<path fill-rule="evenodd" clip-rule="evenodd" d="M0 20C0 5.001 5.0011 0 20 0C34.999 0 40 5.001 40 20C40 34.999 34.999 40 20 40C5.0011 40 0 34.999 0 20Z" fill="#D9C172"/>
<g opacity="0.9">
<path d="M10 15.4062C10 14.078 11.078 13 12.4062 13H26.8438C28.172 13 29.25 14.078 29.25 15.4062V24.3438C29.25 24.9819 28.9965 25.594 28.5452 26.0452C28.094 26.4965 27.4819 26.75 26.8438 26.75H12.4062C11.7681 26.75 11.156 26.4965 10.7048 26.0452C10.2535 25.594 10 24.9819 10 24.3438V15.4062ZM12.4062 14.375C12.1327 14.375 11.8704 14.4836 11.677 14.677C11.4836 14.8704 11.375 15.1327 11.375 15.4062V24.3438C11.375 24.913 11.837 25.375 12.4062 25.375H26.8438C27.1173 25.375 27.3796 25.2664 27.573 25.073C27.7664 24.8796 27.875 24.6173 27.875 24.3438V15.4062C27.875 15.1327 27.7664 14.8704 27.573 14.677C27.3796 14.4836 27.1173 14.375 26.8438 14.375H12.4062ZM21.6875 17.125C21.5052 17.125 21.3303 17.1974 21.2014 17.3264C21.0724 17.4553 21 17.6302 21 17.8125C21 17.9948 21.0724 18.1697 21.2014 18.2986C21.3303 18.4276 21.5052 18.5 21.6875 18.5H25.8125C25.9948 18.5 26.1697 18.4276 26.2986 18.2986C26.4276 18.1697 26.5 17.9948 26.5 17.8125C26.5 17.6302 26.4276 17.4553 26.2986 17.3264C26.1697 17.1974 25.9948 17.125 25.8125 17.125H21.6875ZM21.6875 21.25C21.5052 21.25 21.3303 21.3224 21.2014 21.4514C21.0724 21.5803 21 21.7552 21 21.9375C21 22.1198 21.0724 22.2947 21.2014 22.4236C21.3303 22.5526 21.5052 22.625 21.6875 22.625H25.8125C25.9948 22.625 26.1697 22.5526 26.2986 22.4236C26.4276 22.2947 26.5 22.1198 26.5 21.9375C26.5 21.7552 26.4276 21.5803 26.2986 21.4514C26.1697 21.3224 25.9948 21.25 25.8125 21.25H21.6875Z" fill="#503E00"/>
<path d="M16.5729 19.3397C16.3465 19.4335 16.1039 19.4818 15.8589 19.4818C15.364 19.4818 14.8894 19.2852 14.5395 18.9352C14.1896 18.5853 13.993 18.1107 13.993 17.6159C13.993 17.121 14.1896 16.6464 14.5395 16.2965C14.8894 15.9466 15.364 15.75 15.8589 15.75C16.1039 15.75 16.3465 15.7983 16.5729 15.892C16.7993 15.9858 17.005 16.1232 17.1782 16.2965C17.3515 16.4698 17.4889 16.6755 17.5827 16.9018C17.6765 17.1282 17.7248 17.3708 17.7248 17.6159C17.7248 17.8609 17.6765 18.1035 17.5827 18.3299C17.4889 18.5563 17.3515 18.762 17.1782 18.9352C17.005 19.1085 16.7993 19.2459 16.5729 19.3397Z" fill="#503E00"/>
<path d="M13.0955 20.7595C13.3168 20.5383 13.6169 20.414 13.9297 20.414H17.7894C17.9444 20.414 18.0979 20.4446 18.2412 20.5039C18.3844 20.5633 18.5145 20.6503 18.6241 20.76C18.7336 20.8697 18.8205 20.9999 18.8797 21.1432C18.9389 21.2865 18.9693 21.4401 18.9691 21.5951C18.9691 22.1072 18.7979 22.6046 18.4827 23.0082C18.1676 23.4118 17.7265 23.6984 17.2297 23.8226L17.1555 23.8405C16.3044 24.0536 15.4147 24.0536 14.5622 23.8405L14.4894 23.8212C13.9926 23.6971 13.5516 23.4104 13.2364 23.0068C12.9213 22.6032 12.75 22.1058 12.75 21.5938C12.75 21.2809 12.8743 20.9808 13.0955 20.7595Z" fill="#503E00"/>
</g>
</svg>
