<svg width="18" height="20" viewBox="0 0 18 20" fill="none" xmlns="http://www.w3.org/2000/svg">
<path fill-rule="evenodd" clip-rule="evenodd" d="M1 10C1 11.5 1.5 12 3 12C4.5 12 5 11.5 5 10C5 8.5 4.5 8 3 8C1.5 8 1 8.5 1 10Z" stroke="#D9C172" stroke-width="1.5" stroke-linecap="round" stroke-linejoin="round"/>
<path fill-rule="evenodd" clip-rule="evenodd" d="M1 17C1 18.5 1.5 19 3 19C4.5 19 5 18.5 5 17C5 15.5 4.5 15 3 15C1.5 15 1 15.5 1 17Z" stroke="white" stroke-width="1.5" stroke-linecap="round" stroke-linejoin="round"/>
<path d="M8 3H17" stroke="white" stroke-width="1.5" stroke-linecap="round" stroke-linejoin="round"/>
<path d="M8 10H17" stroke="#D9C172" stroke-width="1.5" stroke-linecap="round" stroke-linejoin="round"/>
<path d="M8 17H17" stroke="white" stroke-width="1.5" stroke-linecap="round" stroke-linejoin="round"/>
<path fill-rule="evenodd" clip-rule="evenodd" d="M5 3C5 1.5 4.5 1 3 1C1.5 1 1 1.5 1 3C1 4.5 1.5 5 3 5C4.5 5 5 4.5 5 3Z" stroke="white" stroke-width="1.5" stroke-linecap="round" stroke-linejoin="round"/>
</svg>
