<svg width="18" height="17" viewBox="0 0 18 17" fill="none" xmlns="http://www.w3.org/2000/svg">
<g clip-path="url(#clip0_10_1292)">
<path fill-rule="evenodd" clip-rule="evenodd" d="M0 5.58524C0 5.03479 0.229598 4.50688 0.638286 4.11766C1.04697 3.72843 1.60127 3.50977 2.17925 3.50977H10.3514C10.88 3.50971 11.3906 3.69261 11.7881 4.02441C12.1856 4.35621 12.4429 4.81429 12.5121 5.31335L15.9009 3.8792C16.0667 3.80881 16.2484 3.77902 16.4295 3.79253C16.6105 3.80605 16.7851 3.86244 16.9375 3.95658C17.0898 4.05072 17.215 4.17962 17.3017 4.33157C17.3884 4.48353 17.4339 4.65371 17.434 4.82665V12.5702C17.4338 12.743 17.3883 12.9131 17.3017 13.0649C17.215 13.2167 17.0899 13.3456 16.9378 13.4397C16.7856 13.5338 16.6111 13.5902 16.4303 13.6038C16.2494 13.6175 16.0678 13.5878 15.902 13.5177L12.5121 12.0835C12.4429 12.5826 12.1856 13.0407 11.7881 13.3725C11.3906 13.7043 10.88 13.8872 10.3514 13.8871H2.17925C1.60127 13.8871 1.04697 13.6685 0.638286 13.2792C0.229598 12.89 0 12.3621 0 11.8117V5.58524ZM12.5307 10.9555L16.3443 12.5702V4.82665L12.5307 6.44137V10.9555ZM2.17925 4.5475C1.89026 4.5475 1.61311 4.65683 1.40877 4.85145C1.20442 5.04606 1.08962 5.31001 1.08962 5.58524V11.8117C1.08962 12.0869 1.20442 12.3508 1.40877 12.5454C1.61311 12.7401 1.89026 12.8494 2.17925 12.8494H10.3514C10.6404 12.8494 10.9176 12.7401 11.1219 12.5454C11.3262 12.3508 11.441 12.0869 11.441 11.8117V5.58524C11.441 5.31001 11.3262 5.04606 11.1219 4.85145C10.9176 4.65683 10.6404 4.5475 10.3514 4.5475H2.17925Z" fill="#352364"/>
</g>
<defs>
<clipPath id="clip0_10_1292">
<rect width="17.434" height="16.6038" fill="white" transform="translate(0 0.396484)"/>
</clipPath>
</defs>
</svg>
