<svg width="216" height="216" viewBox="0 0 216 216" fill="none" xmlns="http://www.w3.org/2000/svg">
<path d="M187 12.5H28C19.4396 12.5 12.5 19.4396 12.5 28V187C12.5 195.56 19.4396 202.5 28 202.5H187C195.56 202.5 202.5 195.56 202.5 187V28C202.5 19.4396 195.56 12.5 187 12.5Z" stroke="#D9C172"/>
<path d="M60.444 1H24.778C18.4715 1 12.4235 3.505 7.9643 7.964C3.5052 12.424 1 18.472 1 24.778V60.444L60.444 1ZM215 60.444V24.778C215 18.472 212.495 12.424 208.036 7.964C203.576 3.505 197.528 1 191.222 1H155.556L215 60.444ZM155.556 215H191.222C197.528 215 203.576 212.495 208.036 208.036C212.495 203.576 215 197.528 215 191.222V155.556L155.556 215ZM1 155.556V191.222C1 197.528 3.5052 203.576 7.9643 208.036C12.4235 212.495 18.4715 215 24.778 215H60.444" stroke="#D9C172" stroke-linecap="round" stroke-linejoin="round"/>
</svg>
