<svg xmlns="http://www.w3.org/2000/svg" width="462.916" height="393.917" viewBox="0 0 462.916 393.917">
  <g id="apnmnt" transform="translate(-18.542 -63.313)">
    <g id="Group_66" data-name="Group 66">
      <g id="Group_1" data-name="Group 1">
        <ellipse id="Ellipse_1" data-name="Ellipse 1" cx="43.968" cy="9.481" rx="43.968" ry="9.481" transform="translate(83.95 438.268)" fill="#ebebeb"/>
        <ellipse id="Ellipse_2" data-name="Ellipse 2" cx="53.673" cy="9.481" rx="53.673" ry="9.481" transform="translate(308.362 438.268)" fill="#ebebeb"/>
        <ellipse id="Ellipse_3" data-name="Ellipse 3" cx="75.652" cy="5.76" rx="75.652" ry="5.76" transform="translate(283.064 432.508)" fill="#ebebeb"/>
      </g>
      <g id="Group_2" data-name="Group 2">
        <path id="Path_1" data-name="Path 1" d="M148.812,153.667s-77.1-16-101.1,26.666,5.333,79.718,16,112.193-12,50.685-13.334,93.58S87.4,425.155,188.792,425.155s226.917-1.459,240.25-1.459,39.593-45.166-5.87-80.6-20.771-56.417,14.883-80.257S509.3,134.333,423.172,83.667s-170,4-190.4,47.333S148.812,153.667,148.812,153.667Z" fill="#ebebeb"/>
        <path id="Path_2" data-name="Path 2" d="M101.974,298.8S89.042,253,34.542,240.251C38.042,323,95.907,369.6,101.974,373.8s0-75,0-75" fill="#929292"/>
        <path id="Path_3" data-name="Path 3" d="M101.042,366.035s-13-50.673-82.5-45.1c26,71.069,64.416,74.779,87.708,83.424S101.042,366.035,101.042,366.035Z" fill="#c7c7c7"/>
        <path id="Path_4" data-name="Path 4" d="M402.914,189.3S423.336,146.32,479.2,142.88c-17.315,80.993-82.169,117.238-88.855,120.362S402.914,189.3,402.914,189.3" fill="#929292"/>
        <path id="Path_5" data-name="Path 5" d="M392.567,255.744s21.307-47.779,88.891-30.644c-37.54,65.709-76.034,62.93-100.445,67.55S392.567,255.744,392.567,255.744Z" fill="#c7c7c7"/>
      </g>
      <g id="Group_65" data-name="Group 65">
        <g id="Group_31" data-name="Group 31">
          <g id="Group_5" data-name="Group 5">
            <path id="Path_6" data-name="Path 6" d="M402.119,116.2h-297.3a16.972,16.972,0,0,0-16.972,16.971V402.551a16.972,16.972,0,0,0,16.972,16.972h297.3a16.972,16.972,0,0,0,16.972-16.972V133.173A16.972,16.972,0,0,0,402.119,116.2ZM172.984,144.9a9.3,9.3,0,1,1,9.3-9.3A9.3,9.3,0,0,1,172.984,144.9Zm160.97,0a9.3,9.3,0,1,1,9.3-9.3A9.3,9.3,0,0,1,333.954,144.9Z" fill="#fffaff"/>
            <rect id="Rectangle_2" data-name="Rectangle 2" width="40.785" height="30.232" transform="translate(190.792 241.464)" fill="#8d8d8d"/>
            <g id="Group_4" data-name="Group 4">
              <g id="Group_3" data-name="Group 3">
                <path id="Path_7" data-name="Path 7" d="M402.119,116.2h-297.3a16.972,16.972,0,0,0-16.972,16.971v25.481H419.091V133.173A16.972,16.972,0,0,0,402.119,116.2ZM172.984,144.9a9.3,9.3,0,1,1,9.3-9.3A9.3,9.3,0,0,1,172.984,144.9Zm160.97,0a9.3,9.3,0,1,1,9.3-9.3A9.3,9.3,0,0,1,333.954,144.9Z" fill="#bfbfbf"/>
              </g>
            </g>
          </g>
          <g id="Group_28" data-name="Group 28">
            <g id="Group_20" data-name="Group 20">
              <g id="Group_19" data-name="Group 19">
                <g id="Group_6" data-name="Group 6">
                  <path id="Path_8" data-name="Path 8" d="M401.3,398.7H105.634V198.887H401.3Zm-294.438-1.232H400.072V200.119H106.866Z" fill="#dbdbdb"/>
                </g>
                <g id="Group_7" data-name="Group 7">
                  <rect id="Rectangle_3" data-name="Rectangle 3" width="294.438" height="1.213" transform="translate(106.25 240.251)" fill="#dbdbdb"/>
                </g>
                <g id="Group_8" data-name="Group 8">
                  <rect id="Rectangle_4" data-name="Rectangle 4" width="294.438" height="1.213" transform="translate(106.25 271.697)" fill="#dbdbdb"/>
                </g>
                <g id="Group_9" data-name="Group 9">
                  <rect id="Rectangle_5" data-name="Rectangle 5" width="294.438" height="1.213" transform="translate(106.25 303.143)" fill="#dbdbdb"/>
                </g>
                <g id="Group_10" data-name="Group 10">
                  <rect id="Rectangle_6" data-name="Rectangle 6" width="294.438" height="1.213" transform="translate(106.25 334.589)" fill="#dbdbdb"/>
                </g>
                <g id="Group_11" data-name="Group 11">
                  <rect id="Rectangle_7" data-name="Rectangle 7" width="294.438" height="1.213" transform="translate(106.25 366.035)" fill="#dbdbdb"/>
                </g>
                <g id="Group_18" data-name="Group 18">
                  <g id="Group_12" data-name="Group 12">
                    <rect id="Rectangle_8" data-name="Rectangle 8" width="1.197" height="198.584" transform="translate(147.615 199.503)" fill="#dbdbdb"/>
                  </g>
                  <g id="Group_13" data-name="Group 13">
                    <rect id="Rectangle_9" data-name="Rectangle 9" width="1.197" height="198.584" transform="translate(189.596 199.503)" fill="#dbdbdb"/>
                  </g>
                  <g id="Group_14" data-name="Group 14">
                    <rect id="Rectangle_10" data-name="Rectangle 10" width="1.197" height="198.584" transform="translate(231.577 199.503)" fill="#dbdbdb"/>
                  </g>
                  <g id="Group_15" data-name="Group 15">
                    <rect id="Rectangle_11" data-name="Rectangle 11" width="1.197" height="198.584" transform="translate(273.557 199.503)" fill="#dbdbdb"/>
                  </g>
                  <g id="Group_16" data-name="Group 16">
                    <rect id="Rectangle_12" data-name="Rectangle 12" width="1.197" height="198.584" transform="translate(315.538 199.503)" fill="#dbdbdb"/>
                  </g>
                  <g id="Group_17" data-name="Group 17">
                    <rect id="Rectangle_13" data-name="Rectangle 13" width="1.197" height="198.584" transform="translate(357.52 199.503)" fill="#dbdbdb"/>
                  </g>
                </g>
              </g>
            </g>
            <g id="Group_27" data-name="Group 27">
              <g id="Group_21" data-name="Group 21">
                <text id="_31" data-name="31" transform="translate(127.918 260.979)" fill="#ff596a" font-size="12.133" font-family="Montserrat-Regular, Montserrat"><tspan x="-5.612" y="0">31</tspan></text>
                <text id="_01" data-name="01" transform="translate(169.577 260.979)" fill="#bababa" font-size="12.133" font-family="Montserrat-Regular, Montserrat"><tspan x="-6.194" y="0">01</tspan></text>
                <text id="_02" data-name="02" transform="translate(211.437 260.979)" fill="#fff" font-size="12.133" font-family="Montserrat-Regular, Montserrat"><tspan x="-7.45" y="0">02</tspan></text>
                <text id="_03" data-name="03" transform="translate(253.299 260.979)" fill="#bababa" font-size="12.133" font-family="Montserrat-Regular, Montserrat"><tspan x="-7.377" y="0">03</tspan></text>
                <text id="_04" data-name="04" transform="translate(295.159 260.979)" fill="#bababa" font-size="12.133" font-family="Montserrat-Regular, Montserrat"><tspan x="-8.026" y="0">04</tspan></text>
                <text id="_05" data-name="05" transform="translate(337.019 260.979)" fill="#bababa" font-size="12.133" font-family="Montserrat-Regular, Montserrat"><tspan x="-7.45" y="0">05</tspan></text>
                <text id="_06" data-name="06" transform="translate(378.88 260.979)" fill="#bababa" font-size="12.133" font-family="Montserrat-Regular, Montserrat"><tspan x="-7.711" y="0">06</tspan></text>
              </g>
              <g id="Group_22" data-name="Group 22">
                <text id="_07" data-name="07" transform="translate(127.918 292.526)" fill="#ff596a" font-size="12.133" font-family="Montserrat-Regular, Montserrat"><tspan x="-7.541" y="0">07</tspan></text>
                <text id="_08" data-name="08" transform="translate(169.577 292.526)" fill="#bababa" font-size="12.133" font-family="Montserrat-Regular, Montserrat"><tspan x="-7.887" y="0">08</tspan></text>
                <text id="_09" data-name="09" transform="translate(211.437 292.526)" fill="#bababa" font-size="12.133" font-family="Montserrat-Regular, Montserrat"><tspan x="-7.711" y="0">09</tspan></text>
                <text id="_10" data-name="10" transform="translate(253.299 292.526)" fill="#bababa" font-size="12.133" font-family="Montserrat-Regular, Montserrat"><tspan x="-6.206" y="0">10</tspan></text>
                <text id="_11" data-name="11" transform="translate(295.159 292.526)" fill="#bababa" font-size="12.133" font-family="Montserrat-Regular, Montserrat"><tspan x="-4.38" y="0">11</tspan></text>
                <text id="_12" data-name="12" transform="translate(337.019 292.526)" fill="#bababa" font-size="12.133" font-family="Montserrat-Regular, Montserrat"><tspan x="-5.636" y="0">12</tspan></text>
                <text id="_13" data-name="13" transform="translate(378.88 292.526)" fill="#bababa" font-size="12.133" font-family="Montserrat-Regular, Montserrat"><tspan x="-5.612" y="0">13</tspan></text>
              </g>
              <g id="Group_23" data-name="Group 23">
                <text id="_14" data-name="14" transform="translate(127.918 323.668)" fill="#ff596a" font-size="12.133" font-family="Montserrat-Regular, Montserrat"><tspan x="-6.2" y="0">14</tspan></text>
                <text id="_15" data-name="15" transform="translate(169.577 323.668)" fill="#bababa" font-size="12.133" font-family="Montserrat-Regular, Montserrat"><tspan x="-5.624" y="0">15</tspan></text>
                <text id="_16" data-name="16" transform="translate(211.437 323.668)" fill="#bababa" font-size="12.133" font-family="Montserrat-Regular, Montserrat"><tspan x="-5.885" y="0">16</tspan></text>
                <text id="_17" data-name="17" transform="translate(253.299 323.668)" fill="#bababa" font-size="12.133" font-family="Montserrat-Regular, Montserrat"><tspan x="-5.763" y="0">17</tspan></text>
                <text id="_18" data-name="18" transform="translate(295.159 323.668)" fill="#bababa" font-size="12.133" font-family="Montserrat-Regular, Montserrat"><tspan x="-6.061" y="0">18</tspan></text>
                <text id="_19" data-name="19" transform="translate(337.019 323.668)" fill="#bababa" font-size="12.133" font-family="Montserrat-Regular, Montserrat"><tspan x="-5.885" y="0">19</tspan></text>
                <text id="_20" data-name="20" transform="translate(378.88 323.668)" fill="#bababa" font-size="12.133" font-family="Montserrat-Regular, Montserrat"><tspan x="-7.438" y="0">20</tspan></text>
              </g>
              <g id="Group_24" data-name="Group 24">
                <text id="_21" data-name="21" transform="translate(127.918 355.216)" fill="#ff596a" font-size="12.133" font-family="Montserrat-Regular, Montserrat"><tspan x="-5.636" y="0">21</tspan></text>
                <text id="_22" data-name="22" transform="translate(169.577 355.216)" fill="#bababa" font-size="12.133" font-family="Montserrat-Regular, Montserrat"><tspan x="-6.892" y="0">22</tspan></text>
                <text id="_23" data-name="23" transform="translate(211.437 355.216)" fill="#bababa" font-size="12.133" font-family="Montserrat-Regular, Montserrat"><tspan x="-6.868" y="0">23</tspan></text>
                <text id="_24" data-name="24" transform="translate(253.299 355.216)" fill="#bababa" font-size="12.133" font-family="Montserrat-Regular, Montserrat"><tspan x="-7.316" y="0">24</tspan></text>
                <text id="_25" data-name="25" transform="translate(295.159 355.216)" fill="#bababa" font-size="12.133" font-family="Montserrat-Regular, Montserrat"><tspan x="-6.88" y="0">25</tspan></text>
                <text id="_26" data-name="26" transform="translate(337.019 355.216)" fill="#bababa" font-size="12.133" font-family="Montserrat-Regular, Montserrat"><tspan x="-7.116" y="0">26</tspan></text>
                <text id="_27" data-name="27" transform="translate(378.88 355.216)" fill="#bababa" font-size="12.133" font-family="Montserrat-Regular, Montserrat"><tspan x="-6.995" y="0">27</tspan></text>
              </g>
              <g id="Group_25" data-name="Group 25">
                <text id="_28" data-name="28" transform="translate(127.918 386.106)" fill="#ff596a" font-size="12.133" font-family="Montserrat-Regular, Montserrat"><tspan x="-7.316" y="0">28</tspan></text>
                <text id="_29" data-name="29" transform="translate(169.577 386.106)" fill="#bababa" font-size="12.133" font-family="Montserrat-Regular, Montserrat"><tspan x="-7.141" y="0">29</tspan></text>
                <text id="_30" data-name="30" transform="translate(211.437 386.106)" fill="#bababa" font-size="12.133" font-family="Montserrat-Regular, Montserrat"><tspan x="-7.438" y="0">30</tspan></text>
                <text id="_31-2" data-name="31" transform="translate(253.299 386.106)" fill="#bababa" font-size="12.133" font-family="Montserrat-Regular, Montserrat"><tspan x="-5.612" y="0">31</tspan></text>
                <text id="_01-2" data-name="01" transform="translate(295.159 386.106)" fill="#f23b66" font-size="12.133" font-family="Montserrat-Regular, Montserrat"><tspan x="-6.194" y="0">01</tspan></text>
                <text id="_02-2" data-name="02" transform="translate(337.019 386.106)" fill="#f23b66" font-size="12.133" font-family="Montserrat-Regular, Montserrat"><tspan x="-7.45" y="0">02</tspan></text>
                <text id="_03-2" data-name="03" transform="translate(378.88 386.106)" fill="#f23b66" font-size="12.133" font-family="Montserrat-Regular, Montserrat"><tspan x="-7.377" y="0">03</tspan></text>
              </g>
              <g id="Group_26" data-name="Group 26">
                <text id="Su" transform="translate(127.918 226.197)" fill="#858585" font-size="13.347" font-family="Montserrat-SemiBold, Montserrat" font-weight="600"><tspan x="-8.742" y="0">Su</tspan></text>
                <text id="JUNE" transform="translate(133.995 187.717)" fill="#bfbfbf" font-size="20.234" font-family="Montserrat-SemiBold, Montserrat" font-weight="600"><tspan x="-28.287" y="0">JUNE</tspan></text>
                <text id="Mo" transform="translate(169.577 226.197)" fill="#858585" font-size="13.347" font-family="Montserrat-SemiBold, Montserrat" font-weight="600"><tspan x="-10.677" y="0">Mo</tspan></text>
                <text id="Tu" transform="translate(211.437 226.197)" fill="#858585" font-size="13.347" font-family="Montserrat-SemiBold, Montserrat" font-weight="600"><tspan x="-8.475" y="0">Tu</tspan></text>
                <text id="We" transform="translate(253.299 226.197)" fill="#858585" font-size="13.347" font-family="Montserrat-SemiBold, Montserrat" font-weight="600"><tspan x="-11.418" y="0">We</tspan></text>
                <text id="Th" transform="translate(295.159 226.197)" fill="#858585" font-size="13.347" font-family="Montserrat-SemiBold, Montserrat" font-weight="600"><tspan x="-8.589" y="0">Th</tspan></text>
                <text id="Fr" transform="translate(337.019 226.197)" fill="#858585" font-size="13.347" font-family="Montserrat-SemiBold, Montserrat" font-weight="600"><tspan x="-6.987" y="0">Fr</tspan></text>
                <text id="Sa" transform="translate(378.88 226.197)" fill="#858585" font-size="13.347" font-family="Montserrat-SemiBold, Montserrat" font-weight="600"><tspan x="-8.248" y="0">Sa</tspan></text>
              </g>
            </g>
          </g>
          <g id="Group_30" data-name="Group 30">
            <g id="Group_29" data-name="Group 29">
              <rect id="Rectangle_14" data-name="Rectangle 14" width="12.74" height="47.624" rx="6.37" transform="translate(166.816 95.256)" fill="#929292"/>
              <rect id="Rectangle_15" data-name="Rectangle 15" width="12.74" height="47.624" rx="6.37" transform="translate(327.786 95.256)" fill="#929292"/>
            </g>
          </g>
        </g>
        <g id="Group_36" data-name="Group 36">
          <g id="Group_33" data-name="Group 33">
            <path id="Path_9" data-name="Path 9" d="M131.664,273.042s.211,7.035.246,8.02a12.031,12.031,0,0,1-4.5,3.412s-4.819-2.287-6.824-6.121c.07-3.693.352-10.2,0-11.607C123.926,269.771,131.664,273.042,131.664,273.042Z" fill="#ffbeac"/>
            <g id="Group_32" data-name="Group 32">
              <path id="Path_10" data-name="Path 10" d="M132.294,255.932s5.983,8.783,4.734,17.19c-.949,2.063-9.843,4.792-14.416-.954-2.443,1.073-3.647-3.51-3.808-4.774s2.2-.869,2.888.171c-1.166-5.026-2.6-8.779-1.026-9.836S131.272,254.237,132.294,255.932Z" fill="#d0d0d0"/>
              <path id="Path_11" data-name="Path 11" d="M131.43,248.188a30.7,30.7,0,0,1-4.364,2.8c.961-.811,1.043-2.568.338-2.591s-1.69,1.291-3.81,2.4-10.762-.06-9.834,4.529c-1.992.69-3.712,3.164-2.2,6.95,0,0,0,.008,0,.012.272,2.833,4.957,10.848,6.868,12.114,2.836,1.879,5.843-.444,6.765-1.059s1.523-1.946.7-4.149-1.333-5.331,0-5.382,2.46,2.614,2.46,2.614l.841-.308a7.664,7.664,0,0,1-.072-4.715,17.342,17.342,0,0,0,.32-4.254,2.121,2.121,0,0,0-.214-.082,6.912,6.912,0,0,0,3.478-2.981C134.746,249.93,132.657,247.174,131.43,248.188Z" fill="#393939"/>
            </g>
          </g>
          <g id="Group_35" data-name="Group 35">
            <g id="Group_34" data-name="Group 34">
              <path id="Path_12" data-name="Path 12" d="M118.291,419.994s-4.184,2.178-5.665,2.789.174,7.757,1.133,8.105a2.7,2.7,0,0,1,1.4,3.312c-.446,1.656.955,11.583,4.7,14.329s3.673-.223,3.28-3.622-1.761-14.76.723-17.9S118.291,419.994,118.291,419.994Z" fill="#323759"/>
              <path id="Path_13" data-name="Path 13" d="M126.658,441.347s-1.132,6.869-.522,8.438,6.529,1.166,8.24.8a1.561,1.561,0,0,0,1.191-1.391V447.8a9.109,9.109,0,0,0,7.825-1.611c2.179-2.4,1.5-6.784-2.6-5.3-2.09.757-4.191,2.808-6.419-.068C132.846,439.953,126.658,441.347,126.658,441.347Z" fill="#323759"/>
              <path id="Path_14" data-name="Path 14" d="M148.534,343.644s3.487,39.569,2.964,45.5-15.042,29.171-28.169,40.4a72.156,72.156,0,0,1-6.128-8.986s15.819-24.268,18.957-27.929-6.45-33.817-8.89-42.358S148.534,343.644,148.534,343.644Z" fill="#484848"/>
              <path id="Path_15" data-name="Path 15" d="M112.626,349.047S115.5,373.965,117.2,386.7s7.714,52.735,7.714,55.088c4.445,2.092,11.766,0,11.766,0s-4.264-40.339-4.526-47.515,2.221-38.057,2.221-38.057l-1.356-10.388Z" fill="#484848"/>
              <path id="Path_16" data-name="Path 16" d="M105.653,286.294s-8,26.448-8.543,31.505,14.214,30.273,14.214,30.273l6.97-8.144-10.6-21.378,4.931-13.326Z" fill="#858585"/>
              <path id="Path_17" data-name="Path 17" d="M118.8,279.051a15.839,15.839,0,0,1,.78-3.1c.307-.349,4.219-2.553,12.334-.339,1.2.42,1.812,3.441,1.812,3.441Z" fill="#f2f2f2"/>
              <path id="Path_18" data-name="Path 18" d="M105.653,286.294s10.633-6.1,13.117-7.931,11.548-1.675,13.927-1.02c2.981.821,16.142,2.2,16.665,2.2,1.961,7.19,1.308,15.426,0,19.087s-4.14,22.879-3.268,27.237,5.927,17.257,6.45,18.128c-6.973,9.239-28.239,10.285-42.707,8.019.7-14.643,3.486-20.918,3.835-28.762a27,27,0,0,0-3.683-15.225C104.558,297.741,105.653,286.294,105.653,286.294Z" fill="#858585"/>
            </g>
            <path id="Path_19" data-name="Path 19" d="M188.792,265.826s3.444-1.964,3.709-3.2a22.379,22.379,0,0,1,2.033-5.1,16,16,0,0,1,3.092-3.017c.422-.281,1.291,1.075-.3,2.616-.974.944-.737,1.435-.627,1.428s4.818-5.109,7.411-6.4c.42-.28,1.692.351.425,1.584-1.508,1.468-3.554,3.508-3.554,3.508,1.091.3,1.593,1.356,1.347,1.736,1.122.347,1.22,1.219.981,1.7.9.288.87,1.515.487,2.157-.347.582-1.295,2.6-5.825,3.581-2.29.018-5.318,2.992-5.318,2.992Z" fill="#d0d0d0"/>
            <path id="Path_20" data-name="Path 20" d="M190.737,263.664l1.678-1.53,4.044,5.4-2.006,1.259Z" fill="#f2f2f2"/>
            <path id="Path_21" data-name="Path 21" d="M149.291,279.552s19.7-1.433,22.559-2.636,19.206-14.075,19.206-14.075,4.038,5.044,4.235,5.787c-7.468,9.8-17.189,16.948-20.161,18.173s-26.9,10.02-28.923,10.129C147.616,292.316,149.357,286.88,149.291,279.552Z" fill="#858585"/>
          </g>
        </g>
        <g id="Group_64" data-name="Group 64">
          <g id="Group_53" data-name="Group 53">
            <g id="Group_52" data-name="Group 52">
              <g id="Group_50" data-name="Group 50">
                <g id="Group_38" data-name="Group 38">
                  <g id="Group_37" data-name="Group 37">
                    <circle id="Ellipse_4" data-name="Ellipse 4" cx="103.856" cy="103.856" r="103.856" transform="translate(244.243 233.544)" fill="#bfbfbf"/>
                    <circle id="Ellipse_5" data-name="Ellipse 5" cx="89.956" cy="89.956" r="89.956" transform="translate(258.143 247.443)" fill="#fafafa"/>
                    <path id="Path_22" data-name="Path 22" d="M380.277,340.9c12.546-18.958,13.877-53.126,7.571-71.324A78.616,78.616,0,0,0,277.4,371.791a7.383,7.383,0,0,1,1.83.269C307.945,384.031,356.687,376.549,380.277,340.9Z" fill="#fffaff" opacity="0.57"/>
                  </g>
                </g>
                <g id="Group_49" data-name="Group 49">
                  <g id="Group_48" data-name="Group 48">
                    <g id="Group_43" data-name="Group 43">
                      <g id="Group_40" data-name="Group 40">
                        <g id="Group_39" data-name="Group 39">
                          <rect id="Rectangle_16" data-name="Rectangle 16" width="22.337" height="5.499" rx="2.749" transform="translate(345.825 276.742) rotate(-89.55)" fill="#c7c7c7"/>
                          <rect id="Rectangle_17" data-name="Rectangle 17" width="22.337" height="5.499" rx="2.749" transform="translate(344.698 420.349) rotate(-89.55)" fill="#c7c7c7"/>
                        </g>
                      </g>
                      <g id="Group_42" data-name="Group 42">
                        <g id="Group_41" data-name="Group 41">
                          <rect id="Rectangle_18" data-name="Rectangle 18" width="5.499" height="22.337" rx="2.749" transform="translate(408.712 340.625) rotate(-89.55)" fill="#c7c7c7"/>
                          <rect id="Rectangle_19" data-name="Rectangle 19" width="5.499" height="22.337" rx="2.749" transform="translate(265.106 339.497) rotate(-89.55)" fill="#c7c7c7"/>
                        </g>
                      </g>
                    </g>
                    <g id="Group_44" data-name="Group 44">
                      <circle id="Ellipse_6" data-name="Ellipse 6" cx="2.749" cy="2.749" r="2.749" transform="translate(382.753 271.023)" fill="#c7c7c7"/>
                      <circle id="Ellipse_7" data-name="Ellipse 7" cx="2.749" cy="2.749" r="2.749" transform="translate(307.945 398.276)" fill="#c7c7c7"/>
                    </g>
                    <g id="Group_45" data-name="Group 45">
                      <circle id="Ellipse_8" data-name="Ellipse 8" cx="2.749" cy="2.749" r="2.749" transform="translate(409.555 298.25)" fill="#c7c7c7"/>
                      <circle id="Ellipse_9" data-name="Ellipse 9" cx="2.749" cy="2.749" r="2.749" transform="translate(281.143 371.05)" fill="#c7c7c7"/>
                    </g>
                    <g id="Group_46" data-name="Group 46">
                      <circle id="Ellipse_10" data-name="Ellipse 10" cx="2.749" cy="2.749" r="2.749" transform="translate(408.975 372.054)" fill="#c7c7c7"/>
                      <circle id="Ellipse_11" data-name="Ellipse 11" cx="2.749" cy="2.749" r="2.749" transform="translate(281.723 297.246)" fill="#c7c7c7"/>
                    </g>
                    <g id="Group_47" data-name="Group 47">
                      <circle id="Ellipse_12" data-name="Ellipse 12" cx="2.749" cy="2.749" r="2.749" transform="translate(381.749 398.856)" fill="#c7c7c7"/>
                      <circle id="Ellipse_13" data-name="Ellipse 13" cx="2.749" cy="2.749" r="2.749" transform="translate(308.949 270.444)" fill="#c7c7c7"/>
                    </g>
                  </g>
                </g>
              </g>
              <g id="Group_51" data-name="Group 51">
                <path id="Path_23" data-name="Path 23" d="M376.012,316.725c8.222-3.208,46.6-19.716,46.6-19.716l.141.262.28.52.141.263s-34.927,22.919-42.136,28.012-32.771,13.057-32.771,13.057l-.466-.866-.279-.52-.466-.866S367.789,319.933,376.012,316.725Z" fill="#bfbfbf"/>
                <path id="Path_24" data-name="Path 24" d="M322.006,342.98c-6.294-.976-36.164-4.168-36.164-4.168l-.005-.3-.009-.59,0-.3s29.761-4.088,36.022-5.252,25.169,3.647,25.169,3.647l.015.984.009.59.015.983S328.3,343.956,322.006,342.98Z" fill="#bfbfbf"/>
                <circle id="Ellipse_14" data-name="Ellipse 14" cx="5.499" cy="5.499" r="5.499" transform="translate(342.6 331.9)" fill="#bfbfbf"/>
              </g>
            </g>
          </g>
          <g id="Group_63" data-name="Group 63">
            <g id="Group_61" data-name="Group 61">
              <path id="Path_25" data-name="Path 25" d="M376.506,398.467s-21.453-25.593-32.449-22.188,6.473,57.112,6.473,57.112l10.558-.871-3.279-24.735s3.471,20.356,20.82,18.164,20.31-11.667,19.488-18.506S376.506,398.467,376.506,398.467Z" fill="#393939"/>
              <path id="Path_26" data-name="Path 26" d="M398.117,407.443c-.821-6.84-21.611-8.976-21.611-8.976l-.2-.24-12.725,22.006a16.056,16.056,0,0,0,15.052,5.716C395.978,423.756,398.939,414.282,398.117,407.443Z" fill="#3e466d"/>
              <g id="Group_55" data-name="Group 55">
                <path id="Path_27" data-name="Path 27" d="M389.082,427.089s8.348-1.453,10.848-1.92a.8.8,0,0,1,.79.3c2.3,3.194,1.725,8.047,1.725,8.047l-1.428.476s2.146,6.4,1.207,10.963c-.426,2.071-2.716,6.185-10.259,5.628-1.307-1.806.241-3.235,1.861-5.125,2.414-2.816,1.76-9.689-2.4-9.555C389.015,433.894,389.082,427.089,389.082,427.089Z" fill="#323759"/>
                <path id="Path_28" data-name="Path 28" d="M399.932,425.169c-.486.091-1.2.219-2.019.366a1.789,1.789,0,0,0-.366,1.068,29.613,29.613,0,0,0,1.308,8.046c.6,2.062.4,10.057-1.056,12.622s-4.476,2.431-6.06,2.951a2.982,2.982,0,0,0,.226.364c7.543.557,9.833-3.557,10.259-5.628.939-4.56-1.207-10.963-1.207-10.963l1.428-.476s.574-4.853-1.725-8.048A.789.789,0,0,0,399.932,425.169Z" fill="#4a5083"/>
                <path id="Path_29" data-name="Path 29" d="M399.449,425.258a1.525,1.525,0,0,0-.41,1.093c0,1.643,1.073,6.5,1.542,6.873a2.649,2.649,0,0,0,1.865.29c0-.046.562-4.864-1.726-8.043a.789.789,0,0,0-.788-.3Z" fill="#656d99"/>
                <path id="Path_30" data-name="Path 30" d="M401.082,433.973c-.592-.123-1.624-.33-1.624-.33a26.83,26.83,0,0,1,.654,6.923c-.134,3.889-1.115,7.195-2.489,8.3a8.731,8.731,0,0,1-3.6,1.742c5.9-.266,7.816-3.784,8.2-5.652.939-4.56-1.207-10.963-1.207-10.963Z" fill="#656d99"/>
                <g id="Group_54" data-name="Group 54">
                  <path id="Path_31" data-name="Path 31" d="M361.859,401.81s-24.337,26.016-29.334,35.135,4.56,17.434,14.667,11,14.777-18.3,26.233-20.049c6.576-1,18.44-1.006,19.278-22.167C393.361,389.111,361.859,401.81,361.859,401.81Z" fill="#484848"/>
                  <path id="Path_32" data-name="Path 32" d="M334.22,448.3s11.077,6.418,33-2.232c18.707-7.04,25.557-8.448,25.557-8.448l-3.1-11.667C382.109,428.765,352.31,425.986,334.22,448.3Z" fill="#484848"/>
                </g>
              </g>
              <g id="Group_60" data-name="Group 60">
                <g id="Group_57" data-name="Group 57">
                  <path id="Path_33" data-name="Path 33" d="M369.491,337.148s.448,6.891.505,7.856a11.808,11.808,0,0,0,4.715,2.914s4.494-2.681,6.1-6.613c-.412-3.6-1.292-9.931-1.079-11.338C376.745,333.233,369.491,337.148,369.491,337.148Z" fill="#ffbeac"/>
                  <g id="Group_56" data-name="Group 56">
                    <path id="Path_34" data-name="Path 34" d="M367.284,320.494s-5.027,9.135-3.025,17.231c1.119,1.927,10.06,3.765,13.993-2.273,2.485.821,3.235-3.767,3.275-5.017s-2.233-.644-2.805.436c.671-5.018,1.727-8.818.087-9.7S368.125,318.743,367.284,320.494Z" fill="#d0d0d0"/>
                    <path id="Path_35" data-name="Path 35" d="M367.408,312.849a30.119,30.119,0,0,0,4.524,2.332c-1.015-.7-1.259-2.412-.572-2.5s1.771,1.1,3.945,1.99,10.506-1.059,10.027,3.509c2.01.489,3.919,2.746,2.79,6.585l0,.011c0,2.793-3.833,11.057-5.581,12.471-2.6,2.1-5.748.11-6.707-.4s-1.668-1.759-1.072-3.987.806-5.331-.5-5.257-2.16,2.782-2.16,2.782l-.85-.222a7.532,7.532,0,0,0-.368-4.613,17.023,17.023,0,0,1-.709-4.125,2.1,2.1,0,0,1,.2-.1,6.784,6.784,0,0,1-3.674-2.588C364.331,314.859,366.115,311.974,367.408,312.849Z" fill="#393939"/>
                  </g>
                </g>
                <g id="Group_59" data-name="Group 59">
                  <g id="Group_58" data-name="Group 58">
                    <path id="Path_36" data-name="Path 36" d="M382.618,341.82a15.6,15.6,0,0,0-1.049-2.957c-.333-.312-4.359-2.1-12.08.816-1.129.521-1.449,3.53-1.449,3.53Z" fill="#f2f2f2"/>
                    <path id="Path_37" data-name="Path 37" d="M395.191,342.47s-10.015.233-12.611-1.324-11.436-.562-13.7.3c-2.836,1.08-15.563,3.648-16.074,3.7-1.247,7.206.158,15.19,1.775,18.644s9.736,18.422,9.29,22.759-7.166,18.312-7.6,19.212c7.67,8.375,30.115,6.956,44.036,3.4.3-11.983-2.2-15.86-2.2-23.564,0-7.991.165-13.691,0-17.3A222.849,222.849,0,0,0,395.191,342.47Z" fill="#929292"/>
                  </g>
                  <path id="Path_38" data-name="Path 38" d="M322.477,342.057s-1.995-3.34-1.626-4.523a21.944,21.944,0,0,0,.722-5.336,20.6,20.6,0,0,0-1.043-4.958c-.225-.444-1.765,1.185-1.15,3.268.376,1.276-.063,1.582-.153,1.523s1.073-1.052-.52-3.4c-.224-.442-1.92-.461-2.1.3-.057.241-.409-.08-.409-.08-1.078-.269-2.015.39-1.989.834-1.126-.245-1.631.453-1.656.977-.9-.187-1.474.874-1.457,1.608.016.664-.148,2.848,3.251,5.869,1.947,1.12,3.1,5.121,3.1,5.121Z" fill="#d0d0d0"/>
                  <path id="Path_39" data-name="Path 39" d="M322.477,340.534l-.98-1.987-6.062,2.666,1.107,2.043Z" fill="#f2f2f2"/>
                  <path id="Path_40" data-name="Path 40" d="M352.808,345.14s-16.709,16.685-18.574,14.277-11.447-19.845-11.447-19.845-7.137,2.911-7.663,3.45c3.319,11.785,9.04,28.24,11.768,29.822,9.074,5.264,28.027-5.983,29.5-7.953C357.416,360.27,357.735,349.376,352.808,345.14Z" fill="#929292"/>
                </g>
              </g>
            </g>
            <g id="Group_62" data-name="Group 62">
              <path id="Path_41" data-name="Path 41" d="M400.672,319.694s-1.513-3.584-2.686-3.987a21.888,21.888,0,0,1-4.73-2.573,20.624,20.624,0,0,1-3.381-3.772c-.225-.444,2-.724,3.316,1.005.806,1.058,1.312.884,1.318.777s-1.482.243-2.438-2.433c-.224-.442.763-1.821,1.485-1.515.227.1.177-.376.177-.376.42-1.028,1.506-1.4,1.849-1.111.468-1.053,1.329-1.047,1.767-.758.384-.839,1.577-.671,2.158-.224.527.406,2.385,1.565,2.811,6.092-.249,2.233,2.3,5.529,2.3,5.529Z" fill="#d0d0d0"/>
              <path id="Path_42" data-name="Path 42" d="M399.764,318.547l-1.3-1.813,5.735-3.311,1.113,1.891Z" fill="#f2f2f2"/>
              <path id="Path_43" data-name="Path 43" d="M394.278,342.47l14.986-5.838-10.233-18.261,6.528-3.853s14.13,16.027,15.473,25.811c-1.061,8.779-20.932,18.485-21.831,19.239s-1.35,2.062-1.678,4.274C396.189,361.026,394.278,342.47,394.278,342.47Z" fill="#929292"/>
            </g>
          </g>
        </g>
      </g>
    </g>
  </g>
</svg>
