<svg width="60" height="60" viewBox="0 0 60 60" fill="none" xmlns="http://www.w3.org/2000/svg">
<path fill-rule="evenodd" clip-rule="evenodd" d="M30 60C46.569 60 60 46.569 60 30C60 13.431 46.569 0 30 0C13.431 0 0 13.431 0 30C0 46.569 13.431 60 30 60ZM44.121 26.121C45.293 24.95 45.293 23.05 44.121 21.879C42.95 20.707 41.05 20.707 39.879 21.879L27 34.757L20.121 27.879C18.95 26.707 17.05 26.707 15.879 27.879C14.707 29.05 14.707 30.95 15.879 32.121L24.879 41.121C26.05 42.293 27.95 42.293 29.121 41.121L44.121 26.121Z" fill="#D9C172"/>
</svg>
