<svg width="40" height="40" viewBox="0 0 40 40" fill="none" xmlns="http://www.w3.org/2000/svg">
<path fill-rule="evenodd" clip-rule="evenodd" d="M0 20C0 5.001 5.001 0 20 0C34.999 0 40 5.001 40 20C40 34.999 34.999 40 20 40C5.001 40 0 34.999 0 20Z" fill="#D9C172"/>
<path d="M23.125 16.25H20.625V13.75H19.375V16.25H16.875V17.5H19.375V20H20.625V17.5H23.125V16.25Z" fill="#5E4B0B"/>
<path d="M27.5 16.25H26.25V12.5C26.2497 12.1686 26.1179 11.8508 25.8835 11.6165C25.6492 11.3821 25.3314 11.2503 25 11.25H15C14.6686 11.2503 14.3508 11.3821 14.1165 11.6165C13.8821 11.8508 13.7503 12.1686 13.75 12.5V16.25H12.5C12.1686 16.2503 11.8508 16.3821 11.6165 16.6165C11.3821 16.8508 11.2503 17.1686 11.25 17.5V28.75H28.75V17.5C28.7497 17.1686 28.6179 16.8508 28.3835 16.6165C28.1492 16.3821 27.8314 16.2503 27.5 16.25V16.25ZM18.75 27.5V23.75H21.25V27.5H18.75ZM22.5 27.5V23.125C22.5 22.9592 22.4342 22.8003 22.3169 22.6831C22.1997 22.5658 22.0408 22.5 21.875 22.5H18.125C17.9592 22.5 17.8003 22.5658 17.6831 22.6831C17.5658 22.8003 17.5 22.9592 17.5 23.125V27.5H12.5V17.5H15V12.5H25V17.5H27.5V27.5H22.5Z" fill="#5E4B0B"/>
</svg>
