<svg width="20" height="18" viewBox="0 0 20 18" fill="none" xmlns="http://www.w3.org/2000/svg">
<path d="M7.76099 11.3669C7.18599 10.7929 6.836 10.0129 6.836 9.13794C6.836 7.38494 8.248 5.97192 10 5.97192C10.867 5.97192 11.665 6.32291 12.23 6.89691" stroke="#D9C172" stroke-width="1.5" stroke-linecap="round" stroke-linejoin="round"/>
<path d="M13.105 9.69897C12.873 10.989 11.857 12.007 10.568 12.241" stroke="#D9C172" stroke-width="1.5" stroke-linecap="round" stroke-linejoin="round"/>
<path d="M4.655 14.472C3.068 13.226 1.724 11.406 0.75 9.13702C1.734 6.85802 3.08699 5.02797 4.68399 3.77197C6.27099 2.51597 8.102 1.83398 10 1.83398C11.909 1.83398 13.739 2.52602 15.336 3.79102" stroke="#D9C172" stroke-width="1.5" stroke-linecap="round" stroke-linejoin="round"/>
<path d="M17.448 5.99097C18.136 6.90497 18.741 7.95996 19.25 9.13696C17.283 13.694 13.807 16.439 10 16.439C9.13703 16.439 8.28602 16.2989 7.46802 16.0259" stroke="#D9C172" stroke-width="1.5" stroke-linecap="round" stroke-linejoin="round"/>
<path d="M17.887 1.25L2.11304 17.024" stroke="#D9C172" stroke-width="1.5" stroke-linecap="round" stroke-linejoin="round"/>
</svg>
