<svg width="18" height="20" viewBox="0 0 18 20" fill="none" xmlns="http://www.w3.org/2000/svg">
<path d="M16.5729 11.1953C16.5729 15.1573 13.3609 18.3693 9.39893 18.3693" stroke="#D9C172" stroke-linecap="round" stroke-linejoin="round"/>
<path d="M1.42798 9.60077C1.42798 5.63877 4.63997 2.42676 8.60197 2.42676" stroke="#D9C172" stroke-linecap="round" stroke-linejoin="round"/>
<path fill-rule="evenodd" clip-rule="evenodd" d="M13.726 9.55042C12.07 9.55042 10.655 9.29244 10.655 8.26044C10.655 7.22744 12.061 6.27441 13.726 6.27441C15.382 6.27441 16.797 7.21843 16.797 8.25043C16.797 9.28243 15.391 9.55042 13.726 9.55042Z" stroke="#D9C172" stroke-linecap="round" stroke-linejoin="round"/>
<path fill-rule="evenodd" clip-rule="evenodd" d="M13.7229 4.84421C14.8099 4.84421 15.6909 3.96322 15.6909 2.87622C15.6909 1.78922 14.8099 0.908203 13.7229 0.908203C12.6359 0.908203 11.7539 1.78922 11.7539 2.87622C11.7499 3.95922 12.6249 4.84021 13.7089 4.84421C13.7139 4.84421 13.7179 4.84421 13.7229 4.84421Z" stroke="#D9C172" stroke-linecap="round" stroke-linejoin="round"/>
<path fill-rule="evenodd" clip-rule="evenodd" d="M4.16109 19.1149C2.50409 19.1149 1.09009 18.8569 1.09009 17.8249C1.09009 16.7919 2.49509 15.8389 4.16109 15.8389C5.81709 15.8389 7.23209 16.7829 7.23209 17.8149C7.23209 18.8469 5.82609 19.1149 4.16109 19.1149Z" stroke="#D9C172" stroke-linecap="round" stroke-linejoin="round"/>
<path fill-rule="evenodd" clip-rule="evenodd" d="M4.15697 14.4087C5.24397 14.4087 6.12498 13.5277 6.12498 12.4407C6.12498 11.3537 5.24397 10.4727 4.15697 10.4727C3.06997 10.4727 2.18898 11.3537 2.18898 12.4407C2.18498 13.5237 3.05997 14.4047 4.14397 14.4087C4.14797 14.4087 4.15297 14.4087 4.15697 14.4087Z" stroke="#D9C172" stroke-linecap="round" stroke-linejoin="round"/>
</svg>
