<svg width="82" height="82" viewBox="0 0 82 82" fill="none" xmlns="http://www.w3.org/2000/svg">
<path fill-rule="evenodd" clip-rule="evenodd" d="M0 40C0 69.998 10.002 80 40 80C69.998 80 80 69.998 80 40C80 10.0022 69.998 0 40 0C10.002 0 0 10.0022 0 40Z" fill="#D9C172"/>
<path fill-rule="evenodd" clip-rule="evenodd" d="M18.417 39.9993C18.417 56.186 23.814 61.583 40 61.583C56.186 61.583 61.583 56.186 61.583 39.9993C61.583 23.813 56.186 18.416 40 18.416C23.814 18.416 18.417 23.813 18.417 39.9993Z" fill="#503E00" stroke="#503E00" stroke-width="1.5" stroke-linecap="round" stroke-linejoin="round"/>
<path fill-rule="evenodd" clip-rule="evenodd" d="M39.767 54.493C34.229 54.493 29.5 53.631 29.5 50.18C29.5 46.729 34.199 43.543 39.767 43.543C45.305 43.543 50.034 46.698 50.034 50.149C50.034 53.599 45.335 54.493 39.767 54.493Z" fill="#D9C172" stroke="#D9C172" stroke-width="1.5" stroke-linecap="round" stroke-linejoin="round"/>
<path fill-rule="evenodd" clip-rule="evenodd" d="M39.756 38.761C43.39 38.761 46.335 35.8156 46.335 32.1815C46.335 28.5474 43.39 25.6006 39.756 25.6006C36.122 25.6006 33.175 28.5474 33.175 32.1815C33.163 35.8033 36.088 38.7488 39.71 38.761C39.726 38.761 39.741 38.761 39.756 38.761Z" fill="#D9C172" stroke="#D9C172" stroke-width="1.5" stroke-linecap="round" stroke-linejoin="round"/>
<path d="M70 82C76.6274 82 82 76.6274 82 70C82 63.3726 76.6274 58 70 58C63.3726 58 58 63.3726 58 70C58 76.6274 63.3726 82 70 82Z" fill="#503E00"/>
<path fill-rule="evenodd" clip-rule="evenodd" d="M72.292 70.3324C72.292 69.1744 71.353 68.2354 70.195 68.2354C69.037 68.2354 68.098 69.1744 68.098 70.3324C68.098 71.4904 69.037 72.4294 70.195 72.4294C71.353 72.4294 72.292 71.4904 72.292 70.3324Z" stroke="#D9C172" stroke-linecap="round" stroke-linejoin="round"/>
<path fill-rule="evenodd" clip-rule="evenodd" d="M70.195 75.4671C75.558 75.4671 76.197 73.8601 76.197 70.3781C76.197 67.9371 75.874 66.6311 73.841 66.0701C73.655 66.0111 73.448 65.8991 73.28 65.7141C73.009 65.4171 72.811 64.5061 72.157 64.2301C71.503 63.9551 68.876 63.9671 68.233 64.2301C67.59 64.4931 67.381 65.4171 67.11 65.7141C66.942 65.8991 66.736 66.0111 66.549 66.0701C64.516 66.6311 64.193 67.9371 64.193 70.3781C64.193 73.8601 64.831 75.4671 70.195 75.4671Z" stroke="#D9C172" stroke-linecap="round" stroke-linejoin="round"/>
<path d="M73.47 68H73.476" stroke="#D9C172" stroke-linecap="round" stroke-linejoin="round"/>
</svg>
