<svg width="40" height="40" viewBox="0 0 40 40" fill="none" xmlns="http://www.w3.org/2000/svg">
<path fill-rule="evenodd" clip-rule="evenodd" d="M0 20C0 5.001 5.0011 0 20 0C34.999 0 40 5.001 40 20C40 34.999 34.999 40 20 40C5.0011 40 0 34.999 0 20Z" fill="#D9C172"/>
<path fill-rule="evenodd" clip-rule="evenodd" d="M27.071 27.0703C24.016 30.1263 19.49 30.7872 15.7863 29.0742C15.2396 28.8542 11.7011 29.8343 10.9333 29.0673C10.1656 28.2993 11.1464 24.7603 10.9263 24.2133C9.21283 20.5113 9.87412 15.9833 12.9302 12.9273C16.8315 9.02425 23.17 9.02425 27.071 12.9273C30.98 16.8363 30.972 23.1683 27.071 27.0703Z" stroke="#503E00" stroke-width="1.5" stroke-linecap="round" stroke-linejoin="round"/>
<path d="M23.495 20.5H23.504" stroke="#503E00" stroke-width="2" stroke-linecap="round" stroke-linejoin="round"/>
<path d="M19.495 20.5H19.504" stroke="#503E00" stroke-width="2" stroke-linecap="round" stroke-linejoin="round"/>
<path d="M15.4955 20.5H15.5045" stroke="#503E00" stroke-width="2" stroke-linecap="round" stroke-linejoin="round"/>
</svg>
