<svg width="20" height="22" viewBox="0 0 20 22" fill="none" xmlns="http://www.w3.org/2000/svg">
<path fill-rule="evenodd" clip-rule="evenodd" d="M1.50098 12.7871V12.5681C1.53298 11.9202 1.74097 11.2925 2.10197 10.7496C2.70497 10.0975 3.11697 9.2983 3.29597 8.436C3.29597 7.7695 3.29598 7.0935 3.35398 6.427C3.65498 3.2184 6.82697 1 9.96097 1H10.039C13.172 1 16.345 3.2184 16.656 6.427C16.714 7.0935 16.656 7.7695 16.704 8.436C16.885 9.3003 17.297 10.1019 17.897 10.7591C18.262 11.2972 18.47 11.9227 18.499 12.5681V12.7776C18.521 13.648 18.221 14.4968 17.655 15.1674C16.907 15.9515 15.892 16.4393 14.802 16.5384C11.607 16.8812 8.38296 16.8812 5.18796 16.5384C4.09896 16.435 3.08597 15.9479 2.33497 15.1674C1.77797 14.4963 1.48198 13.6526 1.50098 12.7871Z" stroke="#D9C172" stroke-width="1.5" stroke-linecap="round" stroke-linejoin="round"/>
<path d="M7.55499 19.8518C8.05399 20.4785 8.78701 20.884 9.59201 20.9788C10.397 21.0735 11.207 20.8495 11.843 20.3564C12.039 20.2106 12.215 20.041 12.367 19.8518" stroke="#D9C172" stroke-width="1.5" stroke-linecap="round" stroke-linejoin="round"/>
</svg>
