<svg width="23" height="24" viewBox="0 0 23 24" fill="none" xmlns="http://www.w3.org/2000/svg">
<path d="M7.54392 22.6602C6.39192 22.3702 5.71992 21.2203 6.00792 20.0603L7.92793 12.8602C8.21593 11.7102 9.36793 11.0402 10.5199 11.3302C11.6719 11.6202 12.3439 12.7702 12.0559 13.9202L10.1359 21.1202C9.84793 22.2702 8.69592 22.9402 7.54392 22.6602Z" stroke="#D9C172" stroke-width="1.5" stroke-miterlimit="10" stroke-linecap="round" stroke-linejoin="round"/>
<path d="M8.88818 17.4697L10.8082 18.0498" stroke="#D9C172" stroke-width="1.5" stroke-miterlimit="10" stroke-linecap="round" stroke-linejoin="round"/>
<path d="M17.624 23.2299C20.0098 23.2299 21.944 21.2999 21.944 18.9099C21.944 16.5299 20.0098 14.5898 17.624 14.5898C15.2381 14.5898 13.304 16.5299 13.304 18.9099C13.304 21.2999 15.2381 23.2299 17.624 23.2299Z" stroke="#D9C172" stroke-width="1.5" stroke-miterlimit="10" stroke-linecap="round" stroke-linejoin="round"/>
<path d="M17.3359 18.9102H21.8479" stroke="#D9C172" stroke-width="1.5" stroke-miterlimit="10" stroke-linecap="round" stroke-linejoin="round"/>
<path d="M14.544 12.5H17.1593C17.6264 12.5 18 12.13 18 11.67V6.97998C18 6.51998 17.6264 6.15002 17.1593 6.15002H12.7692V1.82996C12.7692 1.36996 12.3956 1 11.9286 1H7.1648C6.6978 1 6.3242 1.36996 6.3242 1.82996V6.15002H1.8407C1.3736 6.15002 1 6.51998 1 6.97998V11.67C1 12.13 1.3736 12.5 1.8407 12.5H4.9231" stroke="#D9C172" stroke-width="1.5" stroke-linecap="round" stroke-linejoin="round"/>
</svg>
