<svg width="40" height="40" viewBox="0 0 40 40" fill="none" xmlns="http://www.w3.org/2000/svg">
<path fill-rule="evenodd" clip-rule="evenodd" d="M0 20C0 5.001 5.001 0 20 0C34.999 0 40 5.001 40 20C40 34.999 34.999 40 20 40C5.001 40 0 34.999 0 20Z" fill="#D9C172"/>
<path fill-rule="evenodd" clip-rule="evenodd" d="M23.909 10.75C23.909 10.75 16.232 10.754 16.22 10.754C13.46 10.771 11.751 12.587 11.751 15.357V24.553C11.751 27.337 13.473 29.16 16.257 29.16C16.257 29.16 23.933 29.157 23.946 29.157C26.706 29.14 28.416 27.323 28.416 24.553V15.357C28.416 12.573 26.693 10.75 23.909 10.75Z" stroke="#503E00" stroke-width="1.5" stroke-linecap="round" stroke-linejoin="round"/>
<path d="M23.716 24.2236H16.496" stroke="#503E00" stroke-width="1.5" stroke-linecap="round" stroke-linejoin="round"/>
<path d="M23.716 20.0371H16.496" stroke="#503E00" stroke-width="1.5" stroke-linecap="round" stroke-linejoin="round"/>
<path d="M19.251 15.8604H16.496" stroke="#503E00" stroke-width="1.5" stroke-linecap="round" stroke-linejoin="round"/>
</svg>
