<svg width="40" height="40" viewBox="0 0 40 40" fill="none" xmlns="http://www.w3.org/2000/svg">
<path fill-rule="evenodd" clip-rule="evenodd" d="M0 20C0 5.001 5.0011 0 20 0C34.999 0 40 5.001 40 20C40 34.999 34.999 40 20 40C5.0011 40 0 34.999 0 20Z" fill="#D9C172"/>
<g opacity="0.9">
<path d="M18.7042 14.4961C20.5245 14.4961 22.0001 15.9717 22.0001 17.7921C22.0001 19.1848 21.0215 20.7026 19.0895 22.3618C18.9821 22.4541 18.8451 22.5047 18.7035 22.5046C18.5619 22.5045 18.425 22.4536 18.3178 22.3611L18.19 22.2502C16.3436 20.6344 15.4082 19.1537 15.4082 17.7921C15.4082 15.9717 16.8838 14.4961 18.7042 14.4961ZM18.7042 16.5244C18.368 16.5244 18.0455 16.6579 17.8078 16.8957C17.57 17.1334 17.4365 17.4558 17.4365 17.7921C17.4365 18.1283 17.57 18.4507 17.8078 18.6884C18.0455 18.9262 18.368 19.0597 18.7042 19.0597C19.0404 19.0597 19.3628 18.9262 19.6005 18.6884C19.8383 18.4507 19.9718 18.1283 19.9718 17.7921C19.9718 17.4558 19.8383 17.1334 19.6005 16.8957C19.3628 16.6579 19.0404 16.5244 18.7042 16.5244Z" fill="#614E0E"/>
</g>
<g opacity="0.9">
<path d="M29 29L24.514 24.506L29 29ZM27 18.5C27 20.7543 26.1045 22.9163 24.5104 24.5104C22.9163 26.1045 20.7543 27 18.5 27C16.2457 27 14.0837 26.1045 12.4896 24.5104C10.8955 22.9163 10 20.7543 10 18.5C10 16.2457 10.8955 14.0837 12.4896 12.4896C14.0837 10.8955 16.2457 10 18.5 10C20.7543 10 22.9163 10.8955 24.5104 12.4896C26.1045 14.0837 27 16.2457 27 18.5V18.5Z" stroke="#5E4B0B" stroke-width="2" stroke-linecap="round"/>
</g>
</svg>
