<svg width="304" height="373" viewBox="0 0 304 373" fill="none" xmlns="http://www.w3.org/2000/svg">
<path d="M1.04736 266.679L302.953 181.06" stroke="#D9C172" stroke-miterlimit="10" stroke-linecap="round" stroke-linejoin="round"/>
<path d="M151.396 293.538L185.525 278.513" stroke="#D9C172" stroke-miterlimit="10" stroke-linecap="round" stroke-linejoin="round"/>
<path d="M270.786 238.251L296.778 226.806" stroke="#D9C172" stroke-miterlimit="10" stroke-linecap="round" stroke-linejoin="round"/>
<path d="M41.2761 342.03L93.218 317.541" stroke="#D9C172" stroke-miterlimit="10" stroke-linecap="round" stroke-linejoin="round"/>
<path opacity="0.5" d="M114.375 1V196.772" stroke="#D9C172" stroke-miterlimit="10" stroke-linecap="round" stroke-linejoin="round"/>
<path opacity="0.5" d="M123.354 1V196.772" stroke="#D9C172" stroke-miterlimit="10" stroke-linecap="round" stroke-linejoin="round"/>
<path d="M106.562 263.328C106.562 263.328 152.215 287.104 151.423 298.231C150.631 309.359 139.808 349.343 139.808 349.343" stroke="#9A9DA1" stroke-miterlimit="10" stroke-linecap="round" stroke-linejoin="round"/>
<path d="M65.356 165.138C65.356 165.138 42.687 170.629 40.1968 181.966C35.7206 202.425 38.2547 222.877 38.2547 222.877C38.2547 222.877 55.5102 219.29 71.182 233.359C72.904 233.359 69.927 197.975 69.545 192.971C70.401 194.662 71.182 233.359 71.182 233.359C71.182 233.359 64.9093 216.237 40.6299 222.732C44.5817 221.849 37.9942 254.45 45.6441 262.047C53.294 269.644 75.865 273.621 102.753 263.69C103.025 263.612 103.309 263.582 103.592 263.602C105.622 263.602 113.201 228.331 115.968 225.734C118.834 223.06 122.038 216.649 122.421 213.224C122.803 209.799 116.581 183.075 116.581 183.075L120.005 220.541L133.004 219.459C133.004 219.459 126.061 167.103 110.335 159.296C103.169 155.739 90.779 155.739 90.779 155.739L65.356 165.138Z" fill="#E98600"/>
<path d="M204.028 186.845L199.244 264.191L224.623 262.571V182.436L204.028 186.845Z" fill="#FFC534"/>
<path d="M207.909 78.126C207.909 78.126 212.443 84.236 211.631 94.166C211.705 95.2 228.186 96.533 235.403 75.739C228.768 74.785 223.223 54.239 223.223 54.239L207.909 78.126Z" fill="#FDC0AE"/>
<path d="M192.258 88.908L188.363 94.267L193.289 97.838L187.308 103.112C187.308 103.112 190.474 108.911 189.419 113.13C188.363 117.35 190.096 119.822 190.096 119.822L198.107 118.429C198.107 118.429 209.185 103.711 213.421 93.774C214.534 91.16 208.346 81.068 209.594 80.503C209.594 79.35 209.496 83.073 209.496 83.073L206.755 83.329C199.42 84.04 192.258 88.908 192.258 88.908Z" fill="#14181A"/>
<path d="M239.304 75.55C239.304 75.55 256.532 80.861 260.234 85.017C266.432 91.968 270.675 107.967 268.212 144.203C267.014 161.784 266.256 166.396 260.521 171.556C254.786 176.715 235.67 184.066 191.002 187.974C191.002 187.974 184.235 174.132 189.121 156.655C189.121 156.655 208.907 158.66 217.224 157.227C222.628 156.243 227.94 154.806 233.102 152.929L218.394 133.775L239.304 75.55Z" fill="#14181A"/>
<path d="M247.092 78.708C247.532 79.016 247.929 79.381 248.273 79.793C248.612 80.195 248.95 80.614 249.288 81.04C249.938 81.896 250.55 82.775 251.136 83.674C251.145 83.684 251.15 83.697 251.15 83.71C251.15 83.723 251.145 83.736 251.136 83.745C249.928 84.929 248.662 86.028 247.377 87.103C246.091 88.178 244.765 89.246 243.435 90.261C242.105 91.275 240.752 92.259 239.375 93.195C237.987 94.142 236.553 95.019 235.078 95.823L235.017 95.42C236.292 95.911 237.5 96.562 238.61 97.358C239.169 97.74 239.71 98.145 240.244 98.561C240.779 98.977 241.293 99.41 241.804 99.866C241.837 99.896 241.863 99.933 241.879 99.974C241.896 100.015 241.904 100.059 241.901 100.104C241.899 100.148 241.887 100.191 241.866 100.23C241.845 100.269 241.816 100.303 241.781 100.33L241.74 100.357C238.769 102.46 236.587 105.364 234.574 108.373C233.559 109.888 232.632 111.453 231.766 113.066C230.899 114.679 230.087 116.295 229.313 117.986C227.783 121.326 226.41 124.748 225.134 128.217C223.859 131.686 222.678 135.192 221.595 138.739C221.933 136.913 222.323 135.097 222.766 133.295C223.209 131.493 223.693 129.698 224.224 127.916C225.274 124.341 226.516 120.825 227.946 117.384C228.308 116.522 228.677 115.663 229.066 114.814C229.455 113.965 229.871 113.124 230.297 112.288C231.139 110.603 232.075 108.966 233.102 107.386C234.139 105.794 235.346 104.321 236.702 102.99C238.047 101.618 239.659 100.536 241.439 99.809L241.375 100.303C240.891 99.853 240.383 99.42 239.869 98.997C239.355 98.575 238.827 98.169 238.285 97.784C237.226 96.994 236.071 96.342 234.848 95.843C234.823 95.843 234.798 95.839 234.774 95.829C234.751 95.82 234.73 95.806 234.712 95.789C234.694 95.771 234.68 95.75 234.67 95.727C234.66 95.704 234.655 95.679 234.655 95.654C234.655 95.628 234.659 95.603 234.669 95.58C234.679 95.556 234.694 95.535 234.713 95.518L234.787 95.441C235.989 94.267 237.25 93.157 238.566 92.114C239.869 91.062 241.212 90.061 242.572 89.091C243.932 88.12 245.309 87.167 246.72 86.264C248.131 85.361 249.556 84.469 251.041 83.668V83.749C250.476 82.843 249.88 81.95 249.248 81.084C248.933 80.652 248.608 80.229 248.26 79.82C247.923 79.398 247.53 79.024 247.092 78.708Z" fill="#CCCCCC"/>
<path d="M198.124 127.267V117.58C198.124 117.58 206.414 92.452 206.796 92.036C206.796 92.036 208.995 97.943 221.663 91.657C222.475 90.568 233.43 84.956 235.393 75.739L239.311 75.55C239.585 77.078 236.844 82.42 235.792 85.355L218.394 133.775" fill="#FFC534"/>
<path d="M195.678 86.998C195.678 86.998 191.388 88.202 189.926 90.575C188.637 92.692 178.595 109.78 178.595 122.357C178.595 124.092 181.055 122.357 181.055 122.357L190.918 119.48C190.918 119.48 195.424 103.755 195.424 97.449C195.424 91.143 197.542 86.203 195.678 86.998Z" fill="#14181A"/>
<path d="M166.983 162.396C166.983 162.396 172.962 178.683 179.414 178.216C185.866 177.75 185.629 173.06 185.629 173.06L181.231 166.42C181.231 166.42 177.99 162.176 174.183 161.855C171.77 161.681 169.344 161.864 166.983 162.396Z" fill="#14181A" stroke="#C2CEFF" stroke-miterlimit="10" stroke-linecap="round" stroke-linejoin="round"/>
<path d="M267.41 131.764C267.41 131.764 269.474 150.951 264.47 165.774C260.585 177.27 266.161 216.74 267.376 226.806C268.391 235.127 273.635 261.246 273.96 273.921C273.993 275.484 273.403 276.996 272.321 278.125C271.238 279.253 269.752 279.906 268.188 279.94L228.629 280.829C226.837 280.87 225.096 280.236 223.751 279.053C222.405 277.869 221.555 276.223 221.368 274.442C219.288 254.609 213.587 195.818 217.965 185.053C222.092 186.121 217.85 178.893 233.924 169.994C249.999 161.095 267.41 131.764 267.41 131.764Z" fill="#14181A"/>
<path d="M185.629 173.06L169.227 272.9C169.1 273.668 169.136 274.453 169.331 275.206C169.526 275.959 169.876 276.663 170.359 277.273C170.841 277.883 171.446 278.386 172.135 278.749C172.823 279.112 173.579 279.328 174.356 279.382C181.217 279.859 192.169 280.552 198.118 280.552C207.212 280.552 204.028 186.845 204.028 186.845L193.692 180.299L185.629 173.06Z" fill="#14181A"/>
<path d="M203.03 115.071L234.181 152.52L230.835 154.248L198.118 118.442C198.118 118.442 199.589 115.737 200.486 115.375C202.651 114.5 203.03 115.071 203.03 115.071Z" fill="#CCC0FF"/>
<path d="M203.484 115.217C203.484 115.217 199.549 113.837 200.3 118.743L231.072 154.221C231.072 154.221 210.704 158.339 203.819 158.214C200.033 158.146 189.128 156.655 189.128 156.655L188.891 157.544L176.372 160.993L154.404 135.067C154.404 135.067 152.157 132.626 151.565 130.607C151.037 128.819 151.975 127.375 154.404 128.061C154.982 128.224 156.508 129.231 156.508 129.231L198.591 117.448C198.591 117.448 198.591 115.081 200.929 114.55C201.501 114.415 203.166 114.53 203.484 115.217Z" fill="#2FB6BD"/>
<path d="M188.884 157.544L184.824 155.37C184.824 155.37 182.848 150.583 179.749 148.669C176.65 146.755 174.187 145.477 174.187 145.477C174.187 145.477 168.574 146.755 166.872 146.755C165.17 146.755 156.975 144.203 156.975 144.203C156.975 144.203 156.231 144.203 156.975 146.011C157.72 147.82 164.706 150.873 164.706 150.873L160.487 149.626C160.125 150.139 159.93 150.752 159.93 151.381C159.93 152.009 160.125 152.622 160.487 153.135C161.763 154.944 164.706 155.37 164.706 155.37H161.035C161.035 155.37 161.888 158.028 163.164 158.985C164.439 159.942 167.741 161.429 170.401 161.537C173.06 161.646 175.51 161.642 177.53 163.451C179.549 165.26 179.502 166.413 183.491 166.853L187.477 167.295C187.477 167.295 187.798 158.352 188.884 157.544Z" fill="#FDC0AE"/>
<path d="M42.3047 260.38C42.3047 260.38 32.2729 292.727 55.9872 304.236C79.702 315.745 93.205 317.541 93.205 317.541L103.179 371.939" stroke="#9A9DA1" stroke-miterlimit="10" stroke-linecap="round" stroke-linejoin="round"/>
<path d="M122.931 302.11C128.538 308.141 134.195 318.4 133.42 326.595L130.246 361.106" stroke="#9A9DA1" stroke-miterlimit="10" stroke-linecap="round" stroke-linejoin="round"/>
<path d="M65.068 184.563C65.001 185.323 69.199 191.501 70.999 206.993C72.082 216.294 63.1837 249.094 63.1837 249.094L70.851 254.95C73.415 251.021 73.841 208.044 69.812 193.847C68.462 189.1 65.099 184.201 65.068 184.563Z" fill="#CC7B1B"/>
<path d="M93.506 99.17C93.506 99.17 104.671 106.247 102.739 117.766C102.563 118.811 106.759 125.911 106.556 133.319C106.349 140.818 102.54 148.094 94.832 149.768C92.663 150.241 92.508 148.507 90.772 155.756C93.442 155.756 96.436 156.057 96.436 156.057C99.704 161.805 92.163 181.138 91.022 181.077C52.3568 178.666 62.48 152.96 62.48 152.96L66.824 149.146L64.1852 140.872C64.1852 140.872 60.4906 122.175 69.355 114.304C78.22 106.432 93.506 99.17 93.506 99.17Z" fill="#FDC0AE"/>
<path d="M95.533 101.388C96.399 101.824 96.399 101.824 95.123 104.242C88.823 116.204 75.391 116.819 72.116 122.709C70.424 125.789 72.884 131.75 72.312 130.901C70.864 128.765 70.938 127.443 67.897 128.173C62.7608 129.404 64.7367 138.705 69.152 139.716C69.412 139.772 69.644 139.921 69.803 140.134C69.963 140.347 70.041 140.61 70.022 140.876C69.663 145.68 68.049 164.946 65.359 165.138C65.498 165.598 58.068 163.015 51.4162 158.234C50.4925 157.558 51.5685 146.546 50.6955 145.798C50.1339 145.318 49.0038 150.917 48.3914 154.211C48.3527 154.421 48.2538 154.616 48.1067 154.771C47.9596 154.926 47.7705 155.035 47.5625 155.086C47.3544 155.136 47.1363 155.124 46.9345 155.053C46.7327 154.982 46.556 154.854 46.4257 154.684C44.3787 151.999 42.166 148.189 41.5874 145.798C39.7637 138.252 46.1685 116.755 55.4898 106.997C61.8676 100.319 64.8314 96.4649 74.623 95.6809C82.002 95.0919 91.506 99.3659 95.533 101.388Z" fill="#222430"/>
<path d="M91.033 114.047C91.033 114.047 87.602 114.5 86.001 117.191" stroke="#222430" stroke-linecap="round" stroke-linejoin="round"/>
<path d="M92.502 122.207C93.11 121.902 93.221 120.896 92.75 119.96C92.279 119.024 91.405 118.512 90.797 118.817C90.19 119.123 90.078 120.129 90.549 121.065C91.02 122.001 91.894 122.512 92.502 122.207Z" fill="#222430"/>
<path d="M101.085 137.177C97.864 138.34 93.587 135.719 93.587 135.719" stroke="#222430" stroke-linecap="round" stroke-linejoin="round"/>
<path d="M96.446 149.129C96.446 149.129 88.915 149.95 79.157 144.203C79.999 144.203 90.782 155.749 90.782 155.749C90.782 155.749 91.831 148.879 96.446 149.129Z" fill="#EA917D"/>
<path d="M80.608 97.5639C80.608 97.5639 88.052 94.007 96.646 99.194C103.846 103.545 102.083 109.928 102.083 109.928C102.083 109.928 99.467 104.492 97.471 102.916C93.997 100.164 88.519 98.4899 80.608 97.5639Z" fill="#222430"/>
<path d="M77.678 141.88C77.678 141.88 85.345 150.782 96.446 149.616" stroke="#222430" stroke-linecap="round" stroke-linejoin="round"/>
<path d="M60.2842 170.234C60.2842 170.234 72.031 186.571 93.55 184.674C96.446 184.13 102.066 170.413 100.425 156.527" stroke="#14181A" stroke-miterlimit="10" stroke-linecap="round" stroke-linejoin="round"/>
<path d="M38.5559 215.645C38.5559 215.645 54.4309 212.419 70.309 220.622" stroke="#14181A" stroke-linecap="round" stroke-linejoin="round"/>
<path d="M121.937 215.824C121.937 215.824 125.581 213.332 132.127 214.56" stroke="#14181A" stroke-miterlimit="10" stroke-linecap="round" stroke-linejoin="round"/>
<path d="M117.342 185.902C117.342 185.902 124.495 208.937 123.405 212.903C122.316 216.869 120.198 223.722 115.481 226.018C116.077 225.68 121.216 217.809 121.216 211.787C121.216 205.765 117.342 185.902 117.342 185.902Z" fill="#CC7B1B"/>
<path d="M180.754 32.251C175.164 31.332 166.703 50.1709 182.659 58.7149L182.452 32.6099C182.452 32.6099 186.512 33.8509 185.524 32.6399C184.719 31.6459 186.205 33.151 180.754 32.251Z" fill="#222430"/>
<path d="M179.184 36.6641C178.778 37.7751 178.589 38.9541 178.629 40.1361C178.629 41.8271 178.013 42.6111 177.919 43.1791C177.834 43.6631 174.055 49.978 182.656 58.708C184.997 60.855 185.47 64.0781 187.66 69.0851C194.846 85.5341 211.005 84.259 214.788 74.312C218.57 64.3651 225.591 53.833 225.591 53.833C225.591 53.833 234.388 36.6701 225.591 36.0861C216.794 35.5011 192.613 25.1681 187.538 30.6321C182.463 36.0961 179.184 36.6641 179.184 36.6641Z" fill="#FDC0AE"/>
<path d="M197.563 57.202C198.171 56.897 198.282 55.891 197.811 54.955C197.341 54.019 196.466 53.508 195.859 53.813C195.251 54.118 195.14 55.124 195.61 56.06C196.081 56.996 196.955 57.508 197.563 57.202Z" fill="#222430"/>
<path d="M186.05 62.984C186.658 62.679 186.769 61.672 186.298 60.736C185.827 59.8 184.953 59.289 184.345 59.594C183.738 59.899 183.626 60.905 184.097 61.841C184.568 62.778 185.442 63.289 186.05 62.984Z" fill="#222430"/>
<path d="M191.902 50.885C192.726 49.974 193.733 49.248 194.857 48.753C195.981 48.258 197.197 48.005 198.425 48.011" stroke="#222430" stroke-linecap="round" stroke-linejoin="round"/>
<path d="M181.488 57.667C181.886 56.961 182.477 56.382 183.192 55.999C183.906 55.616 184.716 55.444 185.525 55.503" stroke="#222430" stroke-linecap="round" stroke-linejoin="round"/>
<path d="M191.486 61.609C191.486 61.609 191.909 64.142 192.234 66.576C192.911 71.749 197.278 67.533 197.278 67.533" stroke="#222430" stroke-linecap="round" stroke-linejoin="round"/>
<path d="M199.606 74.447C199.606 74.447 204.39 74.268 204.39 69.163" stroke="#222430" stroke-linecap="round" stroke-linejoin="round"/>
<path d="M179.211 43.152C179.949 44.244 187.155 45.519 194.308 42.357C199.383 40.123 206.488 43.0341 207.635 47.3411C208.508 50.6481 212.216 52.6331 213.543 52.5721C214.219 52.5381 213.647 51.557 213.566 50.881C213.201 47.838 212.856 46.8711 215.123 45.1541C219.606 41.7731 225.459 51.5131 220.252 56.5311C218.973 56.8491 227.124 74.6231 233.248 80.875C239.859 87.637 251.328 74.2451 266.229 94.6391C266.446 95.0081 274.011 75.5361 258.89 69.8221C246.189 65.0181 238.949 55.3681 236.949 49.4341C228.751 25.0901 204.746 17.8451 195.939 19.4031C192 20.1031 184.056 22.0641 179.901 32.7351C178.548 36.2041 178.626 37.7391 178.626 38.8411C178.629 40.0451 178.46 42.046 179.211 43.152Z" fill="#222430"/>
<path d="M209.317 80.3409C209.317 80.3409 214.087 78.8769 216.151 69.8359C216.151 69.8359 213.13 82.8089 213.543 94.1149C213.543 94.1149 213.045 91.2849 212.656 90.0209C212.365 89.0709 211.059 86.7139 211.059 86.7139L209.317 80.3409Z" fill="#EA917D"/>
<path d="M205.23 83.8599L192.965 92.3639V91.809C193.297 91.941 193.615 92.104 193.915 92.296C194.2 92.475 194.474 92.6649 194.734 92.8679C195.253 93.2699 195.743 93.7079 196.199 94.1789C196.663 94.6429 197.103 95.1299 197.515 95.6399C197.941 96.1519 198.324 96.697 198.662 97.27L198.757 97.432C198.788 97.49 198.795 97.5569 198.778 97.6199C198.76 97.6829 198.719 97.737 198.662 97.77C198.641 97.782 198.618 97.7909 198.595 97.7969C197.859 98.3819 197.095 98.9289 196.304 99.4369C195.523 99.9539 194.721 100.431 193.912 100.904C193.103 101.378 192.281 101.817 191.446 102.237C190.61 102.656 189.754 103.055 188.874 103.393L189.003 102.936C189.85 104.134 190.525 105.444 191.009 106.828C191.259 107.522 191.455 108.234 191.594 108.958C191.669 109.323 191.723 109.695 191.767 110.07C191.811 110.446 191.821 110.824 191.818 111.207C191.819 111.592 191.793 111.977 191.74 112.359C191.709 112.552 191.676 112.745 191.635 112.938L191.5 113.479C191.327 114.11 191.221 114.759 191.185 115.413C191.146 116.059 191.2 116.709 191.347 117.34C191.423 117.655 191.523 117.964 191.649 118.263C191.774 118.553 191.928 118.829 192.109 119.088L192.136 119.125C192.162 119.161 192.181 119.201 192.192 119.245C192.203 119.288 192.205 119.332 192.198 119.376C192.192 119.42 192.177 119.463 192.154 119.501C192.131 119.539 192.101 119.572 192.065 119.598C192.003 119.643 191.928 119.666 191.852 119.663C191.776 119.66 191.703 119.631 191.645 119.581C191.344 119.325 191.082 119.025 190.867 118.692C190.654 118.373 190.475 118.034 190.332 117.678C190.05 116.959 189.891 116.198 189.862 115.426C189.829 114.664 189.894 113.9 190.055 113.154C190.096 112.955 190.119 112.816 190.146 112.657C190.173 112.498 190.19 112.346 190.204 112.187C190.233 111.867 190.246 111.545 190.241 111.223C190.186 109.884 189.978 108.556 189.618 107.264C189.28 105.939 188.85 104.61 188.407 103.288C188.363 103.231 188.342 103.158 188.351 103.086C188.359 103.014 188.395 102.948 188.451 102.903L188.536 102.832C189.271 102.247 190.036 101.7 190.826 101.192C191.608 100.678 192.41 100.198 193.218 99.7239C194.027 99.2509 194.849 98.8109 195.688 98.3959C196.527 97.9799 197.38 97.5769 198.256 97.2389L198.189 97.77C197.613 97.44 197.063 97.067 196.544 96.654C196.023 96.252 195.529 95.823 195.056 95.376C194.577 94.935 194.125 94.4649 193.702 93.9699C193.493 93.7229 193.293 93.463 193.1 93.195C192.909 92.937 192.736 92.6659 192.582 92.384L192.559 92.367C192.49 92.31 192.448 92.228 192.439 92.139C192.431 92.051 192.458 91.9629 192.515 91.8939C192.535 91.8699 192.557 91.8479 192.582 91.8299L204.847 83.326C204.884 83.3 204.925 83.282 204.969 83.272C205.013 83.263 205.058 83.262 205.102 83.27C205.146 83.277 205.188 83.2939 205.225 83.3179C205.263 83.3419 205.296 83.3739 205.321 83.4109C205.365 83.4829 205.38 83.5699 205.363 83.6529C205.346 83.7369 205.299 83.8109 205.23 83.8599Z" fill="#CCCCCC"/>
<path d="M206.492 92.627C206.492 92.627 208.643 86.542 209.449 81.037C209.449 81.037 211.99 87.529 212.656 90.007C213.032 91.353 213.328 92.721 213.543 94.102C213.543 94.102 210.694 96.134 206.492 92.627Z" fill="#222430"/>
<path d="M216.141 65.4771C216.141 65.4771 218.648 76.239 208.041 81.368" stroke="#222430" stroke-linecap="round" stroke-linejoin="round"/>
<path d="M238.268 152.726C238.268 152.726 238.204 98.967 253.128 91.775C253.128 91.775 235.426 98.947 235.437 152.726C235.437 152.726 219.988 156.959 211.922 157.477C211.983 158.45 231.854 155.668 238.268 152.726Z" fill="#C2CEFF"/>
<path d="M190.887 156.986L189.121 156.648C186.536 159.583 186.414 176.759 190.085 185.973C190.085 185.979 187.02 162.643 190.887 156.986Z" fill="#C2CEFF"/>
<path d="M192.092 187.636C192.092 187.636 243.286 183.092 258.67 172.168C258.67 172.168 240.972 186 194.913 191.683C194.913 192.471 192.092 187.636 192.092 187.636Z" fill="#C2CEFF"/>
<path d="M263.962 91.775C273.026 106.693 267.836 140.69 267.836 151.878" stroke="#6785FF" stroke-linecap="round" stroke-linejoin="round"/>
<path d="M223.737 186.378C223.737 186.378 231.072 270.473 241.476 280.552H235.186C235.186 280.552 223.375 239.272 223.737 186.378Z" fill="#E6E6E6"/>
<path d="M220.184 26.946C220.184 26.946 232.733 34.1351 240.424 57.6671" stroke="#14181A" stroke-miterlimit="10" stroke-linecap="round" stroke-linejoin="round"/>
<path d="M183.508 38.0631C183.508 38.0631 185.653 40.5051 195.164 37.2991C204.675 34.0941 210.01 42.3071 210.01 42.3071" stroke="#14181A" stroke-miterlimit="10" stroke-linecap="round" stroke-linejoin="round"/>
<path opacity="0.77" d="M216.398 198.145C216.398 198.145 209.997 250.037 212.734 263.328L220.201 262.852C220.201 262.852 215.228 208.44 216.398 198.145Z" fill="#BF9427"/>
<path d="M199.244 191.768C199.244 191.768 198.632 223.354 198.118 235.654C197.603 247.955 194.156 280.481 194.156 280.481L190.343 280.842C190.343 280.842 194.914 251.15 195.583 241.007C196.67 224.625 199.244 191.768 199.244 191.768Z" fill="#CCCCCC"/>
<path d="M183.349 279.767L185.014 322.322L189.067 330" stroke="#D9C172" stroke-linecap="round" stroke-linejoin="round"/>
<path d="M255.043 278.334L246.006 342.03" stroke="#D9C172" stroke-linecap="round" stroke-linejoin="round"/>
<path d="M216.127 263.112L213.847 315.519C213.67 317.257 214.036 319.008 214.896 320.53L221.598 332.685" stroke="#D9C172" stroke-linecap="round" stroke-linejoin="round"/>
<path d="M66.845 229.724C67.112 232.239 63.1837 249.094 63.1837 249.094C68.563 251.177 95.16 284.873 95.16 284.873C95.16 284.873 104.891 287.703 114.165 290.793C114.165 290.793 117.518 292.551 119.325 295.259C120.198 296.568 121.622 299.242 122.065 300.821C122.891 303.749 121.683 304.236 120.14 304.033C119.907 304.407 119.546 304.683 119.125 304.811C118.816 304.916 118.48 304.916 118.171 304.811C118.171 304.811 117.833 305.538 116.456 305.538C115.701 305.538 115.441 304.926 115.177 304.899C115.062 304.899 115.15 305.629 113.167 305.305C111.424 305.017 111.668 304.06 111.11 304.06C101.007 304.06 95.546 294.225 89.605 292.852C82.909 291.307 42.21 263.68 41.0833 255.511C38.8029 238.995 39.2427 222.735 39.2427 222.735C39.2427 222.735 45.4783 220.953 54.8064 224.135C63.8029 227.195 66.794 229.24 66.845 229.724Z" fill="#FDC0AE"/>
<path d="M93.283 135.949C93.283 135.949 93.746 139.861 98.253 139.838" stroke="#222430" stroke-linecap="round" stroke-linejoin="round"/>
<path d="M101.369 111.666C101.369 111.666 100.425 111.477 99.132 112.4" stroke="#222430" stroke-linecap="round" stroke-linejoin="round"/>
<path d="M102.891 116.572C102.891 116.572 102.469 116.072 102.09 116.062C101.457 116.038 100.652 116.626 101.23 118.145C101.768 119.551 103.964 119.561 103.555 119.443C103.555 119.443 102.841 117.712 102.891 116.572Z" fill="#222430"/>
<path d="M97.985 120.234C97.985 120.234 99.187 123.747 100.78 125.911C102.374 128.075 98.561 129.945 98.561 129.945" stroke="#222430" stroke-linecap="round" stroke-linejoin="round"/>
<path d="M52.2214 136.521C52.2214 136.521 47.664 149.768 47.9753 156.53" stroke="#14181A" stroke-miterlimit="10" stroke-linecap="round" stroke-linejoin="round"/>
<path d="M51.4704 144.784C51.4704 144.784 50.3978 155.543 51.4129 158.221C52.2215 158.221 55.5034 161.098 58.5959 162.531" stroke="#14181A" stroke-miterlimit="10" stroke-linecap="round" stroke-linejoin="round"/>
<path d="M90.065 99.363C90.065 99.363 83.136 93.226 70.052 96.374" stroke="#14181A" stroke-miterlimit="10" stroke-linecap="round" stroke-linejoin="round"/>
<path d="M110.528 293.464C110.528 293.464 115.021 294.817 116.56 296.845C118.1 298.874 119.944 301.741 119.944 301.741C119.944 301.741 120.543 303.077 119.981 304.047" stroke="#222430" stroke-linecap="round" stroke-linejoin="round"/>
<path d="M110.528 297.2C110.528 297.2 113.485 298.194 114.412 298.756C115.339 299.317 118.601 302.137 118.184 304.811" stroke="#222430" stroke-linecap="round" stroke-linejoin="round"/>
<path d="M115.19 304.899L114.798 303.756C114.494 302.86 113.881 302.102 113.069 301.616C112.401 301.224 111.712 300.868 111.005 300.551" stroke="#222430" stroke-linecap="round" stroke-linejoin="round"/>
<path d="M133.004 219.469C133.004 219.469 133.971 235.898 131.224 247.87C133.061 265.401 120.221 282.983 120.221 282.983C120.221 282.983 113.82 280.329 109.909 280.548C109.909 280.548 110.585 267.839 112.69 258.01C113.532 254.058 115.718 251.004 115.481 249.557C113.096 235.255 115.373 228.953 115.373 228.953L120.005 220.534L133.004 219.469Z" fill="#FDC0AE"/>
<path d="M104.668 287.747C104.668 287.747 106.562 283.301 109.909 280.552C113.255 277.803 121.48 281.803 120.654 284.758C119.829 287.713 121.764 291.182 118.222 293.887C118.222 293.887 111.661 289.407 104.668 287.747Z" fill="#FDC0AE"/>
<path d="M113.759 284.758C113.759 284.758 112.507 289.911 106.464 291.266C104.803 291.266 104.502 293.116 106.464 293.474C108.427 293.833 112.615 292.626 114.375 291.571C116.134 290.516 118.222 289.096 118.222 289.096" fill="#FDC0AE"/>
<path opacity="0.5" d="M47.3189 62.772C59.8629 62.772 70.032 50.204 70.032 34.699C70.032 19.195 59.8629 6.62598 47.3189 6.62598C34.775 6.62598 24.6061 19.195 24.6061 34.699C24.6061 50.204 34.775 62.772 47.3189 62.772Z" stroke="#D9C172" stroke-miterlimit="10" stroke-linecap="round" stroke-linejoin="round"/>
<path opacity="0.5" d="M67.176 34.6991C67.176 48.5621 57.4387 59.7941 47.3189 59.7941C37.1991 59.7941 27.7695 48.5581 27.7695 34.6991C27.7695 20.8401 37.2025 9.60205 47.3189 9.60205C57.4353 9.60205 67.176 20.8371 67.176 34.6991Z" stroke="#D9C172" stroke-miterlimit="10" stroke-linecap="round" stroke-linejoin="round"/>
<path d="M40.5149 222.238C40.5149 222.238 61.5259 219.533 70.851 230.691V232.605C70.851 232.605 64.4458 224.128 40.5149 222.238Z" fill="#CC7B1B"/>
<path d="M113.759 284.758C113.759 284.758 112.507 289.911 106.464 291.266C104.803 291.266 104.502 293.116 106.464 293.474C108.427 293.833 112.615 292.626 114.375 291.571C116.134 290.516 118.222 289.096 118.222 289.096" stroke="#222430" stroke-linecap="round" stroke-linejoin="round"/>
<path d="M220.201 310.18V317.132C220.202 318.475 220.484 319.803 221.03 321.03L223.737 327.092" stroke="#D9C172" stroke-linecap="round" stroke-linejoin="round"/>
<path d="M124.961 317.541C124.961 317.541 128.683 321.26 128.216 325.449" stroke="#2FB6BD" stroke-miterlimit="10" stroke-linecap="round" stroke-linejoin="round"/>
<path d="M146.46 293.887C146.46 293.887 149.725 298.005 148.49 303.306" stroke="#2FB6BD" stroke-miterlimit="10" stroke-linecap="round" stroke-linejoin="round"/>
<path d="M64.8348 349.343L90.958 336.715" stroke="#D9C172" stroke-miterlimit="10" stroke-linecap="round" stroke-linejoin="round"/>
<path d="M54.9349 369.785L81.058 357.157" stroke="#D9C172" stroke-miterlimit="10" stroke-linecap="round" stroke-linejoin="round"/>
</svg>
