<svg width="280" height="389" viewBox="0 0 280 389" fill="none" xmlns="http://www.w3.org/2000/svg">
<path d="M137.247 290.682C137.247 290.682 138.461 308.469 135.892 311.081C133.324 313.694 76.029 318.139 71.873 316.825C67.717 315.511 67.771 310.02 67.771 310.02L135.892 284.698L137.247 290.682Z" fill="#2FB6BD"/>
<path d="M229.259 387.977L227.056 353.484C227.056 353.484 229.199 340.652 230.51 327.807C231.608 317.055 223.433 295.331 223.433 295.331" stroke="#E98600" stroke-miterlimit="10" stroke-linecap="round" stroke-linejoin="round"/>
<path d="M173.362 329.208L187.667 378.762" stroke="#E98600" stroke-miterlimit="10" stroke-linecap="round" stroke-linejoin="round"/>
<path opacity="0.5" d="M269.853 135.583H158.918C156.535 135.583 154.25 134.636 152.565 132.951C150.88 131.266 149.934 128.981 149.934 126.598V10.125C149.934 7.74202 150.88 5.45602 152.565 3.77102C154.25 2.08602 156.535 1.14001 158.918 1.14001H269.853C272.236 1.14001 274.521 2.08602 276.206 3.77102C277.89 5.45602 278.837 7.74202 278.837 10.125V126.598C278.837 128.981 277.89 131.266 276.206 132.951C274.521 134.636 272.236 135.583 269.853 135.583Z" stroke="#D9C172" stroke-miterlimit="10" stroke-linecap="round" stroke-linejoin="round"/>
<path opacity="0.5" d="M149.941 68.375H278.834" stroke="#D9C172" stroke-miterlimit="10" stroke-linecap="round" stroke-linejoin="round"/>
<path opacity="0.1" d="M278.837 24.0551L172.477 135.583L268.688 135.25C271.382 135.242 273.963 134.167 275.865 132.259C277.767 130.352 278.836 127.768 278.837 125.074V24.0551Z" fill="#D9C172"/>
<path opacity="0.5" d="M214.389 135.833V1.16602" stroke="#D9C172" stroke-miterlimit="10" stroke-linecap="round" stroke-linejoin="round"/>
<path d="M165.476 179.799C165.476 179.799 153.325 187.32 141.908 187.154C130.492 186.987 124.207 201.483 124.207 201.483C124.207 201.483 147.166 221.241 147.555 230.605C147.944 239.969 151.784 253.567 151.784 253.567L153.008 304.908C153.008 304.908 207.83 309.9 223.479 295.923C223.479 294.768 221.306 279.807 221.306 279.807C221.306 279.807 236.845 282.802 242.602 281.254C243.983 280.881 245.264 279.667 245.347 276.043C245.397 273.281 244.801 266.545 243.926 262.971C239.803 246.136 235.644 218.971 235.055 215.31C232.756 201.067 233.97 186.528 198.068 179.796C175.888 176.708 165.476 179.799 165.476 179.799Z" fill="#FFC534"/>
<path d="M116.823 151.46C116.823 151.46 118.394 157.051 114.071 165.204C114.071 165.204 115.835 190.878 102.598 193.879L102.129 198.076C103.673 198.136 105.211 198.304 106.731 198.578C108.202 198.888 113.166 199.493 113.166 199.493L108.208 213.979L96.266 231.949C96.266 231.949 73.437 218.439 70.978 204.465C69.514 202.701 80.864 200.385 80.864 200.385C80.864 200.385 80.006 196.026 79.224 193.064C78.049 188.605 77.124 182.778 77.656 180.701C78.548 177.24 81.872 180.402 77.483 175.134C73.095 169.866 67.238 162.252 77.483 155.227C87.728 148.202 86.261 137.08 96.213 137.959C106.165 138.838 116.344 140.971 116.823 151.46Z" fill="#FDC0AE"/>
<path d="M74.535 151.373C74.535 151.373 70.928 147.533 64.22 156.209C59.306 162.598 57.233 175.63 55.236 188.748C53.539 199.883 38.4831 203.077 38.4831 203.077C38.8856 203.846 39.4452 204.522 40.1256 205.061C40.806 205.6 41.592 205.99 42.4327 206.206L38.4831 208.016C38.4831 208.016 40.4595 214.272 48.5251 213.45C48.5251 213.45 68.576 210.805 71.098 203.683C71.248 203.257 80.538 200.465 80.538 200.465C85.779 194.685 81.619 175.417 81.619 175.417C81.619 175.417 66.952 171.463 74.535 151.373Z" fill="#E98600"/>
<path d="M86.674 134.398C99.115 128.565 109.899 134.648 114.018 140.701C115.815 143.343 119.545 147.646 117.252 153.709C117.169 153.929 117.325 154.102 117.169 153.929C116.374 153.057 112.511 150.102 111.742 144.012C111.523 145.194 111.549 150.335 99.281 153.204C93.189 154.631 84.79 161.786 83.805 167.18C83.79 167.269 83.745 167.351 83.678 167.412C83.612 167.473 83.527 167.51 83.437 167.517C83.347 167.525 83.257 167.503 83.181 167.454C83.105 167.405 83.047 167.332 83.017 167.247C82.168 165.027 80.322 161.922 76.878 163.397C73.141 164.997 74.143 174.731 81.702 174.774C81.702 174.774 80.628 183.217 77.53 185.63C69.857 191.62 76.488 187.154 76.488 187.154C76.488 187.154 68.835 178.502 69.501 164.488C70.166 150.475 72.672 140.964 86.674 134.398Z" fill="#E98600"/>
<path d="M108.844 198.671C108.844 198.671 122.613 200.638 126.988 202.109C133.949 204.438 145.146 211.131 148.317 222.302C151.488 233.474 151.84 274.212 151.84 274.212L129.7 275.757C129.7 275.757 115.163 291.494 97.245 302.206C89.904 306.582 70.875 308.04 68.213 308.735C67.881 308.822 57.18 311.174 51.1205 299.713C45.6136 289.291 41.471 248.592 40.8055 237.673C39.9504 223.696 43.1148 209.154 50.0424 207.443C55.855 206.013 56.804 206.013 61.046 205.35C66.11 204.525 71.112 203.36 76.019 201.863C76.019 201.863 74.505 218.056 92.806 218.835C97.904 219.054 105.067 216.462 107.613 210.136C110.82 202.169 108.844 198.671 108.844 198.671Z" fill="#2FB6BD"/>
<path d="M114.404 281.394C114.323 281.234 114.278 281.058 114.274 280.879C114.27 280.7 114.307 280.522 114.381 280.359C114.455 280.196 114.565 280.052 114.703 279.937C114.84 279.822 115.002 279.74 115.176 279.697C120.5 278.366 136.102 274.422 137.469 272.658C138.231 271.66 140.008 268.871 141.699 266.143C142.565 264.727 143.314 263.242 143.938 261.703C144.02 261.501 144.157 261.326 144.332 261.197C144.508 261.067 144.715 260.989 144.933 260.969C145.15 260.95 145.368 260.991 145.564 261.088C145.759 261.184 145.924 261.333 146.041 261.517C146.896 262.848 147.631 265.034 146.61 268.013C146.215 269.182 145.712 270.313 145.109 271.391C144.59 272.306 146.773 273.923 147.788 273.643C153.085 272.193 161.779 268.985 163.333 268.985C165.466 268.985 164.997 269.444 163.51 271.417C162.648 272.549 161.846 273.081 150.44 278.013C150.389 278.033 150.348 278.07 150.323 278.118C150.298 278.166 150.291 278.221 150.303 278.274C150.315 278.326 150.345 278.373 150.389 278.405C150.432 278.437 150.486 278.453 150.539 278.449C155.158 277.903 165.1 277.184 167.236 276.821C168.591 276.592 169.991 277.058 170.038 277.767C170.085 278.475 168.787 279.43 167.819 279.713C166.85 279.996 163.184 281.011 158.146 282.146C157.607 282.266 154.872 282.772 155.421 282.708C161.077 282.043 167.326 282.485 168.015 282.499C171.692 282.579 170.148 284.362 167.376 285.314C164.934 286.156 152.689 286.732 152.689 286.732C152.689 286.732 157.567 287.148 161.879 287.557C165.326 287.89 166.168 287.77 165.825 288.805C165.596 289.494 164.238 290.189 162.165 290.595C158.244 291.339 154.278 291.825 150.293 292.049C149.338 292.049 136.824 289.72 132.894 289.56C132.66 289.552 132.428 289.613 132.229 289.737C130.209 290.981 118.47 298.093 118.018 295.65C117.269 291.594 115.885 284.349 114.404 281.394Z" fill="#FDC0AE"/>
<path d="M96.02 161.553C96.458 161.331 96.922 161.165 97.401 161.061C97.868 160.955 98.346 160.906 98.825 160.914C99.307 160.916 99.787 160.981 100.253 161.107C100.714 161.231 101.161 161.406 101.584 161.63C101.696 161.692 101.78 161.794 101.818 161.917C101.857 162.039 101.847 162.171 101.79 162.286C101.734 162.401 101.635 162.49 101.515 162.535C101.395 162.579 101.262 162.576 101.144 162.525L101.111 162.508C100.756 162.322 100.381 162.176 99.993 162.072C99.607 161.969 99.209 161.916 98.809 161.913C98.406 161.904 98.003 161.945 97.611 162.036C97.228 162.12 96.858 162.249 96.506 162.422L96.473 162.442C96.355 162.503 96.218 162.514 96.091 162.474C95.965 162.434 95.86 162.345 95.799 162.227C95.738 162.109 95.726 161.972 95.767 161.846C95.807 161.719 95.896 161.614 96.014 161.553H96.02Z" fill="#222430"/>
<path d="M109.41 162.398C109.839 162.35 110.272 162.337 110.704 162.358C111.135 162.381 111.563 162.439 111.985 162.531C112.413 162.634 112.828 162.785 113.223 162.981C113.623 163.195 113.986 163.472 114.298 163.803C114.366 163.875 114.403 163.971 114.401 164.07C114.398 164.169 114.356 164.263 114.284 164.332C114.212 164.4 114.116 164.437 114.017 164.435C113.918 164.432 113.824 164.39 113.755 164.318V164.302C113.502 164.036 113.209 163.812 112.887 163.636C112.551 163.466 112.196 163.336 111.829 163.25C111.451 163.167 111.067 163.116 110.681 163.097C110.297 163.078 109.912 163.089 109.529 163.13H109.513C109.464 163.137 109.413 163.133 109.365 163.12C109.318 163.107 109.273 163.084 109.234 163.053C109.195 163.022 109.163 162.983 109.139 162.939C109.116 162.895 109.101 162.847 109.097 162.798C109.091 162.749 109.096 162.699 109.109 162.651C109.123 162.604 109.146 162.559 109.177 162.521C109.208 162.482 109.246 162.45 109.289 162.426C109.333 162.402 109.38 162.387 109.43 162.382L109.41 162.398Z" fill="#222430"/>
<path d="M105.583 164.964C105.583 164.964 106.528 174.219 106.092 176.355C105.799 177.793 101.314 177.27 101.314 177.27" stroke="#222430" stroke-linecap="round" stroke-linejoin="round"/>
<path d="M99.281 169.23C100.068 169.23 100.705 168.365 100.705 167.297C100.705 166.229 100.068 165.363 99.281 165.363C98.495 165.363 97.857 166.229 97.857 167.297C97.857 168.365 98.495 169.23 99.281 169.23Z" fill="#222430"/>
<path d="M111.742 171.164C112.529 171.164 113.166 170.298 113.166 169.23C113.166 168.163 112.529 167.297 111.742 167.297C110.956 167.297 110.318 168.163 110.318 169.23C110.318 170.298 110.956 171.164 111.742 171.164Z" fill="#222430"/>
<path d="M97.857 184.302C101.757 184.302 102.608 185.147 103.513 185.26" stroke="#222430" stroke-linecap="round" stroke-linejoin="round"/>
<path d="M149.964 122.648C149.964 122.648 145.618 137.107 151.035 145.859C151.035 145.859 151.282 165.367 168.101 171.15L166.568 167.623C166.568 167.623 168.301 177.656 162.884 184.535C162.884 184.535 162.675 199.124 179.345 196.621C179.345 196.621 194.318 191.829 200.171 180.159C200.171 180.159 192.265 165.36 196.434 158.066C200.603 150.771 198.344 139.43 190.631 130.055C182.918 120.681 176.486 117.739 166.215 117.074C155.943 116.408 149.964 122.648 149.964 122.648Z" fill="#FDC0AE"/>
<path d="M166.767 131.194C180.832 131.194 179.465 136.335 182.542 140.435C183.754 142.049 180.982 135.164 186.469 133.476C191.154 132.032 193.699 136.704 193.1 139.34C191.939 144.445 188.029 143.333 188.029 143.333C188.029 143.333 190.269 151.733 189.084 156.977C188.795 158.249 189.999 160.056 189.799 161.373C188.359 170.967 194.977 179.896 204.546 181.467C206.11 181.687 207.656 182.021 209.171 182.465C212.928 183.796 224.96 189.73 224.96 189.73C224.96 189.73 216.282 179.204 214.389 167.297C212.961 158.365 209.398 108.764 176.916 105.876C164.515 104.774 148.3 115.483 146.943 123.416C145.049 134.358 148.38 136.498 148.38 136.498C148.38 136.498 148.749 126.621 151.282 125.972C152.809 125.583 155.464 131.194 166.767 131.194Z" fill="#222430"/>
<path d="M71.597 283.284C71.597 283.284 90.247 274.099 110.701 277.294C112.032 276.732 118.617 287.277 117.103 296.156C117.103 296.156 107.234 301.444 92.387 306.342C86.95 308.136 60.144 313.025 54.524 307.401C50.2786 303.154 49.4767 289.238 49.4767 283.364" fill="#2FB6BD"/>
<path d="M109.44 277.697C89.761 280.003 70.676 286.858 70.676 286.858C70.676 286.858 69.677 258.033 61.944 245.434C61.944 245.434 73.963 264.848 74.282 282.435C82.445 279.758 90.872 277.967 99.418 277.094C106.032 276.449 109.44 277.697 109.44 277.697Z" fill="#13979E"/>
<path d="M61.039 309.747C70.113 310.286 82.754 309.204 95.165 305.394C113.273 299.83 130.316 290.682 130.316 290.682" stroke="#14181A" stroke-linecap="round" stroke-linejoin="round"/>
<path d="M127.694 237.673C127.694 237.673 127.108 257.88 132.432 273.643" stroke="#14181A" stroke-linecap="round" stroke-linejoin="round"/>
<path d="M167.727 144.955C168.323 144.655 168.431 143.667 167.969 142.747C167.507 141.828 166.649 141.325 166.053 141.625C165.457 141.924 165.349 142.912 165.811 143.832C166.273 144.752 167.131 145.254 167.727 144.955Z" fill="#222430"/>
<path d="M156.076 149.956C156.672 149.657 156.781 148.669 156.319 147.749C155.857 146.829 154.999 146.327 154.403 146.626C153.807 146.926 153.698 147.914 154.16 148.834C154.622 149.753 155.48 150.256 156.076 149.956Z" fill="#222430"/>
<path d="M161.294 139.22C162.252 138.489 163.353 137.969 164.527 137.692C165.7 137.416 166.918 137.39 168.101 137.616" stroke="#222430" stroke-linecap="round" stroke-linejoin="round"/>
<path d="M151.282 145.427C151.672 144.733 152.252 144.165 152.953 143.789C153.654 143.412 154.447 143.243 155.241 143.3" stroke="#222430" stroke-linecap="round" stroke-linejoin="round"/>
<path d="M161.856 149.566C161.819 149.303 161.823 148.901 162.591 154.445C163.29 159.52 167.539 155.383 167.539 155.383" stroke="#222430" stroke-linecap="round" stroke-linejoin="round"/>
<path opacity="0.5" d="M69.468 40.022H1.16638V62.841H69.468V40.022Z" stroke="#D9C172" stroke-miterlimit="10" stroke-linecap="round" stroke-linejoin="round"/>
<path opacity="0.5" d="M85.369 68.501H17.0679V91.32H85.369V68.501Z" stroke="#D9C172" stroke-miterlimit="10" stroke-linecap="round" stroke-linejoin="round"/>
<path d="M152.729 126.591C152.729 126.591 158.086 133.087 166.231 132.731C177.355 132.245 179.771 135.287 181.085 137.899" stroke="#222430" stroke-miterlimit="10" stroke-linecap="round" stroke-linejoin="round"/>
<path d="M156.915 248.994C155.6 247.078 157.114 245.098 155.966 244.123C153.637 242.152 153.97 241.184 153.511 239.983C153.284 239.241 153.125 238.48 153.035 237.71C152.37 237.617 150.516 238.482 150.516 238.482L150.975 247.071L151.225 251.484C150.293 251.84 149.614 252.332 148.317 252.781C146.171 253.52 137.786 248.921 137.786 248.921C137.786 248.921 135.204 247.42 133.66 248.742C132.116 250.063 133.879 250.682 135.127 252.272C135.999 253.38 134.794 252.891 134.794 252.891C134.794 252.891 131.677 253.078 133.327 256.276L135.021 257.989C135.021 257.989 133.507 258.412 132.941 259.154C132.512 259.72 132.941 260.512 133.134 261.217C133.557 262.845 141.675 266.143 141.675 266.143C141.675 266.143 144.55 266.985 150.017 266.143C155.484 265.301 159.696 264.415 162.881 262.013C162.881 262.013 167.017 261.4 167.632 259.93C168.181 258.618 167.166 255.88 167.3 253.021C167.343 252.126 166.79 250.385 166.321 249.57C165.939 248.905 163.723 249.856 163.297 249.57C161.091 248.059 156.915 248.994 156.915 248.994Z" fill="#FDC0AE"/>
<path d="M235.055 259.93C233.777 253.773 197.05 245.43 166.132 246.598" stroke="#222430" stroke-linecap="round" stroke-linejoin="round"/>
<path d="M137.786 248.921C137.786 248.921 135.43 247.211 133.889 248.529C132.349 249.846 133.427 250.775 135.407 252.522C137.386 254.269 143.013 257.307 144.53 257.886C146.047 258.465 148.503 257.314 148.503 257.314" stroke="#222430" stroke-linecap="round" stroke-linejoin="round"/>
<path d="M132.635 260.568C131.73 258.592 134.851 257.87 134.851 257.87" stroke="#222430" stroke-linecap="round" stroke-linejoin="round"/>
<path d="M135.709 252.781C135.709 252.781 131.507 252.968 133.157 256.166C134.155 258.109 140.89 260.845 142.291 261.823" stroke="#222430" stroke-linecap="round" stroke-linejoin="round"/>
<path d="M134.851 257.88C134.851 257.88 131.73 258.602 132.635 260.578C133.54 262.555 139.539 265.051 141.689 266.143" stroke="#222430" stroke-linecap="round" stroke-linejoin="round"/>
<path d="M153.035 237.71C153.035 237.71 153.391 241.703 155.697 243.64C156.555 244.365 155.85 248.485 156.921 248.994C157.993 249.504 162.465 247.59 163.32 249.587L166.132 248.981" stroke="#222430" stroke-linecap="round" stroke-linejoin="round"/>
<path d="M153.035 237.71C153.035 237.71 150.04 237.177 150.473 240.269" stroke="#222430" stroke-linecap="round" stroke-linejoin="round"/>
<path d="M166.132 247.028C166.132 247.028 171.01 259.394 165.363 263.92C163.32 264.865 214.136 282.762 242.608 281.254C249.596 282.196 241.064 250.046 241.064 250.046" stroke="#E98600" stroke-linecap="round" stroke-linejoin="round"/>
<path d="M211.727 215.31C211.727 215.31 211.75 241.447 214.721 250.695" stroke="#222430" stroke-linecap="round" stroke-linejoin="round"/>
<path d="M165 162.5C165 162.5 171 163.5 172.477 158.112" stroke="#222430" stroke-linecap="round" stroke-linejoin="round"/>
<path d="M164.708 169.693C164.708 169.693 169.595 173.144 178.786 166.082" stroke="#222430" stroke-miterlimit="10" stroke-linecap="round" stroke-linejoin="round"/>
<path d="M163.32 180.701C163.32 180.701 161.6 196.342 175.838 196.931" stroke="#222430" stroke-miterlimit="10" stroke-linecap="round" stroke-linejoin="round"/>
<path d="M147.528 204.838C147.528 204.838 150.03 214.399 148.011 221.364" stroke="#222430" stroke-miterlimit="10" stroke-linecap="round" stroke-linejoin="round"/>
<path d="M102.608 193.909L102.153 198.106C102.153 198.106 90.483 194.938 88.763 189.65C88.763 189.65 95.035 194.309 102.406 193.879" fill="#EA917D"/>
<path d="M88.743 189.62C88.743 189.62 97.448 197.274 106.209 192.615" stroke="#222430" stroke-linecap="round" stroke-linejoin="round"/>
<path d="M72.595 147.756C72.595 147.756 69.471 153.207 73.74 164.062" stroke="#B76708" stroke-linecap="round" stroke-linejoin="round"/>
<path d="M104.452 133.446C104.452 133.446 113.512 140.844 111.22 145.726C108.927 150.608 100.702 152.854 100.702 152.854" stroke="#B76708" stroke-miterlimit="10" stroke-linecap="round" stroke-linejoin="round"/>
<path d="M39.032 203.473C39.032 203.473 41.3346 206.059 44.5522 206.013C49.5765 205.939 57.023 201.953 61.039 194.099" stroke="#B76708" stroke-linecap="round" stroke-linejoin="round"/>
<path d="M137.46 272.658C138.221 271.66 139.998 268.871 141.689 266.143C142.518 264.787 143.239 263.369 143.845 261.9C143.94 261.677 144.095 261.484 144.293 261.345C144.49 261.205 144.723 261.123 144.965 261.108C145.207 261.093 145.448 261.146 145.662 261.26C145.875 261.375 146.053 261.547 146.174 261.757C146.959 263.111 147.555 265.201 146.593 268.006C146.164 269.261 145.775 270.336 145.229 271.138C144.197 272.625 146.656 273.943 147.771 273.637C153.132 272.173 161.786 268.978 163.317 268.978C165.45 268.978 164.801 270.402 162.864 271.953C160.928 273.504 150.17 278.425 150.17 278.425C150.626 278.758 162.235 277.171 164.977 276.935C168.67 276.602 169.822 276.951 170.021 277.76C170.304 278.878 167.526 279.607 165.769 280.069C164.744 280.336 159.094 281.507 154.057 282.642C153.517 282.762 153.74 282.642 154.289 282.589C159.946 281.94 167.117 282.459 167.802 282.485C171.342 282.619 170.264 284.482 168.378 285.074C165.912 285.833 153.072 286.911 153.072 286.911C153.072 286.911 160.804 287.081 164.584 287.84C165.969 288.119 166.158 288.998 165.303 289.607C164.531 290.153 162.581 290.765 159.197 291.005C154.872 291.311 150.42 292.129 149.954 292.036C148.986 291.843 140.68 290.016 137.286 290.016" stroke="#222430" stroke-linecap="round" stroke-linejoin="round"/>
<path d="M153.008 304.911L157.414 374.878" stroke="#E98600" stroke-miterlimit="10" stroke-linecap="round" stroke-linejoin="round"/>
<path d="M67.764 310.02C67.764 310.02 61.243 328.513 65 354C65 368.013 61.944 374.878 61.944 374.878" stroke="#D9C172" stroke-linecap="round" stroke-linejoin="round"/>
<path d="M99.977 372.067L113.393 335.424" stroke="#D9C172" stroke-linecap="round" stroke-linejoin="round"/>
<path d="M71.491 203.44C71.491 203.44 71.511 222.845 95.677 222.099" stroke="#222430" stroke-linecap="round" stroke-linejoin="round"/>
<path d="M106.684 356.462L107.613 372.067" stroke="#D9C172" stroke-linecap="round" stroke-linejoin="round"/>
<path d="M135.892 311.081L137.533 372.067" stroke="#D9C172" stroke-linecap="round" stroke-linejoin="round"/>
</svg>
