<svg width="152" height="160" viewBox="0 0 152 160" fill="none" xmlns="http://www.w3.org/2000/svg">
<path d="M100.381 75.978C100.381 75.978 101.001 76 102.653 74.32C104.305 72.64 105.566 67.903 105.566 67.903L108.272 63.292C108.359 63.178 108.418 63.044 108.445 62.903C108.472 62.761 108.466 62.616 108.427 62.477C108.389 62.338 108.318 62.21 108.222 62.103C108.126 61.997 108.006 61.914 107.872 61.861C107.688 61.787 107.486 61.773 107.294 61.823C107.102 61.872 106.931 61.981 106.806 62.134L103.205 66.521L108.045 59.315C108.172 59.126 108.223 58.896 108.187 58.671C108.15 58.446 108.03 58.244 107.85 58.104C107.756 58.031 107.649 57.978 107.534 57.948C107.419 57.917 107.3 57.91 107.182 57.926C107.065 57.943 106.952 57.983 106.85 58.044C106.748 58.105 106.659 58.185 106.589 58.281L101.041 65.863L105.585 56.415C105.706 56.165 105.728 55.878 105.646 55.612C105.564 55.345 105.385 55.12 105.145 54.981C105.013 54.902 104.867 54.852 104.715 54.834C104.564 54.816 104.41 54.829 104.264 54.874C104.117 54.92 103.982 54.995 103.867 55.096C103.752 55.196 103.659 55.32 103.595 55.459L98.965 65.192L102.619 54.897C102.755 54.5 102.554 53.466 102.024 53.382C102.024 53.382 101.19 52.972 100.607 54.003L96.042 65.388C96.238 62.923 95.937 60.482 95.153 59.219C94.301 57.84 92.801 58.818 92.801 58.818C92.987 59.703 93.69 62.811 93.169 65.155C92.816 66.745 92.683 68.539 92.484 68.663V72.078L91.341 74.562L89.171 77.356L82.229 91.638L79.92 82.051L70.601 83.913C70.601 83.913 69.721 92.125 69.306 97.118C68.89 102.11 72.619 106.481 73.862 108.714C75.104 110.946 83.097 113.65 86.965 108.714C90.039 104.78 99.073 76.152 99.879 75.941" fill="#FDC0AE"/>
<path d="M71.326 158.994H46.4958L46.9266 143.12L40.5702 157.941L46.626 120.664C46.626 120.664 59.7758 120.226 67.973 119.133" fill="#352364"/>
<path d="M60.0175 24.226C60.0175 24.226 67.456 21.568 70.356 25.67C71.658 27.533 72.588 31.612 69.355 33.624L60.1508 24.704" fill="#222430"/>
<path d="M66.73 23.3819C66.73 23.3819 48.7056 14.0049 42.4979 34.5579C41.8781 36.6079 40.7345 41.7889 38.4163 43.0029C27.5909 48.6629 32.7076 56.3909 28.8089 56.0019C28.0465 55.9249 17.1126 57.0359 24.6188 70.5939C23.999 86.1889 33.4081 79.0479 33.4081 79.0479L52.6942 76.8599C52.6942 76.8599 53.5651 57.4829 52.0744 51.2579C51.8264 50.2249 50.2149 47.4149 50.2149 47.4149" fill="#222430"/>
<path d="M51.2066 50.3921C43.3843 41.7891 44.4907 33.7511 47.7975 29.9791C49.2078 28.4241 50.8878 27.1371 52.7562 26.1821C60.6684 22.0221 65.559 25.7851 65.559 25.7851C65.559 25.7851 68.918 25.2411 67.53 31.6841C66.142 38.1261 59.8998 42.3081 57.3399 44.3201C54.7799 46.3311 52.3378 51.6531 51.2066 50.3921Z" fill="#222430"/>
<path d="M68.956 27.8799C68.956 27.8799 54.0795 42.9909 52.9421 38.6849C52.2851 36.1819 49.0744 36.8219 47.7417 39.6749C46.3285 42.7019 49.2913 44.0429 50.6239 44.5459C53.4132 53.6059 49.7376 57.0299 49.7376 57.0299C47.8533 57.0299 43.9018 57.3409 43.9018 57.3409L50.2923 72.9109L63.95 70.4609L65.441 61.0449L64.397 58.8899L62.026 58.2159L61.406 53.2489C61.406 53.2489 63.008 54.0959 65.956 52.7049C72.913 47.8739 71.534 37.6139 71.534 37.6139C71.534 37.6139 72.901 31.4849 69.427 28.3269L68.956 27.8799Z" fill="#FDC0AE"/>
<path d="M45.0981 57.235C45.4514 59.672 47.3327 70.051 56.0165 70.951C56.4283 70.996 56.8421 71.017 57.2562 71.017C66.303 71.017 64.384 58.88 64.384 58.88C64.384 58.88 74.952 61.15 76.471 63.953C79.487 69.526 81.104 81.936 81.653 86.906C81.714 87.468 81.551 88.032 81.199 88.474C80.847 88.916 80.335 89.2 79.775 89.266L71.661 90.216L71.565 77.956C71.565 77.956 73.149 85.717 72.296 90.008C71.444 94.299 70.307 95.96 68.599 97.67C66.892 99.381 67.555 107.732 67.979 119.117C52.3409 123.045 25.719 117.456 25.719 117.456C26.1033 111.868 27.343 93.423 27.343 93.423L35.1467 98.496L39.1756 76.832L37.7066 94.985C24.3802 95.326 17.9742 91.979 17.9742 91.979C17.9742 91.979 22.3626 60.296 34.0527 58.182C37.3812 57.58 43.8678 57.483 46.9515 57.03L45.0981 57.235Z" fill="#E98600"/>
<path d="M25.7686 116.736C25.7686 116.736 22.1705 122.697 21.5196 131.328C20.5372 144.383 23.5031 159 23.5031 159H46.4959L49.5672 142.278C52.781 140.043 59 120.5 59 120.5C59 120.5 39.5 121 25.7686 116.736Z" fill="#352364"/>
<path d="M20.7975 93.203C29.9463 96.332 36.9132 95.065 36.9132 95.065C41.0599 71.666 37.533 63.95 37.533 63.95C37.533 63.95 39.1198 91.0819 35.5527 94.0659C31.9855 97.049 19.7903 90.517 17.9556 91.964L20.7975 93.203Z" fill="#F49321"/>
<path d="M55.5455 49.9641C55.5455 49.9641 57.5258 52.7951 61.865 53.4011L61.945 57.5491C61.945 57.5491 57.3244 51.8791 55.5455 49.9641Z" fill="#EA917D"/>
<path d="M25.6044 121.747C25.6044 121.747 50.4164 125.358 64.635 123.212" stroke="black" stroke-miterlimit="10" stroke-linecap="round" stroke-linejoin="round"/>
<path d="M65.773 100.505C65.773 100.505 70.276 96.68 72.036 90.998C73.796 85.317 69.594 72.907 69.594 72.907C69.594 72.907 72.693 86.922 70.375 90.061C68.057 93.199 62.782 98.496 62.782 98.496L62.202 104.851L66.049 105.988L65.773 100.505Z" fill="#F49321"/>
<path d="M85.762 89.2969V88.4429L96.504 91.7589L97.062 92.6219L85.762 89.2969Z" fill="#808080"/>
<path d="M98.072 80.359L99.513 75.5C99.513 75.5 101.001 75.984 102.653 74.305C104.305 72.625 105.653 67.598 105.653 67.598L108.272 63.277C108.359 63.162 108.418 63.029 108.445 62.887C108.472 62.746 108.466 62.6 108.427 62.461C108.389 62.323 108.318 62.195 108.222 62.088C108.126 61.981 108.006 61.898 107.872 61.845C107.688 61.771 107.486 61.758 107.294 61.807C107.102 61.856 106.931 61.965 106.806 62.119L103.205 66.506L108.045 59.3C108.172 59.111 108.223 58.88 108.187 58.656C108.15 58.431 108.03 58.228 107.85 58.089C107.756 58.016 107.649 57.963 107.534 57.932C107.419 57.902 107.3 57.894 107.182 57.911C107.065 57.927 106.952 57.967 106.85 58.028C106.748 58.089 106.659 58.17 106.589 58.266L101.041 65.847L105.585 56.4C105.706 56.149 105.728 55.862 105.646 55.596C105.564 55.33 105.385 55.105 105.145 54.966C105.013 54.887 104.867 54.837 104.716 54.819C104.564 54.801 104.411 54.814 104.265 54.859C104.119 54.904 103.984 54.979 103.869 55.079C103.753 55.179 103.66 55.302 103.595 55.441L98.965 65.177L102.451 55.242C102.963 54.515 102.74 53.348 102.024 53.183C102.024 53.183 100.896 52.873 100.431 54.425L96.185 64.739C96.259 58.84 94.679 58.598 93.616 58.399C93.514 58.382 93.409 58.389 93.311 58.421C93.212 58.452 93.123 58.507 93.05 58.58C92.977 58.653 92.923 58.743 92.892 58.842C92.861 58.941 92.854 59.046 92.872 59.148C93.25 61.358 93.166 65.375 93.166 65.375C93.166 65.375 91.849 68.94 92.469 71.858C92.559 72.277 89.655 76.981 89.655 76.981" stroke="#EA917D" stroke-linecap="round" stroke-linejoin="round"/>
<path d="M53.311 17.439V2.97801C53.311 2.45301 53.519 1.95001 53.8892 1.57901C54.2594 1.20801 54.7616 1.00001 55.2851 1.00001H149.013C149.274 0.999015 149.531 1.04901 149.772 1.14801C150.013 1.24701 150.232 1.39202 150.416 1.57602C150.601 1.76002 150.748 1.97802 150.848 2.21802C150.948 2.45902 151 2.71701 151 2.97801V82.166C150.999 82.69 150.791 83.193 150.42 83.564C150.049 83.935 149.547 84.143 149.023 84.143H106.66" stroke="#D9C172" stroke-miterlimit="10" stroke-linecap="round" stroke-linejoin="round"/>
<path opacity="0.5" d="M139.951 11.9409H64.35V17.4919H139.951V11.9409Z" fill="#D9C172"/>
<path opacity="0.5" d="M139.951 21.447H78.966V26.999H139.951V21.447Z" fill="#D9C172"/>
<path opacity="0.5" d="M140.091 61.02H111.653V66.571H140.091V61.02Z" fill="#D9C172"/>
<path opacity="0.5" d="M140.091 70.5259H117.151V76.0769H140.091V70.5259Z" fill="#D9C172"/>
<path d="M120.371 33.9219H138.606" stroke="#D9C172" stroke-linecap="round" stroke-linejoin="round"/>
<path d="M120.371 40.9351H138.606" stroke="#D9C172" stroke-linecap="round" stroke-linejoin="round"/>
<path d="M120.371 47.9519H138.606" stroke="#D9C172" stroke-linecap="round" stroke-linejoin="round"/>
<path d="M120.371 54.9661H138.606" stroke="#D9C172" stroke-linecap="round" stroke-linejoin="round"/>
<path d="M63.751 38.4849C63.782 37.8969 63.499 37.4049 63.12 37.3849C62.74 37.3649 62.408 37.8249 62.377 38.4129C62.347 38.9999 62.629 39.4919 63.009 39.5119C63.388 39.5319 63.721 39.0719 63.751 38.4849Z" fill="#222430"/>
<path d="M70.946 38.72C70.975 38.155 70.703 37.681 70.337 37.662C69.971 37.643 69.651 38.085 69.621 38.65C69.592 39.216 69.864 39.689 70.23 39.708C70.596 39.727 70.916 39.285 70.946 38.72Z" fill="#222430"/>
<path d="M64.716 34.996C64.111 34.725 63.457 34.585 62.794 34.585C62.132 34.585 61.477 34.725 60.8729 34.996" stroke="#222430" stroke-linecap="round" stroke-linejoin="round"/>
<path d="M71.326 36.092C70.977 35.829 70.56 35.671 70.124 35.637C69.689 35.602 69.252 35.692 68.866 35.897" stroke="#222430" stroke-linecap="round" stroke-linejoin="round"/>
<path d="M67.115 40.405C67.115 40.405 67.468 41.799 67.846 43.124C68.655 45.918 65.478 44.751 65.478 44.751" stroke="#222430" stroke-linecap="round" stroke-linejoin="round"/>
<path d="M65.944 48.475C65.944 48.475 63.69 49.901 62.066 47.541" stroke="#222430" stroke-linecap="round" stroke-linejoin="round"/>
<path d="M33.439 126.193L25.4029 136.454" stroke="white" stroke-miterlimit="10" stroke-linecap="round" stroke-linejoin="round"/>
<path d="M49.1239 146.942L47.9803 158.994" stroke="white" stroke-miterlimit="10" stroke-linecap="round" stroke-linejoin="round"/>
<path d="M45.0982 57.2351C45.0982 57.2351 40.2882 60.8521 44.2862 67.2071C46.8244 71.2431 46.6353 72.7581 51.501 75.3911C53.6364 76.5461 54.7149 70.7341 54.7149 70.7341C54.7149 70.7341 46.5579 68.2161 45.0982 57.2351Z" fill="white"/>
<path d="M54.7149 70.7369C54.7149 70.7369 61.93 72.3979 63.724 66.4499C65.004 62.2059 64.397 58.8799 64.397 58.8799C64.397 58.8799 70.57 65.9559 64.555 72.3019C62.745 74.2079 60.2159 75.8159 58.8926 75.5959C56.1932 75.1459 54.7149 70.7369 54.7149 70.7369Z" fill="white"/>
<path d="M54.7149 72.9009C54.7149 72.9009 57.8606 84.2209 55.9174 89.2969C54.8358 92.1249 52.4835 101.349 52.6013 101.964" stroke="#AF6610" stroke-linecap="round" stroke-linejoin="round"/>
<path d="M58.4959 80.023C58.8467 80.023 59.1312 79.456 59.1312 78.757C59.1312 78.057 58.8467 77.49 58.4959 77.49C58.145 77.49 57.8605 78.057 57.8605 78.757C57.8605 79.456 58.145 80.023 58.4959 80.023Z" stroke="#AF6610" stroke-linecap="round" stroke-linejoin="round"/>
<path d="M58.4959 88.7291C58.8467 88.7291 59.1312 88.1621 59.1312 87.4621C59.1312 86.7621 58.8467 86.1951 58.4959 86.1951C58.145 86.1951 57.8605 86.7621 57.8605 87.4621C57.8605 88.1621 58.145 88.7291 58.4959 88.7291Z" stroke="#AF6610" stroke-linecap="round" stroke-linejoin="round"/>
<path d="M18.7242 87.4651C18.7242 87.4651 25.1983 92.3921 35.4597 91.2901" stroke="#AF6610" stroke-linecap="round" stroke-linejoin="round"/>
<path d="M44.3667 57.2351C44.3667 57.2351 39.2283 61.0201 46.2448 70.9671" stroke="#AF6610" stroke-linecap="round" stroke-linejoin="round"/>
<path d="M64.927 59.3491C64.927 59.3491 70.939 68.0581 62.618 73.8541" stroke="#AF6610" stroke-linecap="round" stroke-linejoin="round"/>
<path d="M71.326 76.0769C71.326 76.0769 73.521 84.1309 72.458 88.4429C72.458 88.4429 80.119 88.6849 81.665 86.9059" stroke="#AF6610" stroke-linecap="round" stroke-linejoin="round"/>
<path d="M50.2924 113.746L49.124 119.748" stroke="#AF6610" stroke-linecap="round" stroke-linejoin="round"/>
<path d="M46.4773 146.942H51.9721" stroke="white" stroke-miterlimit="10" stroke-linecap="round" stroke-linejoin="round"/>
<path opacity="0.51" d="M1 158.994H97.248" stroke="#352364" stroke-miterlimit="10" stroke-linecap="round" stroke-linejoin="round"/>
<path d="M26.0816 111.992C26.0816 111.992 51.8853 116.96 68.562 114.942C68.562 114.942 36.4793 113.054 26.0816 108.338V111.992Z" fill="#AF6610"/>
<path d="M85.762 89.2969L97.062 92.6219L83.354 110.856L78.867 109.552L74.46 108.037L85.762 89.2969Z" fill="#222430"/>
<path d="M19.0744 92.4641C19.0744 92.4641 18.0455 101.694 19.9205 104.622C24.9195 112.448 71.33 115.131 71.33 115.131C71.33 115.131 75.935 114.786 79.347 112.824C81.826 111.405 82.657 112.203 84.399 109.552C84.575 109.282 84.247 109.027 84.458 108.676C84.458 108.661 85.353 108.136 85.434 107.605C85.552 106.863 85.487 105.742 84.675 105.984C83.218 106.438 80.925 107.627 80.472 107.67C80.02 107.714 84.191 105.379 84.213 105.475C84.287 105.752 87.786 103.923 87.932 103.715C88.201 103.271 88.242 102.784 87.799 102.635C86.894 102.343 84.117 102.728 83.342 103.035C82.208 103.485 78.941 105.575 78.901 105.345C78.879 105.221 80.596 103.749 82.115 102.489C82.614 102.076 82.425 103.026 88.48 100.762C90.092 100.16 87.861 99.1881 87.287 99.4491C86.503 99.8001 81.535 99.5211 80.485 100.25C77.578 102.274 74.714 105.156 73.294 104.653C71.946 104.174 71.578 107.198 70.26 106.869C50.3048 101.902 35.6798 97.9591 35.6798 97.9591L36.7211 95.0721C34.0089 95.2561 31.2859 95.2041 28.5827 94.9161C24.4577 94.4411 20.5248 93.1711 19.0744 92.4641Z" fill="#FDC0AE"/>
<path d="M72.479 105.51C72.479 105.51 73.719 99.726 75.424 99.3C77.128 98.875 78.42 98.481 78.42 98.481C78.42 98.481 79.074 99.052 77.41 101.328C76.379 102.765 75.598 104.367 75.101 106.065C75.101 106.065 72.479 106.63 72.479 106.065" fill="#FDC0AE"/>
<path d="M85.762 88.4429L78.182 100.108L75.185 104.218L77.516 102.408L85.762 89.2969V88.4429Z" fill="#B3B3B3"/>
<path d="M64.096 114.643C64.096 114.643 66.358 114.783 68.562 114.954C70.129 115.025 71.698 114.921 73.242 114.643L80.605 112.321C80.971 112.172 85.121 110.281 84.448 108.692C84.399 108.571 81.95 109.99 82.865 109.561C83.032 109.483 83.965 108.875 84.138 108.766C84.619 108.527 85.063 108.22 85.459 107.857C85.722 107.59 85.586 105.96 84.944 105.96C83.655 105.96 79.366 108.288 79.654 107.944C79.942 107.599 84.275 105.333 84.275 105.333C85.397 105.097 86.475 104.684 87.467 104.109C88.325 103.563 88.62 102.436 87.157 102.529C85.877 102.61 83.565 102.855 83.336 103.035C83.224 103.125 80.268 104.767 78.687 105.478C79.471 105.034 80.283 104.274 82.096 102.408C82.096 102.408 87.303 101.318 88.105 100.977C89.261 100.486 89.066 99.5049 87.975 99.5209C86.776 99.5389 80.903 99.9609 80.695 100.107C78.216 101.865 74.252 104.876 74.252 104.876C75.667 103.594 76.96 102.183 78.114 100.66C77.433 100.402 76.693 100.346 75.981 100.499C74.271 100.915 71.841 103.799 71.841 103.799C71.12 104.604 70.444 105.448 69.814 106.326C69.244 107.099 64.893 105.631 64.893 105.631" stroke="#EA917D" stroke-linecap="round" stroke-linejoin="round"/>
<path d="M103.239 51.609C109.123 51.609 113.894 46.83 113.894 40.935C113.894 35.04 109.123 30.262 103.239 30.262C97.354 30.262 92.584 35.04 92.584 40.935C92.584 46.83 97.354 51.609 103.239 51.609Z" fill="#D9C172"/>
<path opacity="0.78" d="M113.785 40.82C113.784 43.651 112.661 46.365 110.663 48.366C108.665 50.367 105.955 51.491 103.13 51.491C103.13 51.491 109.545 47.98 109.66 40.82C109.778 33.506 103.13 30.147 103.13 30.147C105.956 30.147 108.666 31.271 110.664 33.273C112.663 35.275 113.785 37.99 113.785 40.82Z" fill="#B3913C"/>
<path d="M97.865 40.9361L101.577 44.6581L108.947 37.2781" stroke="#503E00" stroke-linecap="round" stroke-linejoin="round"/>
</svg>
