<svg width="40" height="40" viewBox="0 0 40 40" fill="none" xmlns="http://www.w3.org/2000/svg">
<path fill-rule="evenodd" clip-rule="evenodd" d="M0 20C0 5.001 5.0011 0 20 0C34.999 0 40 5.001 40 20C40 34.999 34.999 40 20 40C5.0011 40 0 34.999 0 20Z" fill="#D9C172"/>
<path d="M11.0926 17.4043H28.917" stroke="#503E00" stroke-width="1.5" stroke-linecap="round" stroke-linejoin="round"/>
<path d="M24.442 21.3096H24.451" stroke="#503E00" stroke-width="2" stroke-linecap="round" stroke-linejoin="round"/>
<path d="M20.005 21.3096H20.014" stroke="#503E00" stroke-width="2" stroke-linecap="round" stroke-linejoin="round"/>
<path d="M15.5579 21.3096H15.5672" stroke="#503E00" stroke-width="2" stroke-linecap="round" stroke-linejoin="round"/>
<path d="M24.442 25.1963H24.451" stroke="#503E00" stroke-width="2" stroke-linecap="round" stroke-linejoin="round"/>
<path d="M20.005 25.1963H20.014" stroke="#503E00" stroke-width="2" stroke-linecap="round" stroke-linejoin="round"/>
<path d="M15.5579 25.1963H15.5672" stroke="#503E00" stroke-width="2" stroke-linecap="round" stroke-linejoin="round"/>
<path fill-rule="evenodd" clip-rule="evenodd" d="M24.238 11.5791H15.771C12.8343 11.5791 11 13.2151 11 16.2221V25.2721C11 28.3261 12.8343 30.0001 15.771 30.0001H24.229C27.175 30.0001 29 28.3551 29 25.3471V16.2221C29.009 13.2151 27.184 11.5791 24.238 11.5791Z" stroke="#503E00" stroke-width="1.5" stroke-linecap="round" stroke-linejoin="round"/>
<path d="M24.044 10V13.291" stroke="#503E00" stroke-width="1.5" stroke-linecap="round" stroke-linejoin="round"/>
<path d="M15.9655 10V13.291" stroke="#503E00" stroke-width="1.5" stroke-linecap="round" stroke-linejoin="round"/>
</svg>
