<svg width="18" height="18" viewBox="0 0 18 18" fill="none" xmlns="http://www.w3.org/2000/svg">
<path d="M5.94 7.15891L11.68 3.87891" stroke="#EFD677" stroke-linecap="round" stroke-linejoin="round"/>
<path d="M5.94 10.4395L11.68 13.7205" stroke="#EFD677" stroke-linecap="round" stroke-linejoin="round"/>
<path d="M3.48004 11.2598C4.83904 11.2598 5.94003 10.1589 5.94003 8.79985C5.94003 7.44085 4.83904 6.33984 3.48004 6.33984C2.12104 6.33984 1.02002 7.44085 1.02002 8.79985C1.02002 10.1589 2.12104 11.2598 3.48004 11.2598Z" stroke="#EFD677" stroke-linecap="round" stroke-linejoin="round"/>
<path d="M14.141 5.51961C15.499 5.51961 16.601 4.4176 16.601 3.0596C16.601 1.7006 15.499 0.599609 14.141 0.599609C12.782 0.599609 11.68 1.7006 11.68 3.0596C11.68 4.4176 12.782 5.51961 14.141 5.51961Z" stroke="#EFD677" stroke-linecap="round" stroke-linejoin="round"/>
<path d="M14.141 17.0001C15.499 17.0001 16.601 15.8991 16.601 14.5401C16.601 13.1821 15.499 12.0801 14.141 12.0801C12.782 12.0801 11.68 13.1821 11.68 14.5401C11.68 15.8991 12.782 17.0001 14.141 17.0001Z" stroke="#EFD677" stroke-linecap="round" stroke-linejoin="round"/>
</svg>
