<svg width="40" height="40" viewBox="0 0 40 40" fill="none" xmlns="http://www.w3.org/2000/svg">
<path fill-rule="evenodd" clip-rule="evenodd" d="M0 20C0 5.001 5.001 0 20 0C34.999 0 40 5.001 40 20C40 34.999 34.999 40 20 40C5.001 40 0 34.999 0 20Z" fill="#D9C172"/>
<path d="M29.639 22.3957H25.591C24.104 22.3947 22.899 21.1907 22.898 19.7037C22.898 18.2177 24.104 17.0137 25.591 17.0127H29.639" stroke="#503E00" stroke-width="1.5" stroke-linecap="round" stroke-linejoin="round"/>
<path d="M26.049 19.6426H25.737" stroke="#503E00" stroke-width="1.5" stroke-linecap="round" stroke-linejoin="round"/>
<path fill-rule="evenodd" clip-rule="evenodd" d="M15.748 11H24.391C27.289 11 29.639 13.35 29.639 16.248V23.425C29.639 26.323 27.289 28.672 24.391 28.672H15.748C12.85 28.672 10.5 26.323 10.5 23.425V16.248C10.5 13.35 12.85 11 15.748 11Z" stroke="#503E00" stroke-width="1.5" stroke-linecap="round" stroke-linejoin="round"/>
<path d="M15.036 15.5381H20.435" stroke="#503E00" stroke-width="1.5" stroke-linecap="round" stroke-linejoin="round"/>
</svg>
