<svg width="18" height="11" viewBox="0 0 18 11" fill="none" xmlns="http://www.w3.org/2000/svg">
<path fill-rule="evenodd" clip-rule="evenodd" d="M0 2.58524C0 2.03479 0.229598 1.50688 0.638286 1.11766C1.04697 0.728431 1.60127 0.509766 2.17925 0.509766H10.3514C10.88 0.509706 11.3906 0.692607 11.7881 1.02441C12.1856 1.35621 12.4429 1.81429 12.5121 2.31335L15.9009 0.879199C16.0667 0.808812 16.2484 0.77902 16.4295 0.792534C16.6105 0.806047 16.7851 0.862436 16.9375 0.956576C17.0898 1.05072 17.215 1.17962 17.3017 1.33157C17.3884 1.48353 17.4339 1.65371 17.434 1.82665V9.57024C17.4338 9.74304 17.3883 9.91308 17.3017 10.0649C17.215 10.2167 17.0899 10.3456 16.9378 10.4397C16.7856 10.5338 16.6111 10.5902 16.4303 10.6038C16.2494 10.6175 16.0678 10.5878 15.902 10.5177L12.5121 9.08354C12.4429 9.5826 12.1856 10.0407 11.7881 10.3725C11.3906 10.7043 10.88 10.8872 10.3514 10.8871H2.17925C1.60127 10.8871 1.04697 10.6685 0.638286 10.2792C0.229598 9.89001 0 9.3621 0 8.81165V2.58524ZM12.5307 7.95552L16.3443 9.57024V1.82665L12.5307 3.44137V7.95552ZM2.17925 1.5475C1.89026 1.5475 1.61311 1.65683 1.40877 1.85145C1.20442 2.04606 1.08962 2.31001 1.08962 2.58524V8.81165C1.08962 9.08688 1.20442 9.35083 1.40877 9.54544C1.61311 9.74005 1.89026 9.84939 2.17925 9.84939H10.3514C10.6404 9.84939 10.9176 9.74005 11.1219 9.54544C11.3262 9.35083 11.441 9.08688 11.441 8.81165V2.58524C11.441 2.31001 11.3262 2.04606 11.1219 1.85145C10.9176 1.65683 10.6404 1.5475 10.3514 1.5475H2.17925Z" fill="#352364"/>
</svg>
