<svg width="18" height="20" viewBox="0 0 18 20" fill="none" xmlns="http://www.w3.org/2000/svg">
<path d="M8.75998 1.81909H10.8872C11.2544 1.81909 11.552 2.11108 11.552 2.47208V5.58908C11.552 8.47208 9.16638 10.8181 6.23388 10.8181C3.30138 10.8181 0.915771 8.47208 0.915771 5.58908V2.47208C0.915771 2.11108 1.21337 1.81909 1.58047 1.81909H3.66348" stroke="#503E00" stroke-linecap="round" stroke-linejoin="round"/>
<path d="M6.23389 10.8179V14.7679C6.23389 17.1019 8.25239 18.9999 10.7338 18.9999C13.215 18.9999 15.2338 17.1019 15.2338 14.7679V11.9069" stroke="#503E00" stroke-linecap="round" stroke-linejoin="round"/>
<path d="M15.0883 6.72803C13.8149 6.72803 12.7792 7.76304 12.7792 9.03604C12.7792 10.309 13.8149 11.345 15.0881 11.345C16.3613 11.345 17.3969 10.309 17.3971 9.03604C17.3971 7.76304 16.3613 6.72803 15.0883 6.72803Z" stroke="#503E00" stroke-linecap="round" stroke-linejoin="round"/>
<path d="M3.77942 2.63699V1" stroke="#503E00" stroke-linecap="round" stroke-linejoin="round"/>
<path d="M8.68842 2.63699V1" stroke="#503E00" stroke-linecap="round" stroke-linejoin="round"/>
</svg>
