<svg width="20" height="20" viewBox="0 0 20 20" fill="none" xmlns="http://www.w3.org/2000/svg">
<path d="M10 0.75C3.063 0.75 0.75 3.063 0.75 10C0.75 16.937 3.063 19.25 10 19.25C16.937 19.25 19.25 16.937 19.25 10" stroke="#D9C172" stroke-width="1.5" stroke-linecap="round" stroke-linejoin="round"/>
<path fill-rule="evenodd" clip-rule="evenodd" d="M17.528 2.30363C16.535 1.42463 15.018 1.51665 14.139 2.50965C14.139 2.50965 9.77004 7.44463 8.25504 9.15763C6.73804 10.8696 7.85004 13.2346 7.85004 13.2346C7.85004 13.2346 10.354 14.0276 11.848 12.3396C13.343 10.6516 17.734 5.69264 17.734 5.69264C18.613 4.69964 18.52 3.18263 17.528 2.30363Z" stroke="#D9C172" stroke-width="1.5" stroke-linecap="round" stroke-linejoin="round"/>
<path d="M13.009 3.80078L16.604 6.9838" stroke="#D9C172" stroke-width="1.5" stroke-linecap="round" stroke-linejoin="round"/>
</svg>
