<svg width="40" height="40" viewBox="0 0 40 40" fill="none" xmlns="http://www.w3.org/2000/svg">
<path fill-rule="evenodd" clip-rule="evenodd" d="M0 20C0 34.999 5.001 40 20 40C34.999 40 40 34.999 40 20C40 5.001 34.999 0 20 0C5.001 0 0 5.001 0 20Z" fill="#D9C172"/>
<path fill-rule="evenodd" clip-rule="evenodd" d="M10.75 20C10.75 26.937 13.063 29.25 20 29.25C26.937 29.25 29.25 26.937 29.25 20C29.25 13.063 26.937 10.75 20 10.75C13.063 10.75 10.75 13.063 10.75 20Z" fill="#503E00" stroke="#503E00" stroke-width="1.5" stroke-linecap="round" stroke-linejoin="round"/>
<path d="M19.9971 16.6035V23.3805" stroke="white" stroke-width="1.5" stroke-linecap="round" stroke-linejoin="round"/>
<path d="M23.394 19.9932H16.606" stroke="white" stroke-width="1.5" stroke-linecap="round" stroke-linejoin="round"/>
</svg>
