<svg width="19" height="20" viewBox="0 0 19 20" fill="none" xmlns="http://www.w3.org/2000/svg">
<path d="M16.325 7.46777C16.325 7.46777 15.782 14.2028 15.467 17.0398C15.317 18.3948 14.48 19.1888 13.109 19.2138C10.5 19.2608 7.88803 19.2638 5.28003 19.2088C3.96103 19.1818 3.13803 18.3778 2.99103 17.0468C2.67403 14.1848 2.13403 7.46777 2.13403 7.46777" stroke="#DE3541" stroke-width="1.5" stroke-linecap="round" stroke-linejoin="round"/>
<path d="M17.708 4.23926H0.75" stroke="#DE3541" stroke-width="1.5" stroke-linecap="round" stroke-linejoin="round"/>
<path d="M14.4411 4.23949C13.6561 4.23949 12.98 3.68449 12.826 2.91549L12.5831 1.69949C12.4331 1.13849 11.9251 0.750488 11.3461 0.750488H7.11307C6.53407 0.750488 6.02607 1.13849 5.87607 1.69949L5.63306 2.91549C5.47906 3.68449 4.80307 4.23949 4.01807 4.23949" stroke="#DE3541" stroke-width="1.5" stroke-linecap="round" stroke-linejoin="round"/>
</svg>
