<svg width="40" height="40" viewBox="0 0 40 40" fill="none" xmlns="http://www.w3.org/2000/svg">
<path fill-rule="evenodd" clip-rule="evenodd" d="M0 20C0 5.001 5.001 0 20 0C34.999 0 40 5.001 40 20C40 34.999 34.999 40 20 40C5.001 40 0 34.999 0 20Z" fill="#D9C172"/>
<path d="M24.4765 15.9316L20.8648 19.4822C20.4752 19.2945 20.0318 19.2506 19.6129 19.3582C19.1941 19.4658 18.8268 19.7181 18.5759 20.0703C18.325 20.4225 18.2067 20.8521 18.2419 21.2831C18.2771 21.7141 18.4635 22.1188 18.7682 22.4257C19.0729 22.7325 19.4763 22.9218 19.9071 22.96C20.3378 22.9983 20.7682 22.883 21.1222 22.6346C21.4762 22.3863 21.731 22.0207 21.8416 21.6027C21.9521 21.1846 21.9114 20.7409 21.7265 20.35L25.3442 16.7994L24.4765 15.9316Z" fill="#6A5715"/>
<path d="M20.0888 11C18.1654 10.9978 16.2816 11.5461 14.6599 12.58C13.0381 13.614 11.7461 15.0905 10.9364 16.8351C10.1268 18.5797 9.83327 20.5196 10.0906 22.4256C10.348 24.3317 11.1454 26.1243 12.3888 27.5917L12.5721 27.8056H27.6054L27.7888 27.5917C29.0321 26.1243 29.8296 24.3317 30.0869 22.4256C30.3443 20.5196 30.0508 18.5797 29.2411 16.8351C28.4315 15.0905 27.1395 13.614 25.5177 12.58C23.8959 11.5461 22.0121 10.9978 20.0888 11V11ZM27.0188 26.5833H13.1588C12.0622 25.2112 11.4005 23.5429 11.2582 21.7922H13.3666V20.57H11.2582C11.3606 18.6296 12.1018 16.7775 13.3666 15.3022L14.8638 16.7995L15.7254 15.9378L14.2404 14.4345C15.6969 13.1472 17.5383 12.3779 19.4777 12.2467V14.3856H20.6999V12.2528C22.8421 12.4081 24.8546 13.3379 26.3615 14.8684C27.8684 16.3989 28.7667 18.4256 28.8888 20.57H26.7621V21.7922H28.9193C28.7771 23.5429 28.1153 25.2112 27.0188 26.5833V26.5833Z" fill="#6D5A18"/>
</svg>
