<svg width="40" height="40" viewBox="0 0 40 40" fill="none" xmlns="http://www.w3.org/2000/svg">
<path fill-rule="evenodd" clip-rule="evenodd" d="M0 20C0 5.001 5.0011 0 20 0C34.999 0 40 5.001 40 20C40 34.999 34.999 40 20 40C5.0011 40 0 34.999 0 20Z" fill="#D9C172"/>
<path fill-rule="evenodd" clip-rule="evenodd" d="M24.686 10H15.3143C12.0476 10 10 12.312 10 15.585V24.415C10 27.688 12.0381 30 15.3143 30H24.686C27.962 30 30 27.688 30 24.415V15.585C30 12.312 27.962 10 24.686 10Z" stroke="#503E00" stroke-width="1.5" stroke-linecap="round" stroke-linejoin="round"/>
<path d="M15.3714 18.2021V25.0622" stroke="#503E00" stroke-width="1.5" stroke-linecap="round" stroke-linejoin="round"/>
<path d="M20.038 14.9189V25.062" stroke="#503E00" stroke-width="1.5" stroke-linecap="round" stroke-linejoin="round"/>
<path d="M24.629 21.8271V25.0622" stroke="#503E00" stroke-width="1.5" stroke-linecap="round" stroke-linejoin="round"/>
</svg>
