<svg width="116" height="30" viewBox="0 0 116 30" fill="none" xmlns="http://www.w3.org/2000/svg">
<path d="M32.8599 23.5674V14.3433H31.162V12.0957H32.8599V11.5655C32.874 10.1237 33.3134 9.01387 34.1782 8.23637C35.0501 7.45187 36.2768 7.05957 37.8591 7.05957C38.8082 7.05957 39.9613 7.26807 41.3181 7.68507L40.8751 10.2191C40.1864 10.0141 39.6521 9.88327 39.2722 9.82677C38.8926 9.76317 38.4848 9.73127 38.0487 9.73127C36.6285 9.73127 35.9184 10.3639 35.9184 11.6292V12.0957H38.1647V14.3433H35.9184V23.5674H32.8599ZM42.742 23.5674H39.6836V12.0957H42.742V23.5674Z" fill="white"/>
<path d="M51.6747 14.9691C51.26 14.9125 50.8946 14.8842 50.5778 14.8842C49.4251 14.8842 48.6689 15.2765 48.3104 16.0611V23.5675H45.2625V12.0958H48.1418L48.2263 13.4635C48.8378 12.4103 49.685 11.8838 50.7681 11.8838C51.1056 11.8838 51.4217 11.9297 51.7172 12.0216L51.6747 14.9691Z" fill="white"/>
<path d="M59.3318 20.3974C59.3318 20.0228 59.1455 19.7295 58.7725 19.5175C58.4071 19.2983 57.8166 19.1039 57.0006 18.9343C54.2869 18.3617 52.9301 17.2026 52.9301 15.4567C52.9301 14.4389 53.3484 13.5908 54.185 12.9122C55.0286 12.2266 56.1291 11.8838 57.486 11.8838C58.9342 11.8838 60.0909 12.2266 60.9558 12.9122C61.8276 13.5978 62.2637 14.4884 62.2637 15.584H59.2158C59.2158 15.1458 59.0752 14.7853 58.7939 14.5025C58.5126 14.2128 58.0732 14.0678 57.4755 14.0678C56.9622 14.0678 56.5652 14.1845 56.2836 14.4177C56.0026 14.651 55.862 14.9479 55.862 15.3083C55.862 15.6476 56.0204 15.9233 56.3365 16.1353C56.6598 16.3403 57.2014 16.5206 57.9605 16.676C58.7199 16.8245 59.3597 16.9941 59.8799 17.1849C61.4902 17.7787 62.2953 18.8071 62.2953 20.2702C62.2953 21.3163 61.8487 22.1645 60.9558 22.8147C60.063 23.458 58.9099 23.7796 57.4965 23.7796C56.5406 23.7796 55.6898 23.6099 54.9445 23.2706C54.2061 22.9243 53.6261 22.4543 53.2041 21.8606C52.7825 21.2598 52.5716 20.613 52.5716 19.9203H55.461C55.4893 20.4646 55.6898 20.8816 56.0621 21.1714C56.4347 21.4612 56.9342 21.6061 57.5599 21.6061C58.1435 21.6061 58.5829 21.4965 58.8783 21.2774C59.1807 21.0512 59.3318 20.7579 59.3318 20.3974Z" fill="white"/>
<path d="M67.9169 9.27588V12.0961H69.8675V14.3437H67.9169V20.069C67.9169 20.4931 67.9977 20.797 68.1594 20.9808C68.3211 21.1646 68.6299 21.2565 69.0874 21.2565C69.4249 21.2565 69.7236 21.2317 69.9835 21.1822V23.5042C69.3861 23.6879 68.7706 23.7798 68.138 23.7798C66.0007 23.7798 64.9111 22.6948 64.8687 20.5249V14.3437H63.2022V12.0961H64.8687V9.27588H67.9169Z" fill="white"/>
<path d="M81.838 17.9377C81.838 19.7047 81.437 21.1219 80.636 22.1892C79.841 23.2494 78.765 23.7796 77.409 23.7796C76.255 23.7796 75.3239 23.3767 74.6134 22.5709V27.9781H71.5658V12.0958H74.3923L74.4974 13.2197C75.2358 12.329 76.199 11.8838 77.388 11.8838C78.794 11.8838 79.887 12.4068 80.667 13.4529C81.448 14.499 81.838 15.9409 81.838 17.7787V17.9377ZM78.79 17.7151C78.79 16.6477 78.601 15.8243 78.221 15.2447C77.848 14.6651 77.303 14.3754 76.586 14.3754C75.6295 14.3754 74.9723 14.7428 74.6134 15.478V20.1748C74.9864 20.9311 75.6509 21.3092 76.607 21.3092C78.062 21.3092 78.79 20.1112 78.79 17.7151Z" fill="white"/>
<path d="M90.349 23.5675C90.208 23.2919 90.107 22.949 90.044 22.5391C89.305 23.3661 88.345 23.7796 87.164 23.7796C86.046 23.7796 85.118 23.4544 84.379 22.8042C83.649 22.1538 83.283 21.334 83.283 20.3444C83.283 19.1287 83.73 18.1957 84.622 17.5454C85.522 16.8951 86.819 16.5664 88.514 16.5594H89.917V15.902C89.917 15.3719 89.78 14.9479 89.505 14.6298C89.238 14.3117 88.813 14.1527 88.229 14.1527C87.716 14.1527 87.312 14.2764 87.016 14.5238C86.728 14.7712 86.584 15.1104 86.584 15.5416H83.536C83.536 14.8772 83.74 14.2622 84.147 13.6968C84.555 13.1313 85.132 12.6895 85.878 12.3715C86.623 12.0463 87.459 11.8838 88.388 11.8838C89.794 11.8838 90.908 12.2408 91.731 12.9546C92.56 13.6614 92.975 14.6581 92.975 15.9444V20.917C92.982 22.0055 93.134 22.8289 93.429 23.3873V23.5675H90.349ZM87.828 21.4365C88.279 21.4365 88.693 21.3375 89.073 21.1396C89.453 20.9346 89.734 20.6625 89.917 20.3232V18.3512H88.778C87.252 18.3512 86.44 18.8813 86.342 19.9415L86.331 20.1218C86.331 20.5035 86.464 20.818 86.731 21.0654C86.999 21.3128 87.364 21.4365 87.828 21.4365Z" fill="white"/>
<path d="M101.497 20.3974C101.497 20.0228 101.31 19.7295 100.938 19.5175C100.572 19.2983 99.982 19.1039 99.166 18.9343C96.452 18.3617 95.095 17.2026 95.095 15.4567C95.095 14.4389 95.513 13.5908 96.35 12.9122C97.194 12.2266 98.294 11.8838 99.651 11.8838C101.099 11.8838 102.256 12.2266 103.121 12.9122C103.993 13.5978 104.429 14.4884 104.429 15.584H101.381C101.381 15.1458 101.24 14.7853 100.959 14.5025C100.678 14.2128 100.239 14.0678 99.641 14.0678C99.127 14.0678 98.73 14.1845 98.449 14.4177C98.168 14.651 98.027 14.9479 98.027 15.3083C98.027 15.6476 98.185 15.9233 98.502 16.1353C98.825 16.3403 99.366 16.5206 100.126 16.676C100.885 16.8245 101.525 16.9941 102.045 17.1849C103.655 17.7787 104.46 18.8071 104.46 20.2702C104.46 21.3163 104.014 22.1645 103.121 22.8147C102.228 23.458 101.075 23.7796 99.662 23.7796C98.706 23.7796 97.855 23.6099 97.109 23.2706C96.371 22.9243 95.791 22.4543 95.369 21.8606C94.947 21.2598 94.736 20.613 94.736 19.9203H97.626C97.654 20.4646 97.855 20.8816 98.227 21.1714C98.6 21.4612 99.099 21.6061 99.725 21.6061C100.309 21.6061 100.748 21.4965 101.043 21.2774C101.346 21.0512 101.497 20.7579 101.497 20.3974Z" fill="white"/>
<path d="M112.613 20.3974C112.613 20.0228 112.426 19.7295 112.054 19.5175C111.688 19.2983 111.098 19.1039 110.282 18.9343C107.568 18.3617 106.211 17.2026 106.211 15.4567C106.211 14.4389 106.629 13.5908 107.466 12.9122C108.31 12.2266 109.41 11.8838 110.767 11.8838C112.216 11.8838 113.373 12.2266 114.237 12.9122C115.109 13.5978 115.545 14.4884 115.545 15.584H112.497C112.497 15.1458 112.357 14.7853 112.075 14.5025C111.794 14.2128 111.354 14.0678 110.757 14.0678C110.243 14.0678 109.846 14.1845 109.565 14.4177C109.284 14.651 109.143 14.9479 109.143 15.3083C109.143 15.6476 109.301 15.9233 109.617 16.1353C109.941 16.3403 110.482 16.5206 111.241 16.676C112.001 16.8245 112.641 16.9941 113.161 17.1849C114.771 17.7787 115.576 18.8071 115.576 20.2702C115.576 21.3163 115.13 22.1645 114.237 22.8147C113.344 23.458 112.191 23.7796 110.777 23.7796C109.822 23.7796 108.971 23.6099 108.225 23.2706C107.487 22.9243 106.907 22.4543 106.485 21.8606C106.064 21.2598 105.853 20.613 105.853 19.9203H108.742C108.77 20.4646 108.971 20.8816 109.343 21.1714C109.716 21.4612 110.215 21.6061 110.841 21.6061C111.425 21.6061 111.864 21.4965 112.159 21.2774C112.462 21.0512 112.613 20.7579 112.613 20.3974Z" fill="white"/>
<path d="M12.7566 27.0117L4.3014 16.0756C2.6524 13.6851 4.2663 11.6832 5.81 9.6812L11.7743 3.9442C13.0724 2.0617 12.2196 0.7769 11.2373 0C9.0621 2.4203 6.3957 4.4521 4.1152 6.7529C2.6417 8.3665 1.1331 9.9202 0.4665 11.6832C-0.2703 13.8345 -0.235199 15.5974 1.3085 17.5695L7.5885 25.6969C9.2024 27.5794 11.1427 27.43 12.7566 27.0117Z" fill="#FFC534"/>
<path d="M10.6584 16.4157L19.1266 7.74967C20.8202 10.5988 20.5455 12.8939 19.035 14.1998L12.6725 20.0562L19.7216 29.751C22.0103 28.643 21.2779 26.4667 19.9962 24.7651L17.021 20.4519C19.5843 17.8798 23.1546 15.5847 23.7497 11.7859C24.2074 8.18497 21.7814 4.50487 19.3096 2.44727L10.9789 10.6779C7.13389 14.4371 10.6596 16.5868 10.6584 16.4157Z" fill="#2FB6BD"/>
</svg>
