<svg width="40" height="40" viewBox="0 0 40 40" fill="none" xmlns="http://www.w3.org/2000/svg">
<path fill-rule="evenodd" clip-rule="evenodd" d="M0 20C0 5.001 5.001 0 20 0C34.999 0 40 5.001 40 20C40 34.999 34.999 40 20 40C5.001 40 0 34.999 0 20Z" fill="#D9C172"/>
<path d="M29.791 20.1211H17.75" stroke="#503E00" stroke-width="1.5" stroke-linecap="round" stroke-linejoin="round"/>
<path d="M26.864 17.2051L29.792 20.121L26.864 23.037" stroke="#503E00" stroke-width="1.5" stroke-linecap="round" stroke-linejoin="round"/>
<path d="M24.36 15.63C24.03 12.05 22.69 10.75 17.36 10.75C10.259 10.75 10.259 13.06 10.259 20C10.259 26.94 10.259 29.25 17.36 29.25C22.69 29.25 24.03 27.95 24.36 24.37" stroke="#503E00" stroke-width="1.5" stroke-linecap="round" stroke-linejoin="round"/>
</svg>
