<svg width="58" height="58" viewBox="0 0 58 58" fill="none" xmlns="http://www.w3.org/2000/svg">
<path d="M22 29H36" stroke="#14181A" stroke-width="2" stroke-linecap="round" stroke-linejoin="round"/>
<path d="M29 36L36 29L29 22" stroke="#14181A" stroke-width="2" stroke-linecap="round" stroke-linejoin="round"/>
<path d="M29 57C44.464 57 57 44.464 57 29C57 13.536 44.464 1 29 1C13.536 1 1 13.536 1 29C1 44.464 13.536 57 29 57Z" fill="#14181A" stroke="#B3913C" stroke-width="2" stroke-linecap="round"/>
<path d="M28.9999 1C44.4639 1 56.9999 13.536 56.9999 29C56.9999 44.464 44.4639 57 28.9999 57C17.0589 57 6.86387 49.525 2.83887 39" stroke="#F2F2F2" stroke-width="2" stroke-linecap="round"/>
<path d="M29 53C42.2548 53 53 42.2548 53 29C53 15.7452 42.2548 5 29 5C15.7452 5 5 15.7452 5 29C5 42.2548 15.7452 53 29 53Z" fill="url(#paint0_linear)"/>
<path d="M22 29H36" stroke="#14181A" stroke-width="2" stroke-linecap="round" stroke-linejoin="round"/>
<path d="M29 36L36 29L29 22" stroke="#14181A" stroke-width="2" stroke-linecap="round" stroke-linejoin="round"/>
<defs>
<linearGradient id="paint0_linear" x1="29" y1="5" x2="29" y2="53" gradientUnits="userSpaceOnUse">
<stop stop-color="#B3913C"/>
<stop offset="0.72739" stop-color="#F4DE8B"/>
</linearGradient>
</defs>
</svg>
