<svg width="41" height="49" viewBox="0 0 41 49" fill="none" xmlns="http://www.w3.org/2000/svg">
<path fill-rule="evenodd" clip-rule="evenodd" d="M20.475 46.7311C33.392 36.5261 39.437 26.7731 38.612 17.4711C37.786 8.16913 31.741 2.96912 20.475 1.87012C9.16397 3.66512 3.00297 8.86513 1.99197 17.4711C0.979971 26.0771 7.14097 35.8311 20.475 46.7311Z" fill="#B3913C"/>
<path d="M33.475 20.4722C33.475 13.3042 27.643 7.47217 20.475 7.47217C13.306 7.47217 7.47498 13.3042 7.47498 20.4722C7.47498 27.6402 13.306 33.4722 20.475 33.4722C27.643 33.4722 33.475 27.6402 33.475 20.4722ZM10.566 20.4722C10.566 15.0082 15.011 10.5632 20.475 10.5632C25.938 10.5632 30.384 15.0082 30.384 20.4722C30.384 25.9362 25.938 30.3812 20.475 30.3812C15.011 30.3812 10.566 25.9362 10.566 20.4722Z" fill="#503E00"/>
<path d="M21.997 25.4722V21.9942H25.475V18.9492H21.997V15.4722H18.952V18.9492H15.475V21.9942H18.952V25.4722H21.997Z" fill="#503E00"/>
<path d="M28.425 41.9132C29.217 41.1262 30.035 40.2782 30.855 39.3782C33.612 36.3512 35.815 33.3662 37.403 30.5072C39.441 26.8352 40.475 23.3422 40.475 20.1242C40.475 9.28816 31.503 0.472168 20.475 0.472168C9.44698 0.472168 0.474976 9.28816 0.474976 20.1242C0.474976 23.3422 1.50797 26.8352 3.54697 30.5072C5.13397 33.3662 7.33697 36.3512 10.095 39.3782C10.914 40.2772 11.732 41.1252 12.524 41.9132C15.703 44.9432 15.993 45.1732 20.475 48.7782C25.08 45.1092 25.802 44.3742 28.425 41.9132ZM3.57497 20.1242C3.57497 10.9682 11.156 3.51918 20.475 3.51918C29.793 3.51918 37.374 10.9682 37.374 20.1242C37.374 30.5652 24.152 41.9512 20.475 44.9152C16.797 41.9512 3.57497 30.5652 3.57497 20.1242ZM15.46 44.6842C18.725 47.5562 18.988 47.6452 20.475 48.7782C22.028 47.5972 22.208 47.5642 25.489 44.6842C28.236 44.8932 12.713 44.8932 15.46 44.6842Z" fill="#B3913C"/>
</svg>
