<svg width="72" height="9" viewBox="0 0 72 9" fill="none" xmlns="http://www.w3.org/2000/svg">
<path d="M25.5 0H4.5C2.01472 0 0 2.01472 0 4.5C0 6.98528 2.01472 9 4.5 9H25.5C27.9853 9 30 6.98528 30 4.5C30 2.01472 27.9853 0 25.5 0Z" fill="#D9C172"/>
<path d="M46.5 0H42.5C40.0147 0 38 2.01472 38 4.5C38 6.98528 40.0147 9 42.5 9H46.5C48.9853 9 51 6.98528 51 4.5C51 2.01472 48.9853 0 46.5 0Z" fill="#F2F2F2"/>
<path d="M67.5 0H63.5C61.0147 0 59 2.01472 59 4.5C59 6.98528 61.0147 9 63.5 9H67.5C69.9853 9 72 6.98528 72 4.5C72 2.01472 69.9853 0 67.5 0Z" fill="#F2F2F2"/>
</svg>
