<svg width="183" height="172" viewBox="0 0 183 172" fill="none" xmlns="http://www.w3.org/2000/svg">
<path d="M60.233 53.4238L0 67.5598L90.487 94.4238L60.233 53.4238Z" fill="#D9C172"/>
<path d="M59.772 53.7639L89.699 94.4339L89.702 0.0439453L59.772 53.7639Z" fill="#CCB056"/>
<path d="M42.982 111.54L90.487 94.4241L0 67.5601L42.982 111.54Z" fill="#CCB056"/>
<path d="M42.7651 110.681L90.3241 93.7148L37.5181 171.952L42.7651 110.681Z" fill="#D9C172"/>
<path d="M90.3241 145.08L37.5181 171.952L90.3241 93.7148V145.08Z" fill="#CCB056"/>
<path d="M89.699 145.08L142.17 171.952L89.364 93.7148L89.699 145.08Z" fill="#B3913C"/>
<path d="M136.244 111.54L88.739 94.4241L179.226 67.5601L136.244 111.54Z" fill="#B3913C"/>
<path d="M118.993 53.4238L179.226 67.5598L88.739 94.4238L118.993 53.4238Z" fill="#D6B95D"/>
<path d="M120.394 53.7639L89.702 0.0439453L89.699 94.4339L120.394 53.7639Z" fill="#D9C172"/>
<path d="M136.923 110.681L89.364 93.7148L142.17 171.952L136.923 110.681Z" fill="#D6B95D"/>
<g opacity="0.6">
<path opacity="0.6" d="M22.5 29.5H15V34.5H22.5V29.5Z" fill="#D9C172"/>
<path opacity="0.6" d="M27.5 29.5V22H22.5V29.5H27.5Z" fill="#D9C172"/>
<path opacity="0.6" d="M35 29.5H27.5V34.5H35V29.5Z" fill="#D9C172"/>
<path opacity="0.6" d="M27.5 42V34.5H22.5V42H27.5Z" fill="#D9C172"/>
</g>
<g opacity="0.8">
<path opacity="0.8" d="M170.5 152.5H163V157.5H170.5V152.5Z" fill="#D9C172"/>
<path opacity="0.8" d="M175.5 152.5V145H170.5V152.5H175.5Z" fill="#D9C172"/>
<path opacity="0.8" d="M183 152.5H175.5V157.5H183V152.5Z" fill="#D9C172"/>
<path opacity="0.8" d="M175.5 165V157.5H170.5V165H175.5Z" fill="#D9C172"/>
</g>
<g opacity="0.7">
<path opacity="0.7" d="M11.5 139.5H4V144.5H11.5V139.5Z" fill="#D9C172"/>
<path opacity="0.7" d="M16.5 139.5V132H11.5V139.5H16.5Z" fill="#D9C172"/>
<path opacity="0.7" d="M24 139.5H16.5V144.5H24V139.5Z" fill="#D9C172"/>
<path opacity="0.7" d="M16.5 152V144.5H11.5V152H16.5Z" fill="#D9C172"/>
</g>
</svg>
