<svg width="40" height="40" viewBox="0 0 40 40" fill="none" xmlns="http://www.w3.org/2000/svg">
<path fill-rule="evenodd" clip-rule="evenodd" d="M0 20C0 5.001 5.001 0 20 0C34.999 0 40 5.001 40 20C40 34.999 34.999 40 20 40C5.001 40 0 34.999 0 20Z" fill="#D9C172"/>
<path d="M19.611 29.222C24.919 29.222 29.222 24.919 29.222 19.611C29.222 14.303 24.919 10 19.611 10C14.303 10 10 14.303 10 19.611C10 24.919 14.303 29.222 19.611 29.222Z" stroke="#503E00" stroke-width="1.5" stroke-linecap="round" stroke-linejoin="round"/>
<path fill-rule="evenodd" clip-rule="evenodd" d="M16.27 22.9515L17.863 17.8625L22.952 16.2695L21.359 21.3586L16.27 22.9515Z" stroke="#503E00" stroke-width="1.5" stroke-linecap="round" stroke-linejoin="round"/>
</svg>
