<svg width="303" height="368" viewBox="0 0 303 368" fill="none" xmlns="http://www.w3.org/2000/svg">
<path opacity="0.1" d="M260.994 262.92L148.399 264.089C141.99 264.089 136.862 259.644 136.862 252.366V31.038C136.862 23.76 142.054 17.869 148.457 17.869H254.758C261.167 17.869 266.353 23.77 266.353 31.038V256.84C266.353 260.206 263.952 262.92 260.994 262.92Z" fill="#E0D7B8"/>
<path opacity="0.5" d="M259.857 1.16101H143.368C138.302 1.16101 134.196 5.276 134.196 10.353V253.936C134.196 259.013 138.302 263.129 143.368 263.129H259.857C264.922 263.129 269.029 259.013 269.029 253.936V10.353C269.029 5.276 264.922 1.16101 259.857 1.16101Z" stroke="#D9C172" stroke-miterlimit="10" stroke-linecap="round" stroke-linejoin="round"/>
<path d="M151.059 220.898L153.876 263.097L197.686 263.139L197.959 250.843L204.205 263.139H249.822L248.794 218.229C248.794 218.229 183.925 226.525 151.059 220.898Z" fill="#2FB6BD"/>
<path d="M44.2522 289.175C44.2522 289.175 49.1748 287.617 51.745 283.374C54.3153 279.131 63.1542 270.343 63.1542 270.343L66.708 264.138H36.0254L44.2522 289.175Z" fill="#FDC0AE"/>
<path d="M68.606 191.072H35.6665C33.6345 191.072 31.9873 192.723 31.9873 194.759V263.068C31.9873 265.105 33.6345 266.755 35.6665 266.755H68.606C70.638 266.755 72.285 265.105 72.285 263.068V194.759C72.285 192.723 70.638 191.072 68.606 191.072Z" fill="white"/>
<path d="M31.9521 197.162H72.32" stroke="#FDC0AE" stroke-miterlimit="10" stroke-linecap="round" stroke-linejoin="round"/>
<path d="M72.32 197.162H31.9521L31.9841 262.821C31.985 263.864 32.3989 264.864 33.1349 265.602C33.871 266.34 34.8691 266.755 35.91 266.755H68.426C68.942 266.755 69.453 266.654 69.929 266.456C70.406 266.258 70.839 265.968 71.203 265.602C71.568 265.236 71.857 264.802 72.054 264.324C72.251 263.846 72.352 263.335 72.352 262.818L72.32 197.162Z" stroke="#FDC0AE" stroke-miterlimit="10" stroke-linecap="round" stroke-linejoin="round"/>
<path d="M5.38409 301.557C5.38409 301.557 14.9729 291.009 17.4502 277.596C17.4502 277.596 16.9567 252.966 20.1808 246.761C23.4048 240.555 40.7172 228.848 42.0312 228.247C42.0312 228.848 45.4956 232.4 42.6273 237.067C39.759 241.734 35.5735 244.233 36.0606 249.607C36.3811 253.198 36.8042 257.855 35.3524 260.983C35.008 261.784 34.4804 262.492 33.8123 263.05C33.1441 263.608 32.3542 264 31.5066 264.195C32.4937 263.874 34.3909 261.443 36.285 262.519C38.179 263.595 52.6712 278.742 50.0433 289.152C47.4153 299.562 41.2717 325.798 41.2717 325.798C41.2717 325.798 36.4869 331.701 26.0135 330.43C16.6074 329.286 9.20099 329.835 9.20099 323.289L5.38409 301.557Z" fill="#FDC0AE"/>
<path d="M72.355 214.339C72.355 214.339 81.97 205.314 86.614 203.807C91.257 202.301 90.216 205.914 86.614 210.873C83.011 215.833 72.355 226.969 72.355 226.969V214.339Z" fill="#FDC0AE"/>
<path d="M74.329 225.141C74.329 225.141 77.81 225.88 76.294 227.63C74.778 229.381 63.7087 236.508 62.6575 240.247C61.6063 243.986 64.641 245.046 67.67 243.931C70.698 242.817 85.267 236.993 85.966 234.822C86.665 232.651 87.569 224.942 81.63 225.086C77.999 225.173 74.329 225.141 74.329 225.141Z" fill="#FDC0AE"/>
<path d="M79.941 238.721C79.941 238.721 63.2247 250.535 62.1158 254.033C61.007 257.531 62.8273 257.691 64.654 257.531C66.481 257.37 88.049 247.753 88.049 243.539C88.049 239.325 84.928 237.08 79.941 238.721Z" fill="#FDC0AE"/>
<path d="M86.069 254.605C87.745 258.722 84.309 261.327 81.037 264.019C77.765 266.71 68.461 270.163 66.449 270.321C64.436 270.478 62.087 269.816 63.6798 266.119C65.273 262.422 77.781 254.017 77.781 254.017C78.997 252.916 80.459 252.124 82.043 251.707C85.489 250.891 86.069 254.605 86.069 254.605Z" fill="#FDC0AE"/>
<path d="M36.0607 249.607C36.0607 249.607 39.5668 260.967 29.4844 266.755" stroke="#EA917D" stroke-miterlimit="10" stroke-linecap="round" stroke-linejoin="round"/>
<path d="M34.519 262.609C34.519 262.609 38.3873 261.038 44.2521 273.372" stroke="#EA917D" stroke-miterlimit="10" stroke-linecap="round" stroke-linejoin="round"/>
<path d="M77.624 226.975C77.624 226.975 61.5166 237.485 62.446 242.714C62.446 244.339 64.946 245.059 66.708 244.339" stroke="#EA917D" stroke-linecap="round" stroke-linejoin="round"/>
<path d="M79.38 239.12C79.38 239.12 60.4718 251.595 61.4332 255.668C61.4332 257.293 63.933 258.012 65.696 257.293" stroke="#EA917D" stroke-linecap="round" stroke-linejoin="round"/>
<path d="M80.8 251.89C80.8 251.89 61.8915 264.366 62.853 268.438C62.853 270.064 65.353 270.786 67.112 270.064" stroke="#EA917D" stroke-linecap="round" stroke-linejoin="round"/>
<path d="M31.9521 286.866C31.9521 286.866 47.1654 294.651 52.1425 282.754" stroke="#222430" stroke-miterlimit="10" stroke-linecap="round" stroke-linejoin="round"/>
<path d="M183.274 102.457C183.274 102.457 198.202 120.042 217.886 104.091C217.886 106.696 212.563 223.596 212.563 223.596H181.476L183.274 102.457Z" fill="#E98600"/>
<path d="M204.234 171.771C203.859 170.807 207.214 171.829 209.775 171.996C223.161 172.873 242.724 161.798 244.736 167.332C246.297 171.617 251.306 246.221 252.559 253.182C253.357 257.608 223.024 263.492 209.486 261.854C209.486 261.86 206.278 177.016 204.234 171.771Z" fill="white"/>
<path d="M191.623 173.55C174.358 176.441 146.351 181.902 146.351 181.902C146.351 181.902 147.364 198.283 147.771 207C148.178 215.717 145.65 263.126 145.65 263.126C145.65 263.126 160.299 259.345 186.543 262.137C186.543 262.137 190.876 250.667 192.767 187.596C192.873 184.082 191.623 173.55 191.623 173.55Z" fill="white"/>
<path d="M177.243 56.863C177.243 56.863 173.951 59.195 174.797 63.132C175.643 67.07 180.22 70.218 183.274 68.773C183.274 68.773 185.024 78.926 186.043 80.821C187.062 82.716 191.629 87.996 200.327 88.433C209.025 88.87 215.417 83.136 216.5 78L218.928 66.781C218.928 66.781 223.7 66.499 225.126 64.019C226.552 61.539 228.356 54.245 223.357 53.455C218.357 52.665 222.918 47.252 216.082 43.318C209.246 39.383 188.008 36.611 184.95 43.318C181.893 50.024 177.97 56.875 177.97 56.875L177.243 56.863Z" fill="#FDC0AE"/>
<path d="M180.605 58.902C180.605 58.902 180.486 56.863 177.97 56.863C177.243 56.863 174.304 45.3 177.076 39.248C179.755 33.39 183.681 34.324 183.681 34.324C183.681 34.324 213.5 22.5 223.357 34.533C225 38 225.203 42.502 225.123 45.283C224.95 51.438 223.748 53.522 223.748 53.522C219.838 52.237 219.71 56.975 219.71 56.975L219.277 61.305C219.128 61.334 218.973 61.326 218.827 61.284C218.681 61.241 218.547 61.164 218.436 61.059C218.325 60.955 218.241 60.825 218.19 60.681C218.139 60.537 218.123 60.383 218.143 60.232C218.732 56.284 216.377 44.374 208.102 43.372C198.036 42.155 194.94 49.006 189.193 46.906C188.094 46.504 187.078 45.926 186.402 45.81C186.402 45.81 186.549 51.553 185.441 55.552C184.874 57.672 184.502 59.84 184.329 62.027C184.308 62.263 184.241 62.493 184.131 62.703C184.022 62.912 183.872 63.098 183.69 63.249C183.508 63.401 183.298 63.514 183.072 63.583C182.846 63.653 182.609 63.676 182.374 63.653L180.605 58.902Z" fill="#222430"/>
<path d="M188.665 84.116V95.304C188.665 95.304 185.886 96.293 183.537 97.292C183.537 97.292 182.576 99.842 182.774 101.615C183.3 106.182 186.787 113.043 198.827 113.233C208.637 113.387 214.877 108.974 217.111 104.702C218.649 101.756 217.498 98.467 217.498 98.467C217.498 98.467 215.165 97.266 213.332 97.109C210.973 96.906 211.675 86.435 211.919 85.118C211.839 85.684 197.613 91.941 188.665 84.116Z" fill="#FDC0AE"/>
<path d="M222.357 155.175C216.252 155.075 200.987 154.314 189.732 154.648C182.441 154.863 176.832 154.764 176.49 158.223C175.176 171.411 195.344 177.132 195.344 177.132C195.344 177.132 241.442 187.937 254.184 187.593C266.926 187.249 262.799 186.591 264.439 171.469C264.821 167.936 263.507 148.285 259.985 129.129C256.463 109.973 250.018 108.453 246.845 106.099C248.447 107.284 216.688 99.942 218.171 99.884C217.71 99.9 218.812 106.17 217.415 113.236C214.637 127.166 208.089 147.495 202.638 152.223C202.638 152.223 204.045 154.214 209.749 155.159" fill="white"/>
<path d="M187.11 129.129C187.11 129.129 193.731 152.175 194.443 153.742C195.193 155.387 163.632 158.287 163.632 158.287L195.587 155.351L197.959 174.369C197.959 174.369 193.632 179.544 185.12 179.685C176.608 179.827 160.981 184.439 147.165 182.062C133.349 179.685 137.551 167.929 137.259 161.644C136.968 155.358 144.749 110.207 154.283 106.542C162.446 103.404 168.583 103.478 180.627 100.292" fill="white"/>
<path d="M188.319 95.557C188.319 95.557 169.253 94.639 169.253 119.583C168.933 129.81 170.125 140.843 170.125 140.843L171.224 140.037C171.224 140.037 169.051 122.933 171.567 111.052C172.849 104.93 176.695 99.6271 182.117 97.6391C183.345 97.0931 187.357 96.248 187.357 96.248L188.319 95.557Z" fill="#999999"/>
<path d="M212.56 97.115C212.56 97.115 231.388 98.377 231.388 123.322L233.058 123.45C233.058 123.45 233.51 110.907 226.302 103.452C224.571 101.663 221.421 100.176 218.755 99.196C217.527 98.65 213.515 97.806 213.515 97.806L212.56 97.115Z" fill="#999999"/>
<path d="M173.852 150.797C176.994 150.797 179.541 148.244 179.541 145.096C179.541 141.947 176.994 139.394 173.852 139.394C170.71 139.394 168.163 141.947 168.163 145.096C168.163 148.244 170.71 150.797 173.852 150.797Z" fill="#CCCCCC"/>
<path d="M194.026 152.223C194.026 151.468 178.412 107.185 183.537 97.298C184.143 96.977 185.675 96.781 186.761 96.383C187.452 96.137 188.096 95.774 188.665 95.31V93.213C188.665 93.213 174.964 91.51 173.493 110.769C172.022 130.028 172.653 131.191 172.653 131.191C172.653 131.191 177.381 130.767 179.48 131.191C181.579 131.615 176.435 135.084 176.643 137.714C176.852 140.345 186.54 143.13 189.732 151.475" fill="white"/>
<path d="M202.631 153.196C202.631 152.798 207.961 140.432 212.22 127.414C216.002 115.851 218.95 103.754 216.527 99.097C215.281 98.201 211.4 97.109 211.4 97.109L211.864 94.571C211.864 94.571 223.898 93.974 225.369 113.236C226.84 132.498 224.902 131.865 224.902 131.865C224.902 131.865 220.646 129.71 218.543 130.131C216.441 130.552 222.02 137.618 219.7 138.868C217.034 140.303 202.631 153.196 202.631 153.196Z" fill="white"/>
<path d="M173.852 149.213C176.121 149.213 177.961 147.37 177.961 145.096C177.961 142.821 176.121 140.978 173.852 140.978C171.583 140.978 169.743 142.821 169.743 145.096C169.743 147.37 171.583 149.213 173.852 149.213Z" stroke="#808080" stroke-miterlimit="10" stroke-linecap="round" stroke-linejoin="round"/>
<path d="M243.025 159.463C240.121 153.61 224.985 153.212 218.918 153.196C212.851 153.18 192.767 154.394 192.767 154.394" fill="white"/>
<path d="M243.025 159.463C240.121 153.61 224.985 153.212 218.918 153.196C212.851 153.18 192.767 154.394 192.767 154.394" stroke="#C2CEFF" stroke-linecap="round" stroke-linejoin="round"/>
<path d="M188.665 83.855C188.665 83.855 195 89.5 204.23 88.096L188.665 95.304V83.855Z" fill="#EA917D"/>
<path d="M183.379 36C183.379 36 181 46 190.5 47" stroke="white" stroke-linecap="round" stroke-linejoin="round"/>
<path d="M208.599 52.88C208.599 52.88 213.274 51.502 214.278 54.923" stroke="#222430" stroke-linecap="round" stroke-linejoin="round"/>
<path d="M196.853 53.702C196.853 53.702 193.1 51.132 190.37 54.923" stroke="#222430" stroke-linecap="round" stroke-linejoin="round"/>
<path d="M209.621 61.0131C210.46 61.0131 211.14 60.1321 211.14 59.0471C211.14 57.9611 210.46 57.0811 209.621 57.0811C208.782 57.0811 208.102 57.9611 208.102 59.0471C208.102 60.1321 208.782 61.0131 209.621 61.0131Z" fill="#222430"/>
<path d="M194.619 61.0131C195.458 61.0131 196.138 60.1321 196.138 59.0471C196.138 57.9611 195.458 57.0811 194.619 57.0811C193.78 57.0811 193.1 57.9611 193.1 59.0471C193.1 60.1321 193.78 61.0131 194.619 61.0131Z" fill="#222430"/>
<path d="M201.984 61.012C201.984 61.012 199.821 69.597 201 70.5C202.179 71.403 202.583 71.509 205.147 70.754" stroke="#222430" stroke-linecap="round" stroke-linejoin="round"/>
<path d="M196 78.5C196 78.5 201 83.5 206.916 78.874" stroke="#222430" stroke-linecap="round" stroke-linejoin="round"/>
<path d="M161.472 158.216C161.472 158.216 193.344 184.121 246.451 188.277C254.973 188.942 262.026 191.059 263.786 183.678" fill="white"/>
<path d="M161.472 158.216C161.472 158.216 193.344 184.121 246.451 188.277C254.973 188.942 262.026 191.059 263.786 183.678" stroke="#C2CEFF" stroke-linecap="round" stroke-linejoin="round"/>
<path d="M192.767 178.009C192.767 178.009 157.382 194.939 141.573 186.591C131.443 181.243 141.538 135.392 141.733 134.583" fill="white"/>
<path d="M192.767 178.009C192.767 178.009 157.382 194.939 141.573 186.591C131.443 181.243 141.538 135.392 141.733 134.583" stroke="#C2CEFF" stroke-linecap="round" stroke-linejoin="round"/>
<path d="M235.731 154.394C235.731 154.394 235.285 152.355 234.846 149.416C234.205 145.099 233.58 138.832 234.413 134.201C234.413 134.201 232.664 149.515 232.606 153.964L235.731 154.394Z" fill="#CCC0FF"/>
<path d="M162.093 129.129C162.093 129.129 165.85 150.572 158.757 159.463C158.757 159.463 163.039 156.893 171.224 155.83" fill="white"/>
<path d="M162.093 129.129C162.093 129.129 165.85 150.572 158.757 159.463C158.757 159.463 163.039 156.893 171.224 155.83" stroke="#C2CEFF" stroke-linecap="round" stroke-linejoin="round"/>
<path opacity="0.5" d="M63.9778 178.943C63.9778 178.943 63.9425 178.24 63.9778 177.016" stroke="#D9C172" stroke-linecap="round" stroke-linejoin="round"/>
<path opacity="0.5" d="M64.205 173.069C65.167 162.977 69.878 143.066 91.648 139.664C106.39 138.884 116.027 150.906 108.285 155.332C99.474 160.352 82.835 137.772 101.205 116.978C110.425 106.542 121.53 106.899 127.212 107.984" stroke="#D9C172" stroke-linecap="round" stroke-linejoin="round" stroke-dasharray="12.27 12.27"/>
<path opacity="0.5" d="M129.132 108.444C129.753 108.603 130.365 108.797 130.965 109.025" stroke="#D9C172" stroke-linecap="round" stroke-linejoin="round"/>
<path d="M51.8604 232.834C56.7137 232.834 60.6481 228.891 60.6481 224.026C60.6481 219.162 56.7137 215.219 51.8604 215.219C47.0072 215.219 43.0728 219.162 43.0728 224.026C43.0728 228.891 47.0072 232.834 51.8604 232.834Z" fill="#2FB6BD"/>
<path d="M205.323 180.161C205.323 180.161 205.596 257.418 206.682 257.637C209.698 258.244 209.486 261.86 209.486 261.86L207.698 220.22L205.323 180.161Z" fill="#E6E6E6"/>
<path d="M215.419 182.615L220.226 261.86L221.482 261.401C221.482 261.401 219.748 239.473 219.344 227.675C218.444 201.803 215.419 182.615 215.419 182.615Z" fill="#E6E6E6"/>
<path d="M211.871 94.166C211.871 94.166 224.908 93.974 226.379 113.236C227.85 132.498 225.908 131.865 225.908 131.865C225.908 131.865 221.652 129.71 219.553 130.131C217.454 130.552 223.027 137.618 220.706 138.867C218.04 140.303 203.638 153.196 203.638 153.196" stroke="#C2CEFF" stroke-linecap="round" stroke-linejoin="round"/>
<path d="M188.072 93.184C188.072 93.184 174.964 91.517 173.493 110.776C172.022 130.035 172.653 131.197 172.653 131.197C172.653 131.197 177.381 130.773 179.48 131.197C181.579 131.621 176.435 135.09 176.643 137.721C176.852 140.351 186.54 143.136 189.732 151.481" stroke="#C2CEFF" stroke-linecap="round" stroke-linejoin="round"/>
<path d="M194.026 152.223C194.026 151.468 178.412 107.185 183.537 97.298" stroke="#C2CEFF" stroke-linecap="round" stroke-linejoin="round"/>
<path d="M212.56 150.986C213.505 150.986 214.271 150.218 214.271 149.271C214.271 148.324 213.505 147.556 212.56 147.556C211.615 147.556 210.848 148.324 210.848 149.271C210.848 150.218 211.615 150.986 212.56 150.986Z" fill="#CCCCCC"/>
<path d="M244.736 150.928C245.681 150.928 246.448 150.161 246.448 149.213C246.448 148.266 245.681 147.498 244.736 147.498C243.791 147.498 243.025 148.266 243.025 149.213C243.025 150.161 243.791 150.928 244.736 150.928Z" fill="#CCCCCC"/>
<path d="M212.082 147.527C212.079 146.157 212.158 144.789 212.319 143.428C212.467 142.067 212.701 140.718 212.98 139.369C213.542 136.642 214.445 133.998 215.669 131.499C216.916 128.883 218.73 126.579 220.979 124.754C223.343 122.909 226.219 121.842 229.212 121.7C229.581 121.671 229.946 121.677 230.315 121.667C230.683 121.658 231.048 121.667 231.401 121.712C231.754 121.757 232.106 121.767 232.503 121.815C232.9 121.87 233.293 121.949 233.68 122.053C235.18 122.482 236.568 123.235 237.747 124.259C238.861 125.223 239.839 126.337 240.65 127.568C241.44 128.752 242.117 130.008 242.672 131.319C243.225 132.605 243.691 133.926 244.066 135.273C244.43 136.61 244.72 137.965 244.935 139.333C245.355 142.051 245.45 144.809 245.217 147.549H244.256C244.047 144.914 243.618 142.301 242.974 139.738C242.66 138.469 242.278 137.217 241.83 135.99C241.4 134.772 240.895 133.582 240.317 132.427C239.75 131.296 239.093 130.212 238.352 129.187C237.647 128.194 236.815 127.299 235.878 126.524C235.008 125.797 233.994 125.262 232.904 124.953C232.642 124.886 232.377 124.835 232.109 124.799C231.84 124.767 231.52 124.744 231.205 124.722C230.891 124.699 230.593 124.699 230.286 124.683C229.978 124.667 229.677 124.683 229.376 124.703C228.775 124.736 228.176 124.807 227.584 124.915C227 125.033 226.424 125.188 225.86 125.38C224.731 125.781 223.666 126.343 222.697 127.047C220.735 128.474 219.171 130.481 217.889 132.688C216.621 134.96 215.603 137.364 214.851 139.857C214.065 142.379 213.463 144.956 213.05 147.566L212.082 147.527Z" fill="#808080"/>
<path d="M218.5 67C218.5 67 219 74 215.5 80.5C213.811 83.07 211.5 88 203 88.5" stroke="white" stroke-linecap="round" stroke-linejoin="round"/>
<path d="M234.446 153.196C234.446 153.196 233.526 154.879 231.202 154.16L212.56 153.196C212.56 153.196 220.287 147.476 228.321 145.092C229.858 144.603 231.456 144.333 233.067 144.293C234 144.293 239.759 154.866 237.429 154.866C234.798 154.866 234.446 153.193 234.446 153.193" fill="#FDC0AE"/>
<path d="M230.622 153.89C230.622 153.89 230.555 151.465 229.315 150.858C228.693 150.556 224.126 152.11 224.126 152.11" stroke="#EA917D" stroke-linecap="round" stroke-linejoin="round"/>
<path d="M225.94 149.271C225.94 149.271 229.75 147.765 230.555 147.556C231.167 147.399 233.651 149.997 234.186 153.196" stroke="#EA917D" stroke-linecap="round" stroke-linejoin="round"/>
<path d="M228.93 144.922C228.93 144.922 232.949 143.695 233.343 144.296C233.737 144.896 237.564 150.655 237.804 152.987C237.98 154.686 237.086 155.043 236.298 154.744" stroke="#EA917D" stroke-linecap="round" stroke-linejoin="round"/>
<path d="M0 298.515C0 298.515 53.0078 316.351 53.418 321.693C53.8282 327.035 36.0254 361.705 36.0254 361.705C36.0254 363.134 0 361.875 0 361.875V298.515Z" fill="#E98600"/>
<path d="M46.6622 225.083L50.3766 228.231L56.9561 221.149" stroke="white" stroke-linecap="round" stroke-linejoin="round"/>
<path opacity="0.1" d="M80.8 361.859H0V368H80.8V361.859Z" fill="#CCC0FF"/>
<path d="M186.543 262.133C187.146 262.159 172.903 258.016 167.25 257.958C166.183 257.958 170.279 256.217 169.211 256.175C161.465 255.854 159.735 257.421 158.869 257.36C154.572 257.065 150.399 257.062 146.899 257.572C144.787 256.978 145.65 263.129 145.65 263.129C145.65 263.129 166.609 261.24 186.543 262.133Z" fill="#E6E6E6"/>
<path opacity="0.5" d="M31.9521 52.604H130.965" stroke="#D9C172" stroke-miterlimit="10" stroke-linecap="round" stroke-linejoin="round"/>
<path opacity="0.5" d="M11.1432 77.866H110.156" stroke="#D9C172" stroke-miterlimit="10" stroke-linecap="round" stroke-linejoin="round"/>
<path d="M171.224 215.219C171.224 215.219 172.371 250.326 169.211 256.175L166.007 256.13C166.007 256.13 171.977 255.253 171.224 215.219Z" fill="#E6E6E6"/>
<path opacity="0.5" d="M103.266 263.129H302" stroke="#CCC0FF" stroke-miterlimit="10" stroke-linecap="round" stroke-linejoin="round"/>
<path opacity="0.5" d="M126.558 279.433H272.676" stroke="#CCC0FF" stroke-miterlimit="10" stroke-linecap="round" stroke-linejoin="round"/>
</svg>
