<svg width="40" height="40" viewBox="0 0 40 40" fill="none" xmlns="http://www.w3.org/2000/svg">
<path fill-rule="evenodd" clip-rule="evenodd" d="M0 20C0 5.001 5.0011 0 20 0C34.999 0 40 5.001 40 20C40 34.999 34.999 40 20 40C5.0011 40 0 34.999 0 20Z" fill="#D9C172"/>
<path d="M28.5999 24.4667H11.3999V13.7333C11.3999 13.3333 11.7332 13 12.1332 13H27.8666C28.2666 13 28.5999 13.3333 28.5999 13.7333V24.4667Z" stroke="#503E00" stroke-miterlimit="10" stroke-linecap="round" stroke-linejoin="round"/>
<path d="M29.5333 26.3332H10.4667C10.2 26.3332 10 26.1332 10 25.8665V24.9999C10 24.7332 10.2 24.5332 10.4667 24.5332H29.5333C29.8 24.5332 30 24.7332 30 24.9999V25.8665C30 26.1332 29.8 26.3332 29.5333 26.3332Z" stroke="#503E00" stroke-miterlimit="10" stroke-linecap="round" stroke-linejoin="round"/>
<path d="M21.3664 18.9671C22.733 19.4671 23.6997 20.8671 23.6997 22.5004C23.6997 22.7337 23.533 22.9004 23.333 22.9004H16.0664C15.8664 22.9004 15.6997 22.7004 15.6997 22.5004C15.6997 20.8337 16.6997 19.4004 18.0997 18.9337H18.1664L19.7997 20.4337L21.2997 18.9004L21.3664 18.9671Z" stroke="#503E00" stroke-width="0.8" stroke-miterlimit="10" stroke-linecap="round" stroke-linejoin="round"/>
<path d="M11.5664 22.9004H28.4331" stroke="#503E00" stroke-miterlimit="10" stroke-linecap="round" stroke-linejoin="round"/>
<path d="M21.3999 16.6667C21.2999 17.9334 20.6666 18.8001 19.7333 18.8001C18.7999 18.8001 18.1666 17.8667 18.0666 16.6667C17.9666 15.6001 18.4666 14.7334 19.7333 14.7334C21.1333 14.7334 21.4666 15.6334 21.3999 16.6667Z" stroke="#503E00" stroke-width="0.8" stroke-miterlimit="10" stroke-linecap="round" stroke-linejoin="round"/>
<path d="M22.8332 21.4001H22.3999V20.9668H21.9665V21.4001H21.5332V21.8335H21.9665V22.2668H22.3999V21.8335H22.8332V21.4001Z" fill="#503E00"/>
<path d="M16.9997 21.7004C16.7664 21.1337 16.9997 20.5004 17.4664 20.3337C17.9331 20.1671 18.4997 20.4671 18.7331 21.0671" stroke="#503E00" stroke-width="0.5" stroke-miterlimit="10" stroke-linecap="round" stroke-linejoin="round"/>
<path d="M17.3334 20.3332C17.3334 20.3332 17.1668 20.0332 17.1001 19.5332" stroke="#503E00" stroke-width="0.5" stroke-miterlimit="10" stroke-linecap="round" stroke-linejoin="round"/>
<path d="M17.6332 21.9673C17.7332 22.2006 17.5998 22.5006 17.3665 22.5673C17.1332 22.6673 16.8332 22.5339 16.7665 22.3006C16.6665 22.0673 16.7998 21.7673 17.0332 21.7006C17.2665 21.6006 17.5332 21.7339 17.6332 21.9673Z" fill="#503E00"/>
<path d="M19.2667 21.3003C19.3334 21.5336 19.2334 21.7669 19.0334 21.8336C18.8001 21.9003 18.5667 21.8003 18.5001 21.6003C18.4334 21.3669 18.5334 21.1336 18.7334 21.0669C18.9334 20.9669 19.2001 21.0669 19.2667 21.3003Z" fill="#503E00"/>
<path d="M21.8664 19.2334C21.8664 19.5001 21.7664 19.8001 21.5664 20.1334" stroke="#503E00" stroke-width="0.5" stroke-miterlimit="10" stroke-linecap="round" stroke-linejoin="round"/>
<path d="M21.8 20.4003C21.8 20.6336 21.6 20.8669 21.3334 20.8669C21.0667 20.8669 20.8667 20.6669 20.8667 20.4003C20.8667 20.1669 21.0667 19.9336 21.3334 19.9336C21.6 19.9669 21.8 20.1669 21.8 20.4003Z" fill="#503E00"/>
</svg>
