<svg width="38" height="38" viewBox="0 0 38 38" fill="none" xmlns="http://www.w3.org/2000/svg">
<path d="M37 32.304C37 34.895 34.895 37 32.304 37H5.69601C3.10501 37 1 34.895 1 32.304V5.69601C1 3.10501 3.10501 1 5.69601 1H32.304C34.895 1 37 3.10501 37 5.69601V32.304Z" stroke="#D9C172" stroke-width="1.2" stroke-miterlimit="10" stroke-linecap="round" stroke-linejoin="round"/>
<path d="M5.69601 33.8698C4.83501 33.8698 4.13 33.1648 4.13 32.3048V5.69586C4.13 4.83486 4.83501 4.13086 5.69601 4.13086H29.739" stroke="#D9C172" stroke-width="1.2" stroke-miterlimit="10" stroke-linecap="round" stroke-linejoin="round"/>
<path d="M32.304 4.13086C33.165 4.13086 33.87 4.83486 33.87 5.69586V32.3048C33.87 33.1648 33.165 33.8698 32.304 33.8698H8.26099" stroke="#D9C172" stroke-width="1.2" stroke-miterlimit="10" stroke-linecap="round" stroke-linejoin="round"/>
<path d="M13.999 17.1758C11.424 18.2168 9.60901 20.7448 9.60901 23.6948C9.60901 27.5848 12.763 30.7388 16.652 30.7388C19.626 30.7388 22.162 28.8918 23.195 26.2858" stroke="#D9C172" stroke-width="1.2" stroke-miterlimit="10" stroke-linecap="round" stroke-linejoin="round"/>
<path d="M15.87 12.7393L16.652 19.7823H23.696L26.043 27.6093L29.174 26.8262" stroke="#D9C172" stroke-width="1.2" stroke-miterlimit="10" stroke-linecap="round" stroke-linejoin="round"/>
<path d="M22.13 16.6519H16.308" stroke="#D9C172" stroke-width="1.2" stroke-miterlimit="10" stroke-linecap="round" stroke-linejoin="round"/>
<path d="M16.652 10.3907C17.517 10.3907 18.217 9.69074 18.217 8.82574C18.217 7.96174 17.517 7.26074 16.652 7.26074C15.788 7.26074 15.087 7.96174 15.087 8.82574C15.087 9.69074 15.788 10.3907 16.652 10.3907Z" stroke="#D9C172" stroke-width="1.2" stroke-miterlimit="10" stroke-linecap="round" stroke-linejoin="round"/>
</svg>
